<?xml version="1.0" standalone="no"?><!DOCTYPE svg PUBLIC "-//W3C//DTD SVG 1.1//EN" "http://www.w3.org/Graphics/SVG/1.1/DTD/svg11.dtd"><svg viewBox="0 0 1000 405" height="405" width="1000" version="1.1" xmlns="http://www.w3.org/2000/svg" xmlns:xlink="http://www.w3.org/1999/xlink"><defs xmlns="http://www.w3.org/1999/xhtml"><style type="text/css"><![CDATA[
.gm-style .gm-style-cc span, .gm-style .gm-style-cc a, .gm-style .gm-style-mtc div { font-size: 10px; }
.gm-style { font-family: Roboto, Arial, sans-serif; font-size: 11px; font-weight: 400; text-decoration: none; }
.gm-style img { max-width: none; }
._style_428QBV { display: inline-block !important; }
._style_428QBV::after { display: table !important; clear: both !important; }
._style_2oaFa9 { float: right !important; }
._style_4qLRK9 { position: absolute !important; top: 17px !important; color: rgb(255, 255, 255) !important; right: 24px !important; }
._style_4qLRK9:hover { color: rgb(198, 198, 198) !important; }
._style_36Mftu { position: relative !important; display: inline-block !important; height: 30px !important; width: 30px !important; font-size: 16px !important; line-height: 24px !important; border: 2px solid rgb(62, 62, 62) !important; border-radius: 50% !important; }
._style_1UhP79 { display: inline-block !important; margin-left: 24px !important; cursor: pointer !important; transform: translateY(13px) !important; color: rgb(13, 105, 108) !important; position: relative !important; }
._style_1UhP79:hover { color: rgb(9, 77, 79) !important; }
._style_1UhP79:focus { color: rgb(9, 77, 79) !important; }
._style_1SUL4j { background-color: rgb(248, 248, 249) !important; border-bottom: 2px solid rgb(241, 241, 241) !important; border-top: 2px solid rgb(241, 241, 241) !important; display: none !important; padding: 8px 20px !important; position: relative !important; }
._style_1aI2j0 { height: 48px !important; }
._style_4oGfO9 { color: rgb(147, 147, 147) !important; left: 20px !important; margin-top: -8px !important; position: absolute !important; top: 50% !important; }
._style_1vg4QW { background-image: url("https://d1a3f4spazzrp4.cloudfront.net/uber-com/1.2.22/d1a3f4spazzrp4.cloudfront.net/images/common/app-icon-rider-c4f46c9bd7.png") !important; background-size: 100% !important; display: inline-block !important; height: 48px !important; margin-left: 24px !important; width: 48px !important; }
._style_326d4w { display: inline-block !important; line-height: 1 !important; margin-left: 8px !important; margin-top: -15px !important; position: absolute !important; top: 50% !important; }
._style_yZn95 { font-size: 14px !important; margin-bottom: 6px !important; text-transform: uppercase !important; font-weight: 500 !important; }
._style_kYMs2 { font-size: 10px !important; font-weight: 400 !important; }
._style_2Jw8il { color: rgb(13, 105, 108) !important; font-size: 14px !important; line-height: 1 !important; margin-top: -7px !important; position: absolute !important; text-transform: uppercase !important; top: 50% !important; right: 24px !important; font-weight: 600 !important; }
._style_4wJp4e { fill: currentcolor !important; }
._style_2gYiok { color: rgb(0, 0, 0) !important; height: 16px !important; vertical-align: middle !important; margin-right: 0px !important; transform: initial !important; fill: currentcolor !important; }
._style_2ei6R2:hover { color: rgb(13, 105, 108) !important; padding-bottom: 0px !important; padding-top: 13px !important; border-bottom: none !important; border-top: 4px solid rgb(13, 105, 108) !important; }
._style_2JjW2G:hover { color: rgb(13, 105, 108) !important; padding-bottom: 0px !important; padding-top: 15px !important; border-bottom: none !important; border-top: 4px solid rgb(13, 105, 108) !important; }
._style_1JuVVZ { background-color: rgb(13, 105, 108) !important; border-color: rgb(13, 105, 108) !important; }
._style_1JuVVZ:hover { background-color: rgb(9, 77, 79) !important; border-color: rgb(9, 77, 79) !important; }
._style_1JuVVZ:focus { background-color: rgb(9, 77, 79) !important; border-color: rgb(9, 77, 79) !important; }
._style_1JuVVZ:active { background-color: rgb(9, 77, 79) !important; border-color: rgb(9, 77, 79) !important; }
._style_1JZ8kY { padding: 52px !important; width: 504px !important; }
._style_3E0d1k { color: rgb(0, 0, 0) !important; font-size: 24px !important; line-height: 32px !important; margin-bottom: 32px !important; }
._style_1oby6h { position: relative !important; margin-bottom: 32px !important; }
._style_1HhTo1 { font-size: 14px !important; margin-bottom: 0px !important; }
._style_1RvW0f { background-color: rgb(13, 105, 108) !important; border-color: rgb(13, 105, 108) !important; }
._style_1RvW0f:hover { background-color: rgb(9, 77, 79) !important; border-color: rgb(9, 77, 79) !important; }
._style_2ChM7P { position: fixed !important; top: 0px !important; bottom: 0px !important; right: 0px !important; left: 0px !important; background-color: rgba(0, 0, 0, 0.498039) !important; padding-top: 12vh !important; z-index: 9999999 !important; }
._style_3jptXC { position: fixed !important; background-color: rgb(255, 255, 255) !important; left: 50% !important; transform: translateX(-50%) !important; }
._style_1Enqv5 { position: absolute !important; top: 0px !important; right: 0px !important; padding: 10px !important; width: 38px !important; height: 38px !important; cursor: pointer !important; text-align: center !important; border: none !important; background-color: rgb(255, 255, 255) !important; }
._style_2HpgLe { visibility: hidden !important; fill: currentcolor !important; }
._style_1Ih8IB:hover { color: rgb(9, 77, 79) !important; text-decoration: underline !important; }
._style_1Ih8IB:focus { color: rgb(9, 77, 79) !important; text-decoration: underline !important; }
._style_3UStPQ:hover { color: rgb(198, 198, 198) !important; }
._style_1sGX8l { margin-left: 20px !important; margin-top: 19px !important; width: 24px !important; height: 24px !important; fill: currentcolor !important; }
._style_xCeYW { padding-top: 24px !important; padding-left: 28px !important; fill: currentcolor !important; box-sizing: content-box !important; transform: initial !important; }
._style_4hHuPu { transform: initial !important; vertical-align: text-bottom !important; fill: currentcolor !important; }
._style_1GcvDT { margin-right: 10px !important; transform: translateY(2px) !important; fill: currentcolor !important; }
._style_2LFHGc { padding-right: 145px !important; padding-left: 145px !important; background-color: rgb(255, 255, 255) !important; }
._style_4tEdrq { padding: 80px 0px !important; }
._style_VxPAE { position: relative !important; }
._style_3zaJwR { font-weight: 400 !important; font-size: 36px !important; letter-spacing: -0.02em !important; line-height: 1.22222 !important; margin-bottom: 24px !important; }
._style_ZJW1y { font-weight: 200 !important; color: rgb(73, 73, 73) !important; font-size: 23px !important; letter-spacing: -0.02em !important; line-height: 1 !important; margin-bottom: 12px !important; }
._style_3418qX { -webkit-font-smoothing: initial !important; background-color: rgb(0, 0, 0) !important; color: rgb(255, 255, 255) !important; padding-top: 52px !important; }
._style_bvXS5 { width: 33.333% !important; }
._style_1YpxGn { border-bottom: 1px solid rgb(40, 39, 39) !important; padding: 32px 0px !important; }
._style_18Xh4k { width: 66.666% !important; }
._style_14S3e1 { padding-top: 16px !important; padding-bottom: 12px !important; border-bottom: 1px solid rgb(40, 39, 39) !important; }
._style_3QfsMI { padding-top: 40px !important; border-bottom: 1px solid rgb(40, 39, 39) !important; padding-bottom: 40px !important; }
._style_gwtgR { width: 33.333% !important; }
._style_24RCuF { display: block !important; font-size: 17px !important; position: relative !important; top: 7px !important; }
._style_2BAGBT { width: 50% !important; }
._style_1gAz3C { width: 66.666% !important; }
._style_26QL5l { color: rgb(255, 255, 255) !important; }
._style_3IiqoB { color: rgb(255, 255, 255) !important; }
._style_3IiqoB:hover { color: rgb(198, 198, 198) !important; }
._style_3IiqoB:focus { color: rgb(198, 198, 198) !important; }
._style_4jsgrJ { color: rgb(0, 0, 0) !important; }
._style_hXjNE { padding-bottom: 12px !important; }
._style_1hnHrL { color: rgb(255, 255, 255) !important; font-weight: 500 !important; }
._style_1hnHrL:hover { color: rgb(198, 198, 198) !important; }
._style_1hnHrL:focus { color: rgb(198, 198, 198) !important; }
._style_3Jeye1 { padding-top: 12px !important; padding-bottom: 12px !important; }
._style_1Nwixv { color: rgb(255, 255, 255) !important; padding: 5px 0px !important; position: absolute !important; }
._style_3ygUST { color: rgb(255, 255, 255) !important; border-color: transparent !important; text-transform: uppercase !important; padding: 8px 0px 8px 30px !important; }
._style_2ptyvC { width: 100% !important; font-weight: 500 !important; }
._style_2ptyvC::after { color: rgb(147, 147, 147) !important; right: 10px !important; }
._style_1BKBec { transform: translateY(2px) !important; fill: currentcolor !important; }
._style_4suyUZ { margin-left: 0px !important; list-style: none !important; }
._style_4vDxhh { width: 50% !important; }
._style_3goTnr { font-size: 24px !important; line-height: 32px !important; margin-bottom: 24px !important; padding-left: 32px !important; padding-right: 32px !important; padding-top: 38px !important; }
._style_3FU8hw { padding-left: 32px !important; padding-right: 32px !important; padding-bottom: 12px !important; max-height: 65vh !important; overflow-y: auto !important; }
._style_wcZit { color: rgb(0, 0, 0) !important; }
._style_wcZit:hover { color: rgb(13, 105, 108) !important; text-decoration: underline !important; }
._style_wcZit:focus { color: rgb(13, 105, 108) !important; text-decoration: underline !important; }
._style_1w4eRP { position: fixed !important; background-color: rgb(255, 255, 255) !important; left: 50% !important; transform: translateX(-50%) !important; }
._style_414tT0 { padding-right: 12px !important; }
._style_3Lugp9 { color: rgb(255, 255, 255) !important; font-size: 14px !important; line-height: 20px !important; }
._style_3Lugp9:hover { color: rgb(198, 198, 198) !important; }
._style_3Lugp9:focus { color: rgb(198, 198, 198) !important; }
._style_3AUhs5 { margin-left: 0px !important; list-style: none !important; margin-right: 0px !important; }
._style_3zoQ0P { margin-bottom: 0px !important; padding-bottom: 12px !important; }
._style_3qJACI { margin-bottom: 0px !important; padding-bottom: 0px !important; }
._style_1KgRnW { margin-bottom: 0px !important; padding-bottom: 0px !important; }
._style_sCsrh { font-size: 12px !important; line-height: 20px !important; white-space: nowrap !important; color: rgb(255, 255, 255) !important; }
._style_sCsrh:hover { color: rgb(198, 198, 198) !important; }
._style_sCsrh:focus { color: rgb(198, 198, 198) !important; }
._style_4hxkaV { display: inline-block !important; padding-left: 16px !important; }
._style_4zgDoB { border-bottom: 1px solid rgb(40, 39, 39) !important; padding: 18px 0px !important; }
._style_4vtRTk { font-size: 12px !important; line-height: 20px !important; white-space: nowrap !important; color: rgb(192, 192, 192) !important; }
._style_1NVEIM { float: left !important; padding-right: 20px !important; }
._style_2Jho6k { max-width: 120px !important; }
._style_2NejXE::after { display: table !important; clear: both !important; }
._style_3TG8AD { width: 33.333% !important; }
._style_zVjAb { font-weight: 500 !important; font-size: 10px !important; line-height: 16px !important; color: rgb(192, 192, 192) !important; }
._style_2HGMjk { font-weight: 500 !important; font-size: 10px !important; line-height: 16px !important; color: rgb(255, 255, 255) !important; }
._style_2HGMjk:hover { color: rgb(198, 198, 198) !important; }
._style_2HGMjk:focus { color: rgb(198, 198, 198) !important; }
._style_2MBZ4k { margin-bottom: 0px !important; }
._style_428QBV { display: inline-block !important; }
._style_428QBV::after { content: "" !important; display: table !important; clear: both !important; }
._style_2oaFa9 { float: right !important; }
._style_4qLRK9 { position: absolute !important; top: 17px !important; color: rgb(255, 255, 255) !important; right: 24px !important; }
._style_4qLRK9:hover { color: rgb(198, 198, 198) !important; }
._style_36Mftu { position: relative !important; display: inline-block !important; height: 30px !important; width: 30px !important; font-size: 16px !important; line-height: 24px !important; border: 2px solid rgb(62, 62, 62) !important; border-radius: 50% !important; }
._style_1UhP79 { display: inline-block !important; margin-left: 24px !important; cursor: pointer !important; transform: translateY(13px) !important; color: rgb(13, 105, 108) !important; position: relative !important; }
._style_1UhP79:hover { color: rgb(9, 77, 79) !important; }
._style_1UhP79:focus { color: rgb(9, 77, 79) !important; }
._style_1SUL4j { background-color: rgb(248, 248, 249) !important; border-bottom: 2px solid rgb(241, 241, 241) !important; border-top: 2px solid rgb(241, 241, 241) !important; display: none !important; padding: 8px 20px !important; position: relative !important; }
._style_1aI2j0 { height: 48px !important; }
._style_4oGfO9 { color: rgb(147, 147, 147) !important; left: 20px !important; margin-top: -8px !important; position: absolute !important; top: 50% !important; }
._style_1vg4QW { background-image: url("https://d1a3f4spazzrp4.cloudfront.net/uber-com/1.2.22/d1a3f4spazzrp4.cloudfront.net/images/common/app-icon-rider-c4f46c9bd7.png") !important; background-size: 100% !important; display: inline-block !important; height: 48px !important; margin-left: 24px !important; width: 48px !important; }
._style_326d4w { display: inline-block !important; line-height: 1 !important; margin-left: 8px !important; margin-top: -15px !important; position: absolute !important; top: 50% !important; }
._style_yZn95 { font-size: 14px !important; margin-bottom: 6px !important; text-transform: uppercase !important; font-family: ff-clan-web-pro, "Helvetica Neue", Helvetica, sans-serif !important; font-weight: 500 !important; }
._style_kYMs2 { font-size: 10px !important; font-family: ff-clan-web-pro, "Helvetica Neue", Helvetica, sans-serif !important; font-weight: 400 !important; }
._style_2Jw8il { color: rgb(13, 105, 108) !important; font-size: 14px !important; line-height: 1 !important; margin-top: -7px !important; position: absolute !important; text-transform: uppercase !important; top: 50% !important; right: 24px !important; font-family: ff-clan-web-pro, "Helvetica Neue", Helvetica, sans-serif !important; font-weight: 600 !important; }
._style_4wJp4e { fill: currentcolor !important; }
._style_2gYiok { color: rgb(0, 0, 0) !important; height: 16px !important; vertical-align: middle !important; margin-right: 0px !important; transform: initial !important; fill: currentcolor !important; }
._style_2ei6R2:hover { color: rgb(13, 105, 108) !important; padding-bottom: 0px !important; padding-top: 13px !important; border-bottom: none !important; border-top: 4px solid rgb(13, 105, 108) !important; }
._style_2JjW2G:hover { color: rgb(13, 105, 108) !important; padding-bottom: 0px !important; padding-top: 15px !important; border-bottom: none !important; border-top: 4px solid rgb(13, 105, 108) !important; }
._style_1JuVVZ { background-color: rgb(13, 105, 108) !important; border-color: rgb(13, 105, 108) !important; }
._style_1JuVVZ:hover { background-color: rgb(9, 77, 79) !important; border-color: rgb(9, 77, 79) !important; }
._style_1JuVVZ:focus { background-color: rgb(9, 77, 79) !important; border-color: rgb(9, 77, 79) !important; }
._style_1JuVVZ:active { background-color: rgb(9, 77, 79) !important; border-color: rgb(9, 77, 79) !important; }
._style_1JZ8kY { padding: 52px !important; width: 504px !important; }
._style_3E0d1k { color: rgb(0, 0, 0) !important; font-size: 24px !important; line-height: 32px !important; margin-bottom: 32px !important; }
._style_1oby6h { position: relative !important; margin-bottom: 32px !important; }
._style_1HhTo1 { font-size: 14px !important; margin-bottom: 0px !important; }
._style_1RvW0f { background-color: rgb(13, 105, 108) !important; border-color: rgb(13, 105, 108) !important; }
._style_1RvW0f:hover { background-color: rgb(9, 77, 79) !important; border-color: rgb(9, 77, 79) !important; }
._style_2ChM7P { position: fixed !important; top: 0px !important; bottom: 0px !important; right: 0px !important; left: 0px !important; background-color: rgba(0, 0, 0, 0.498039) !important; padding-top: 12vh !important; z-index: 9999999 !important; }
._style_3jptXC { position: fixed !important; background-color: rgb(255, 255, 255) !important; left: 50% !important; transform: translateX(-50%) !important; }
._style_1Enqv5 { position: absolute !important; top: 0px !important; right: 0px !important; padding: 10px !important; width: 38px !important; height: 38px !important; cursor: pointer !important; text-align: center !important; border: none !important; background-color: rgb(255, 255, 255) !important; }
._style_2HpgLe { visibility: hidden !important; fill: currentcolor !important; }
._style_1Ih8IB:hover { color: rgb(9, 77, 79) !important; text-decoration: underline !important; }
._style_1Ih8IB:focus { color: rgb(9, 77, 79) !important; text-decoration: underline !important; }
._style_3UStPQ:hover { color: rgb(198, 198, 198) !important; }
._style_1sGX8l { margin-left: 20px !important; margin-top: 19px !important; width: 24px !important; height: 24px !important; fill: currentcolor !important; }
._style_xCeYW { padding-top: 24px !important; padding-left: 28px !important; fill: currentcolor !important; box-sizing: content-box !important; transform: initial !important; }
._style_4hHuPu { transform: initial !important; vertical-align: text-bottom !important; fill: currentcolor !important; }
._style_1GcvDT { margin-right: 10px !important; transform: translateY(2px) !important; fill: currentcolor !important; }
._style_2LFHGc { padding-right: 145px !important; padding-left: 145px !important; background-color: rgb(255, 255, 255) !important; }
._style_4tEdrq { padding: 80px 0px !important; }
._style_VxPAE { position: relative !important; }
._style_3zaJwR { font-family: ff-clan-web-pro, "Helvetica Neue", Helvetica, sans-serif !important; font-weight: 400 !important; font-size: 36px !important; letter-spacing: -0.02em !important; line-height: 1.22222 !important; margin-bottom: 24px !important; }
._style_ZJW1y { font-family: ff-clan-web-pro, "Helvetica Neue", Helvetica, sans-serif !important; font-weight: 200 !important; color: rgb(73, 73, 73) !important; font-size: 23px !important; letter-spacing: -0.02em !important; line-height: 1 !important; margin-bottom: 12px !important; }
._style_3418qX { -webkit-font-smoothing: initial !important; background-color: rgb(0, 0, 0) !important; color: rgb(255, 255, 255) !important; padding-top: 52px !important; }
._style_bvXS5 { width: 33.333% !important; }
._style_1YpxGn { border-bottom: 1px solid rgb(40, 39, 39) !important; padding: 32px 0px !important; }
._style_18Xh4k { width: 66.666% !important; }
._style_14S3e1 { padding-top: 16px !important; padding-bottom: 12px !important; border-bottom: 1px solid rgb(40, 39, 39) !important; }
._style_3QfsMI { padding-top: 40px !important; border-bottom: 1px solid rgb(40, 39, 39) !important; padding-bottom: 40px !important; }
._style_gwtgR { width: 33.333% !important; }
._style_24RCuF { display: block !important; font-size: 17px !important; position: relative !important; top: 7px !important; }
._style_2BAGBT { width: 50% !important; }
._style_1gAz3C { width: 66.666% !important; }
._style_26QL5l { color: rgb(255, 255, 255) !important; }
._style_3IiqoB { color: rgb(255, 255, 255) !important; }
._style_3IiqoB:hover { color: rgb(198, 198, 198) !important; }
._style_3IiqoB:focus { color: rgb(198, 198, 198) !important; }
._style_4jsgrJ { color: rgb(0, 0, 0) !important; }
._style_hXjNE { padding-bottom: 12px !important; }
._style_1hnHrL { color: rgb(255, 255, 255) !important; font-weight: 500 !important; }
._style_1hnHrL:hover { color: rgb(198, 198, 198) !important; }
._style_1hnHrL:focus { color: rgb(198, 198, 198) !important; }
._style_3Jeye1 { padding-top: 12px !important; padding-bottom: 12px !important; }
._style_1Nwixv { color: rgb(255, 255, 255) !important; padding: 5px 0px !important; position: absolute !important; }
._style_3ygUST { color: rgb(255, 255, 255) !important; border-color: transparent !important; text-transform: uppercase !important; padding: 8px 0px 8px 30px !important; }
._style_2ptyvC { width: 100% !important; font-family: ff-clan-web-pro, "Helvetica Neue", Helvetica, sans-serif !important; font-weight: 500 !important; }
._style_2ptyvC::after { color: rgb(147, 147, 147) !important; right: 10px !important; }
._style_1BKBec { transform: translateY(2px) !important; fill: currentcolor !important; }
._style_4suyUZ { margin-left: 0px !important; list-style: none !important; }
._style_4vDxhh { width: 50% !important; }
._style_3goTnr { font-family: ff-clan-web-pro, "Helvetica Neue", Helvetica, sans-serif !important; font-size: 24px !important; line-height: 32px !important; margin-bottom: 24px !important; padding-left: 32px !important; padding-right: 32px !important; padding-top: 38px !important; }
._style_3FU8hw { padding-left: 32px !important; padding-right: 32px !important; padding-bottom: 12px !important; max-height: 65vh !important; overflow-y: auto !important; }
._style_wcZit { color: rgb(0, 0, 0) !important; }
._style_wcZit:hover { color: rgb(13, 105, 108) !important; text-decoration: underline !important; }
._style_wcZit:focus { color: rgb(13, 105, 108) !important; text-decoration: underline !important; }
._style_1w4eRP { position: fixed !important; background-color: rgb(255, 255, 255) !important; left: 50% !important; transform: translateX(-50%) !important; }
._style_414tT0 { padding-right: 12px !important; }
._style_3Lugp9 { color: rgb(255, 255, 255) !important; font-size: 14px !important; line-height: 20px !important; }
._style_3Lugp9:hover { color: rgb(198, 198, 198) !important; }
._style_3Lugp9:focus { color: rgb(198, 198, 198) !important; }
._style_3AUhs5 { margin-left: 0px !important; list-style: none !important; margin-right: 0px !important; }
._style_3zoQ0P { margin-bottom: 0px !important; padding-bottom: 12px !important; }
._style_3qJACI { margin-bottom: 0px !important; padding-bottom: 0px !important; }
._style_1KgRnW { margin-bottom: 0px !important; padding-bottom: 0px !important; }
._style_sCsrh { font-family: ff-clan-web-pro, "Helvetica Neue", Helvetica, sans-serif !important; font-size: 12px !important; line-height: 20px !important; white-space: nowrap !important; color: rgb(255, 255, 255) !important; }
._style_sCsrh:hover { color: rgb(198, 198, 198) !important; }
._style_sCsrh:focus { color: rgb(198, 198, 198) !important; }
._style_4hxkaV { display: inline-block !important; padding-left: 16px !important; }
._style_4zgDoB { border-bottom: 1px solid rgb(40, 39, 39) !important; padding: 18px 0px !important; }
._style_4vtRTk { font-family: ff-clan-web-pro, "Helvetica Neue", Helvetica, sans-serif !important; font-size: 12px !important; line-height: 20px !important; white-space: nowrap !important; color: rgb(192, 192, 192) !important; }
._style_1NVEIM { float: left !important; padding-right: 20px !important; }
._style_2Jho6k { max-width: 120px !important; }
._style_2NejXE::after { content: "" !important; display: table !important; clear: both !important; }
._style_3TG8AD { width: 33.333% !important; }
._style_zVjAb { font-family: ff-clan-web-pro, "Helvetica Neue", Helvetica, sans-serif !important; font-weight: 500 !important; font-size: 10px !important; line-height: 16px !important; color: rgb(192, 192, 192) !important; }
._style_2HGMjk { font-family: ff-clan-web-pro, "Helvetica Neue", Helvetica, sans-serif !important; font-weight: 500 !important; font-size: 10px !important; line-height: 16px !important; color: rgb(255, 255, 255) !important; }
._style_2HGMjk:hover { color: rgb(198, 198, 198) !important; }
._style_2HGMjk:focus { color: rgb(198, 198, 198) !important; }
._style_2MBZ4k { margin-bottom: 0px !important; }]]></style></defs><title xmlns="http://www.w3.org/1999/xhtml">Decorative Illustration</title><desc xmlns="http://www.w3.org/1999/xhtml">Decorative Illustration</desc>
    <defs>
        <pattern id="a___1346475159" data-name="2/3 - black 2" width="5" height="5" patternTransform="translate(8.5 169.7)" patternUnits="userSpaceOnUse" viewBox="0 0 5 5">
            <path fill="none" d="M0 0h5v5H0z"/>
            <path fill="#414141" d="M0 0h2v2H0z"/>
        </pattern>
    </defs>
    <circle cx="856.31" cy="348.16" r="55.61"/>
    <path d="M976.74 374a19.71 19.71 0 0 1-4.9-10.56l-9-66.5a30.61 30.61 0 0 0-25.26-26.08l-162-27.22a151.13 151.13 0 0 1-43.18-14.18L658 191.8a180 180 0 0 0-81.25-19.38h-290.6l-1.36-1.36a6.79 6.79 0 0 0-4.81-2h-5.51a7.65 7.65 0 0 1-5.4-2.24l-.36-.36a5 5 0 0 0-3.55-1.47h-1.94a2.48 2.48 0 0 0-2.48 2.48v6.28a180 180 0 0 0-72.56 25.31l-26.75 16.44a160 160 0 0 1-83.78 23.69h-7.19a15 15 0 0 0-13.69 8.88l-12.29 27.48a72.89 72.89 0 0 1-15 21.78A25.54 25.54 0 0 0 22 315.39V335a32.31 32.31 0 0 0 28 32l106 14h817.5a4.19 4.19 0 0 0 3.24-7z"/>
    <path d="M715.82 239a6.42 6.42 0 0 0-3.38-7.25l-20-10c-17.83-8.94-23.84-12-42-21.2-21.33-10.86-37.5-15.25-66.44-16.55l60 60h65.5a6.43 6.43 0 0 0 6.32-5zM89.55 255.59a6 6 0 0 0-4.26-1.77H54.2l-9.72 21.73a72.86 72.86 0 0 1-5.82 10.54h31.51a21.91 21.91 0 0 0 15.49-6.42l9.72-9.72a6 6 0 0 0 0-8.53zm887.32 118.13a17.37 17.37 0 0 1-2.22-2.72H740l.1-23.06a64 64 0 0 0-128 0L612 371H236v-23.06a64 64 0 0 0-128 0v26.62l48 6.44h818c3.78 0 5.4-4.48 2.87-7.28z" fill="#414141"/>
    <path d="M597.06 360.95H251a5 5 0 0 1 5-5h336a5 5 0 0 1 5 5z" fill="#fff"/>
    <circle cx="676.04" cy="348.16" r="55.61"/>
    <circle cx="676.04" cy="348.16" r="37.5" fill="#fff"/>
    <path d="M694.27 329.93l-13.54 13.54a6.63 6.63 0 0 1 0 9.37l13.54 13.54a25.78 25.78 0 0 0 0-36.45zm-22.91 13.54l-13.54-13.54a25.78 25.78 0 0 0 0 36.46l13.54-13.54a6.63 6.63 0 0 1 0-9.38z" fill="#d6d6d6"/>
    <path d="M534.68 239.79a5 5 0 0 0 2.25-9.46c-23.52-11.81-28.42-14.25-48.64-24.55-26-13.25-44.25-16.5-87.75-16.5H295.79c-29.25 0-55.41 9.75-66 15.5a359.21 359.21 0 0 0-33.75 21c-12.33 8-6.42 14 1.33 14h337.31z" fill="#414141"/>
    <path d="M400.54 189.27c43.5 0 61.75 3.25 87.75 16.5 20.22 10.31 25.12 12.75 48.64 24.55a5 5 0 0 1-2.25 9.46H197.37c-7.75 0-13.67-6-1.33-14a359.21 359.21 0 0 1 33.75-21c10.59-5.75 36.75-15.5 66-15.5h104.75m0-5H295.79c-30.57 0-57.37 10.12-68.39 16.11a361.48 361.48 0 0 0-34.18 21.26c-9.32 6.08-10 11.69-8.91 15.34 1.4 4.75 6.53 7.81 13.07 7.81h337.3a10 10 0 0 0 4.49-18.93l-6.61-3.32c-17.83-9-23.84-12-42-21.22-26.57-13.54-45.08-17-90-17z" fill="#fff"/>
    <path d="M558.19 247.32c-15.35-7.71-36.85-18.54-50.1-25.21a8.24 8.24 0 0 0-11.95 7.37v27.3h59.79a5 5 0 0 0 2.26-9.46z"/>
    <circle cx="172.04" cy="348.16" r="55.61"/>
    <circle cx="172.04" cy="348.16" r="37.5" fill="#fff"/>
    <path d="M172 322.38v19.15a6.63 6.63 0 0 1 6.63 6.63h19.15A25.78 25.78 0 0 0 172 322.38zm-6.59 25.78h-19.15A25.78 25.78 0 0 0 172 373.95v-19.16a6.63 6.63 0 0 1-6.59-6.63z" fill="#d6d6d6"/>
    <path d="M52.26 311.16h23.27a19.24 19.24 0 0 1 19.24 19.24v20.76H71.5a19.24 19.24 0 0 1-19.24-19.24v-20.76z" fill="url(#a___1346475159)"/>
    <path d="M801.19 299.2l-61.27-10.29a2 2 0 0 0-1.59 3.39l23.16 19.95a22.73 22.73 0 0 0 14.84 5.51h39.77a4.89 4.89 0 0 0 3.36-8.45l-2.31-2.18a30.64 30.64 0 0 0-15.96-7.93z" fill="#fff"/>
    <path d="M945.38 355.55l-10-10a13.56 13.56 0 0 0-9.59-4h-85.93a13.55 13.55 0 0 0-9.58 4l-10 10a3.34 3.34 0 0 0 2.36 5.7H943a3.34 3.34 0 0 0 2.38-5.7z" fill="#414141"/>
    <rect x="863.95" y="349.76" width="48.92" height="17.4" rx="2.65" ry="2.65" fill="#d6d6d6"/>
    <path d="M817.68 341.62h-38.73a4.61 4.61 0 0 0-3.25 7.89s8.64 11.74 19.14 11.74h4.57c5.53 0 10.83-3.74 14.74-7.65l6-6a3.5 3.5 0 0 0-2.47-5.98z" fill="#414141"/>
    <circle cx="889.42" cy="279.98" r="5.22" fill="#fff"/>
    <path d="M949.38 291.89a2.5 2.5 0 0 0-2.34-1.63H818.79a2.5 2.5 0 0 0-1.63 4.4l35.24 30.2a2.5 2.5 0 0 0 1.63.6h57.77a2.5 2.5 0 0 0 1.63-.6l35.24-30.2a2.5 2.5 0 0 0 .71-2.77zm-61 3.37V300h-57.24l-5.59-4.79h62.87zm2 13.59h34l-5.61 4.8h-28.4v-4.8zm-2 4.8H847l-5.61-4.8h47v4.8zm2-6.8V302h41.94l-5.61 4.8h-36.29zm-2 0h-49.3l-5.61-4.8h54.94v4.8zm-39.06 8.8h39.06v4.8H855zm61.52 4.8h-20.42v-4.8h26.06zM934.69 300h-44.27v-4.79h49.87z" fill="#fff"/>
    <path d="M251 305.95h346a40 40 0 0 1-40 40H291a40 40 0 0 1-40-40z" fill="url(#a___1346475159)"/>
    <path d="M949.58 317.76h16.08l-2.48-18.29a30.62 30.62 0 0 0-14.66 7.67l-2.31 2.18a4.89 4.89 0 0 0 3.37 8.44z" fill="#fff"/>
    <path d="M951.52 353.59c3.91 3.91 9.21 7.65 14.74 7.65h5.29l-2.66-19.61H948a3.5 3.5 0 0 0-2.47 6z" fill="#414141"/>
    <path d="M560.56 184H481a180.59 180.59 0 0 1 17.06 7.47l74.31 37.29a151.85 151.85 0 0 0 43.15 14.06l7.09 1.18H644l-59.58-59.53c-7.06-.33-14.93-.47-23.86-.47z" fill="#fff"/>
</svg>