<?xml version="1.0" encoding="utf-8"?>
<!-- Generator: Adobe Illustrator 16.0.0, SVG Export Plug-In . SVG Version: 6.00 Build 0)  -->
<!DOCTYPE svg PUBLIC "-//W3C//DTD SVG 1.1//EN" "http://www.w3.org/Graphics/SVG/1.1/DTD/svg11.dtd">
<svg version="1.1" id="Layer_1" xmlns="http://www.w3.org/2000/svg" xmlns:xlink="http://www.w3.org/1999/xlink" x="0px" y="0px"
	 width="1000px" height="405px" viewBox="0 0 1000 405" enable-background="new 0 0 1000 405" xml:space="preserve">
<pattern  x="202.5" y="623" width="5" height="5" patternUnits="userSpaceOnUse" id="a___1801521405" viewBox="0 -5 5 5" overflow="visible">
	<g>
		<polygon fill="none" points="0,0 5,0 5,-5 0,-5 		"/>
		<path fill="none" d="M0,0h5v-5H0V0z"/>
		<path d="M0,0h2v-2H0V0z"/>
	</g>
</pattern>
<defs  xmlns="http://www.w3.org/1999/xhtml">
	<style  type="text/css">
		<![CDATA[
.gm-style .gm-style-cc span, .gm-style .gm-style-cc a, .gm-style .gm-style-mtc div { font-size: 10px; }
.gm-style { font-family: Roboto, Arial, sans-serif; font-size: 11px; font-weight: 400; text-decoration: none; }
.gm-style img { max-width: none; }
._style_428QBV { display: inline-block !important; }
._style_428QBV::after { display: table !important; clear: both !important; }
._style_2oaFa9 { float: right !important; }
._style_4qLRK9 { position: absolute !important; top: 17px !important; color: rgb(255, 255, 255) !important; right: 24px !important; }
._style_4qLRK9:hover { color: rgb(198, 198, 198) !important; }
._style_36Mftu { position: relative !important; display: inline-block !important; height: 30px !important; width: 30px !important; font-size: 16px !important; line-height: 24px !important; border: 2px solid rgb(62, 62, 62) !important; border-radius: 50% !important; }
._style_1UhP79 { display: inline-block !important; margin-left: 24px !important; cursor: pointer !important; transform: translateY(13px) !important; color: rgb(13, 105, 108) !important; position: relative !important; }
._style_1UhP79:hover { color: rgb(9, 77, 79) !important; }
._style_1UhP79:focus { color: rgb(9, 77, 79) !important; }
._style_1SUL4j { background-color: rgb(248, 248, 249) !important; border-bottom: 2px solid rgb(241, 241, 241) !important; border-top: 2px solid rgb(241, 241, 241) !important; display: none !important; padding: 8px 20px !important; position: relative !important; }
._style_1aI2j0 { height: 48px !important; }
._style_4oGfO9 { color: rgb(147, 147, 147) !important; left: 20px !important; margin-top: -8px !important; position: absolute !important; top: 50% !important; }
._style_1vg4QW { background-image: url("https://d1a3f4spazzrp4.cloudfront.net/uber-com/1.2.22/d1a3f4spazzrp4.cloudfront.net/images/common/app-icon-rider-c4f46c9bd7.png") !important; background-size: 100% !important; display: inline-block !important; height: 48px !important; margin-left: 24px !important; width: 48px !important; }
._style_326d4w { display: inline-block !important; line-height: 1 !important; margin-left: 8px !important; margin-top: -15px !important; position: absolute !important; top: 50% !important; }
._style_yZn95 { font-size: 14px !important; margin-bottom: 6px !important; text-transform: uppercase !important; font-weight: 500 !important; }
._style_kYMs2 { font-size: 10px !important; font-weight: 400 !important; }
._style_2Jw8il { color: rgb(13, 105, 108) !important; font-size: 14px !important; line-height: 1 !important; margin-top: -7px !important; position: absolute !important; text-transform: uppercase !important; top: 50% !important; right: 24px !important; font-weight: 600 !important; }
._style_4wJp4e { fill: currentcolor !important; }
._style_2gYiok { color: rgb(0, 0, 0) !important; height: 16px !important; vertical-align: middle !important; margin-right: 0px !important; transform: initial !important; fill: currentcolor !important; }
._style_2ei6R2:hover { color: rgb(13, 105, 108) !important; padding-bottom: 0px !important; padding-top: 13px !important; border-bottom: none !important; border-top: 4px solid rgb(13, 105, 108) !important; }
._style_2JjW2G:hover { color: rgb(13, 105, 108) !important; padding-bottom: 0px !important; padding-top: 15px !important; border-bottom: none !important; border-top: 4px solid rgb(13, 105, 108) !important; }
._style_1JuVVZ { background-color: rgb(13, 105, 108) !important; border-color: rgb(13, 105, 108) !important; }
._style_1JuVVZ:hover { background-color: rgb(9, 77, 79) !important; border-color: rgb(9, 77, 79) !important; }
._style_1JuVVZ:focus { background-color: rgb(9, 77, 79) !important; border-color: rgb(9, 77, 79) !important; }
._style_1JuVVZ:active { background-color: rgb(9, 77, 79) !important; border-color: rgb(9, 77, 79) !important; }
._style_1JZ8kY { padding: 52px !important; width: 504px !important; }
._style_3E0d1k { color: rgb(0, 0, 0) !important; font-size: 24px !important; line-height: 32px !important; margin-bottom: 32px !important; }
._style_1oby6h { position: relative !important; margin-bottom: 32px !important; }
._style_1HhTo1 { font-size: 14px !important; margin-bottom: 0px !important; }
._style_1RvW0f { background-color: rgb(13, 105, 108) !important; border-color: rgb(13, 105, 108) !important; }
._style_1RvW0f:hover { background-color: rgb(9, 77, 79) !important; border-color: rgb(9, 77, 79) !important; }
._style_2ChM7P { position: fixed !important; top: 0px !important; bottom: 0px !important; right: 0px !important; left: 0px !important; background-color: rgba(0, 0, 0, 0.498039) !important; padding-top: 12vh !important; z-index: 9999999 !important; }
._style_3jptXC { position: fixed !important; background-color: rgb(255, 255, 255) !important; left: 50% !important; transform: translateX(-50%) !important; }
._style_1Enqv5 { position: absolute !important; top: 0px !important; right: 0px !important; padding: 10px !important; width: 38px !important; height: 38px !important; cursor: pointer !important; text-align: center !important; border: none !important; background-color: rgb(255, 255, 255) !important; }
._style_2HpgLe { visibility: hidden !important; fill: currentcolor !important; }
._style_1Ih8IB:hover { color: rgb(9, 77, 79) !important; text-decoration: underline !important; }
._style_1Ih8IB:focus { color: rgb(9, 77, 79) !important; text-decoration: underline !important; }
._style_3UStPQ:hover { color: rgb(198, 198, 198) !important; }
._style_1sGX8l { margin-left: 20px !important; margin-top: 19px !important; width: 24px !important; height: 24px !important; fill: currentcolor !important; }
._style_xCeYW { padding-top: 24px !important; padding-left: 28px !important; fill: currentcolor !important; box-sizing: content-box !important; transform: initial !important; }
._style_4hHuPu { transform: initial !important; vertical-align: text-bottom !important; fill: currentcolor !important; }
._style_1GcvDT { margin-right: 10px !important; transform: translateY(2px) !important; fill: currentcolor !important; }
._style_2LFHGc { padding-right: 145px !important; padding-left: 145px !important; background-color: rgb(255, 255, 255) !important; }
._style_4tEdrq { padding: 80px 0px !important; }
._style_VxPAE { position: relative !important; }
._style_3zaJwR { font-weight: 400 !important; font-size: 36px !important; letter-spacing: -0.02em !important; line-height: 1.22222 !important; margin-bottom: 24px !important; }
._style_ZJW1y { font-weight: 200 !important; color: rgb(73, 73, 73) !important; font-size: 23px !important; letter-spacing: -0.02em !important; line-height: 1 !important; margin-bottom: 12px !important; }
._style_3418qX { -webkit-font-smoothing: initial !important; background-color: rgb(0, 0, 0) !important; color: rgb(255, 255, 255) !important; padding-top: 52px !important; }
._style_bvXS5 { width: 33.333% !important; }
._style_1YpxGn { border-bottom: 1px solid rgb(40, 39, 39) !important; padding: 32px 0px !important; }
._style_18Xh4k { width: 66.666% !important; }
._style_14S3e1 { padding-top: 16px !important; padding-bottom: 12px !important; border-bottom: 1px solid rgb(40, 39, 39) !important; }
._style_3QfsMI { padding-top: 40px !important; border-bottom: 1px solid rgb(40, 39, 39) !important; padding-bottom: 40px !important; }
._style_gwtgR { width: 33.333% !important; }
._style_24RCuF { display: block !important; font-size: 17px !important; position: relative !important; top: 7px !important; }
._style_2BAGBT { width: 50% !important; }
._style_1gAz3C { width: 66.666% !important; }
._style_26QL5l { color: rgb(255, 255, 255) !important; }
._style_3IiqoB { color: rgb(255, 255, 255) !important; }
._style_3IiqoB:hover { color: rgb(198, 198, 198) !important; }
._style_3IiqoB:focus { color: rgb(198, 198, 198) !important; }
._style_4jsgrJ { color: rgb(0, 0, 0) !important; }
._style_hXjNE { padding-bottom: 12px !important; }
._style_1hnHrL { color: rgb(255, 255, 255) !important; font-weight: 500 !important; }
._style_1hnHrL:hover { color: rgb(198, 198, 198) !important; }
._style_1hnHrL:focus { color: rgb(198, 198, 198) !important; }
._style_3Jeye1 { padding-top: 12px !important; padding-bottom: 12px !important; }
._style_1Nwixv { color: rgb(255, 255, 255) !important; padding: 5px 0px !important; position: absolute !important; }
._style_3ygUST { color: rgb(255, 255, 255) !important; border-color: transparent !important; text-transform: uppercase !important; padding: 8px 0px 8px 30px !important; }
._style_2ptyvC { width: 100% !important; font-weight: 500 !important; }
._style_2ptyvC::after { color: rgb(147, 147, 147) !important; right: 10px !important; }
._style_1BKBec { transform: translateY(2px) !important; fill: currentcolor !important; }
._style_4suyUZ { margin-left: 0px !important; list-style: none !important; }
._style_4vDxhh { width: 50% !important; }
._style_3goTnr { font-size: 24px !important; line-height: 32px !important; margin-bottom: 24px !important; padding-left: 32px !important; padding-right: 32px !important; padding-top: 38px !important; }
._style_3FU8hw { padding-left: 32px !important; padding-right: 32px !important; padding-bottom: 12px !important; max-height: 65vh !important; overflow-y: auto !important; }
._style_wcZit { color: rgb(0, 0, 0) !important; }
._style_wcZit:hover { color: rgb(13, 105, 108) !important; text-decoration: underline !important; }
._style_wcZit:focus { color: rgb(13, 105, 108) !important; text-decoration: underline !important; }
._style_1w4eRP { position: fixed !important; background-color: rgb(255, 255, 255) !important; left: 50% !important; transform: translateX(-50%) !important; }
._style_414tT0 { padding-right: 12px !important; }
._style_3Lugp9 { color: rgb(255, 255, 255) !important; font-size: 14px !important; line-height: 20px !important; }
._style_3Lugp9:hover { color: rgb(198, 198, 198) !important; }
._style_3Lugp9:focus { color: rgb(198, 198, 198) !important; }
._style_3AUhs5 { margin-left: 0px !important; list-style: none !important; margin-right: 0px !important; }
._style_3zoQ0P { margin-bottom: 0px !important; padding-bottom: 12px !important; }
._style_3qJACI { margin-bottom: 0px !important; padding-bottom: 0px !important; }
._style_1KgRnW { margin-bottom: 0px !important; padding-bottom: 0px !important; }
._style_sCsrh { font-size: 12px !important; line-height: 20px !important; white-space: nowrap !important; color: rgb(255, 255, 255) !important; }
._style_sCsrh:hover { color: rgb(198, 198, 198) !important; }
._style_sCsrh:focus { color: rgb(198, 198, 198) !important; }
._style_4hxkaV { display: inline-block !important; padding-left: 16px !important; }
._style_4zgDoB { border-bottom: 1px solid rgb(40, 39, 39) !important; padding: 18px 0px !important; }
._style_4vtRTk { font-size: 12px !important; line-height: 20px !important; white-space: nowrap !important; color: rgb(192, 192, 192) !important; }
._style_1NVEIM { float: left !important; padding-right: 20px !important; }
._style_2Jho6k { max-width: 120px !important; }
._style_2NejXE::after { display: table !important; clear: both !important; }
._style_3TG8AD { width: 33.333% !important; }
._style_zVjAb { font-weight: 500 !important; font-size: 10px !important; line-height: 16px !important; color: rgb(192, 192, 192) !important; }
._style_2HGMjk { font-weight: 500 !important; font-size: 10px !important; line-height: 16px !important; color: rgb(255, 255, 255) !important; }
._style_2HGMjk:hover { color: rgb(198, 198, 198) !important; }
._style_2HGMjk:focus { color: rgb(198, 198, 198) !important; }
._style_2MBZ4k { margin-bottom: 0px !important; }
._style_428QBV { display: inline-block !important; }
._style_428QBV::after { content: "" !important; display: table !important; clear: both !important; }
._style_2oaFa9 { float: right !important; }
._style_4qLRK9 { position: absolute !important; top: 17px !important; color: rgb(255, 255, 255) !important; right: 24px !important; }
._style_4qLRK9:hover { color: rgb(198, 198, 198) !important; }
._style_36Mftu { position: relative !important; display: inline-block !important; height: 30px !important; width: 30px !important; font-size: 16px !important; line-height: 24px !important; border: 2px solid rgb(62, 62, 62) !important; border-radius: 50% !important; }
._style_1UhP79 { display: inline-block !important; margin-left: 24px !important; cursor: pointer !important; transform: translateY(13px) !important; color: rgb(13, 105, 108) !important; position: relative !important; }
._style_1UhP79:hover { color: rgb(9, 77, 79) !important; }
._style_1UhP79:focus { color: rgb(9, 77, 79) !important; }
._style_1SUL4j { background-color: rgb(248, 248, 249) !important; border-bottom: 2px solid rgb(241, 241, 241) !important; border-top: 2px solid rgb(241, 241, 241) !important; display: none !important; padding: 8px 20px !important; position: relative !important; }
._style_1aI2j0 { height: 48px !important; }
._style_4oGfO9 { color: rgb(147, 147, 147) !important; left: 20px !important; margin-top: -8px !important; position: absolute !important; top: 50% !important; }
._style_1vg4QW { background-image: url("https://d1a3f4spazzrp4.cloudfront.net/uber-com/1.2.22/d1a3f4spazzrp4.cloudfront.net/images/common/app-icon-rider-c4f46c9bd7.png") !important; background-size: 100% !important; display: inline-block !important; height: 48px !important; margin-left: 24px !important; width: 48px !important; }
._style_326d4w { display: inline-block !important; line-height: 1 !important; margin-left: 8px !important; margin-top: -15px !important; position: absolute !important; top: 50% !important; }
._style_yZn95 { font-size: 14px !important; margin-bottom: 6px !important; text-transform: uppercase !important; font-family: ff-clan-web-pro, "Helvetica Neue", Helvetica, sans-serif !important; font-weight: 500 !important; }
._style_kYMs2 { font-size: 10px !important; font-family: ff-clan-web-pro, "Helvetica Neue", Helvetica, sans-serif !important; font-weight: 400 !important; }
._style_2Jw8il { color: rgb(13, 105, 108) !important; font-size: 14px !important; line-height: 1 !important; margin-top: -7px !important; position: absolute !important; text-transform: uppercase !important; top: 50% !important; right: 24px !important; font-family: ff-clan-web-pro, "Helvetica Neue", Helvetica, sans-serif !important; font-weight: 600 !important; }
._style_4wJp4e { fill: currentcolor !important; }
._style_2gYiok { color: rgb(0, 0, 0) !important; height: 16px !important; vertical-align: middle !important; margin-right: 0px !important; transform: initial !important; fill: currentcolor !important; }
._style_2ei6R2:hover { color: rgb(13, 105, 108) !important; padding-bottom: 0px !important; padding-top: 13px !important; border-bottom: none !important; border-top: 4px solid rgb(13, 105, 108) !important; }
._style_2JjW2G:hover { color: rgb(13, 105, 108) !important; padding-bottom: 0px !important; padding-top: 15px !important; border-bottom: none !important; border-top: 4px solid rgb(13, 105, 108) !important; }
._style_1JuVVZ { background-color: rgb(13, 105, 108) !important; border-color: rgb(13, 105, 108) !important; }
._style_1JuVVZ:hover { background-color: rgb(9, 77, 79) !important; border-color: rgb(9, 77, 79) !important; }
._style_1JuVVZ:focus { background-color: rgb(9, 77, 79) !important; border-color: rgb(9, 77, 79) !important; }
._style_1JuVVZ:active { background-color: rgb(9, 77, 79) !important; border-color: rgb(9, 77, 79) !important; }
._style_1JZ8kY { padding: 52px !important; width: 504px !important; }
._style_3E0d1k { color: rgb(0, 0, 0) !important; font-size: 24px !important; line-height: 32px !important; margin-bottom: 32px !important; }
._style_1oby6h { position: relative !important; margin-bottom: 32px !important; }
._style_1HhTo1 { font-size: 14px !important; margin-bottom: 0px !important; }
._style_1RvW0f { background-color: rgb(13, 105, 108) !important; border-color: rgb(13, 105, 108) !important; }
._style_1RvW0f:hover { background-color: rgb(9, 77, 79) !important; border-color: rgb(9, 77, 79) !important; }
._style_2ChM7P { position: fixed !important; top: 0px !important; bottom: 0px !important; right: 0px !important; left: 0px !important; background-color: rgba(0, 0, 0, 0.498039) !important; padding-top: 12vh !important; z-index: 9999999 !important; }
._style_3jptXC { position: fixed !important; background-color: rgb(255, 255, 255) !important; left: 50% !important; transform: translateX(-50%) !important; }
._style_1Enqv5 { position: absolute !important; top: 0px !important; right: 0px !important; padding: 10px !important; width: 38px !important; height: 38px !important; cursor: pointer !important; text-align: center !important; border: none !important; background-color: rgb(255, 255, 255) !important; }
._style_2HpgLe { visibility: hidden !important; fill: currentcolor !important; }
._style_1Ih8IB:hover { color: rgb(9, 77, 79) !important; text-decoration: underline !important; }
._style_1Ih8IB:focus { color: rgb(9, 77, 79) !important; text-decoration: underline !important; }
._style_3UStPQ:hover { color: rgb(198, 198, 198) !important; }
._style_1sGX8l { margin-left: 20px !important; margin-top: 19px !important; width: 24px !important; height: 24px !important; fill: currentcolor !important; }
._style_xCeYW { padding-top: 24px !important; padding-left: 28px !important; fill: currentcolor !important; box-sizing: content-box !important; transform: initial !important; }
._style_4hHuPu { transform: initial !important; vertical-align: text-bottom !important; fill: currentcolor !important; }
._style_1GcvDT { margin-right: 10px !important; transform: translateY(2px) !important; fill: currentcolor !important; }
._style_2LFHGc { padding-right: 145px !important; padding-left: 145px !important; background-color: rgb(255, 255, 255) !important; }
._style_4tEdrq { padding: 80px 0px !important; }
._style_VxPAE { position: relative !important; }
._style_3zaJwR { font-family: ff-clan-web-pro, "Helvetica Neue", Helvetica, sans-serif !important; font-weight: 400 !important; font-size: 36px !important; letter-spacing: -0.02em !important; line-height: 1.22222 !important; margin-bottom: 24px !important; }
._style_ZJW1y { font-family: ff-clan-web-pro, "Helvetica Neue", Helvetica, sans-serif !important; font-weight: 200 !important; color: rgb(73, 73, 73) !important; font-size: 23px !important; letter-spacing: -0.02em !important; line-height: 1 !important; margin-bottom: 12px !important; }
._style_3418qX { -webkit-font-smoothing: initial !important; background-color: rgb(0, 0, 0) !important; color: rgb(255, 255, 255) !important; padding-top: 52px !important; }
._style_bvXS5 { width: 33.333% !important; }
._style_1YpxGn { border-bottom: 1px solid rgb(40, 39, 39) !important; padding: 32px 0px !important; }
._style_18Xh4k { width: 66.666% !important; }
._style_14S3e1 { padding-top: 16px !important; padding-bottom: 12px !important; border-bottom: 1px solid rgb(40, 39, 39) !important; }
._style_3QfsMI { padding-top: 40px !important; border-bottom: 1px solid rgb(40, 39, 39) !important; padding-bottom: 40px !important; }
._style_gwtgR { width: 33.333% !important; }
._style_24RCuF { display: block !important; font-size: 17px !important; position: relative !important; top: 7px !important; }
._style_2BAGBT { width: 50% !important; }
._style_1gAz3C { width: 66.666% !important; }
._style_26QL5l { color: rgb(255, 255, 255) !important; }
._style_3IiqoB { color: rgb(255, 255, 255) !important; }
._style_3IiqoB:hover { color: rgb(198, 198, 198) !important; }
._style_3IiqoB:focus { color: rgb(198, 198, 198) !important; }
._style_4jsgrJ { color: rgb(0, 0, 0) !important; }
._style_hXjNE { padding-bottom: 12px !important; }
._style_1hnHrL { color: rgb(255, 255, 255) !important; font-weight: 500 !important; }
._style_1hnHrL:hover { color: rgb(198, 198, 198) !important; }
._style_1hnHrL:focus { color: rgb(198, 198, 198) !important; }
._style_3Jeye1 { padding-top: 12px !important; padding-bottom: 12px !important; }
._style_1Nwixv { color: rgb(255, 255, 255) !important; padding: 5px 0px !important; position: absolute !important; }
._style_3ygUST { color: rgb(255, 255, 255) !important; border-color: transparent !important; text-transform: uppercase !important; padding: 8px 0px 8px 30px !important; }
._style_2ptyvC { width: 100% !important; font-family: ff-clan-web-pro, "Helvetica Neue", Helvetica, sans-serif !important; font-weight: 500 !important; }
._style_2ptyvC::after { color: rgb(147, 147, 147) !important; right: 10px !important; }
._style_1BKBec { transform: translateY(2px) !important; fill: currentcolor !important; }
._style_4suyUZ { margin-left: 0px !important; list-style: none !important; }
._style_4vDxhh { width: 50% !important; }
._style_3goTnr { font-family: ff-clan-web-pro, "Helvetica Neue", Helvetica, sans-serif !important; font-size: 24px !important; line-height: 32px !important; margin-bottom: 24px !important; padding-left: 32px !important; padding-right: 32px !important; padding-top: 38px !important; }
._style_3FU8hw { padding-left: 32px !important; padding-right: 32px !important; padding-bottom: 12px !important; max-height: 65vh !important; overflow-y: auto !important; }
._style_wcZit { color: rgb(0, 0, 0) !important; }
._style_wcZit:hover { color: rgb(13, 105, 108) !important; text-decoration: underline !important; }
._style_wcZit:focus { color: rgb(13, 105, 108) !important; text-decoration: underline !important; }
._style_1w4eRP { position: fixed !important; background-color: rgb(255, 255, 255) !important; left: 50% !important; transform: translateX(-50%) !important; }
._style_414tT0 { padding-right: 12px !important; }
._style_3Lugp9 { color: rgb(255, 255, 255) !important; font-size: 14px !important; line-height: 20px !important; }
._style_3Lugp9:hover { color: rgb(198, 198, 198) !important; }
._style_3Lugp9:focus { color: rgb(198, 198, 198) !important; }
._style_3AUhs5 { margin-left: 0px !important; list-style: none !important; margin-right: 0px !important; }
._style_3zoQ0P { margin-bottom: 0px !important; padding-bottom: 12px !important; }
._style_3qJACI { margin-bottom: 0px !important; padding-bottom: 0px !important; }
._style_1KgRnW { margin-bottom: 0px !important; padding-bottom: 0px !important; }
._style_sCsrh { font-family: ff-clan-web-pro, "Helvetica Neue", Helvetica, sans-serif !important; font-size: 12px !important; line-height: 20px !important; white-space: nowrap !important; color: rgb(255, 255, 255) !important; }
._style_sCsrh:hover { color: rgb(198, 198, 198) !important; }
._style_sCsrh:focus { color: rgb(198, 198, 198) !important; }
._style_4hxkaV { display: inline-block !important; padding-left: 16px !important; }
._style_4zgDoB { border-bottom: 1px solid rgb(40, 39, 39) !important; padding: 18px 0px !important; }
._style_4vtRTk { font-family: ff-clan-web-pro, "Helvetica Neue", Helvetica, sans-serif !important; font-size: 12px !important; line-height: 20px !important; white-space: nowrap !important; color: rgb(192, 192, 192) !important; }
._style_1NVEIM { float: left !important; padding-right: 20px !important; }
._style_2Jho6k { max-width: 120px !important; }
._style_2NejXE::after { content: "" !important; display: table !important; clear: both !important; }
._style_3TG8AD { width: 33.333% !important; }
._style_zVjAb { font-family: ff-clan-web-pro, "Helvetica Neue", Helvetica, sans-serif !important; font-weight: 500 !important; font-size: 10px !important; line-height: 16px !important; color: rgb(192, 192, 192) !important; }
._style_2HGMjk { font-family: ff-clan-web-pro, "Helvetica Neue", Helvetica, sans-serif !important; font-weight: 500 !important; font-size: 10px !important; line-height: 16px !important; color: rgb(255, 255, 255) !important; }
._style_2HGMjk:hover { color: rgb(198, 198, 198) !important; }
._style_2HGMjk:focus { color: rgb(198, 198, 198) !important; }
._style_2MBZ4k { margin-bottom: 0px !important; }
			]]>
	</style>
</defs>
<title  xmlns="http://www.w3.org/1999/xhtml">Decorative Illustration</title>
<desc  xmlns="http://www.w3.org/1999/xhtml">Decorative Illustration</desc>
<circle cx="868.71" cy="347.51" r="55.61"/>
<path fill="#AAAAAA" d="M47.1,374h917.49c0.927-1.906,1.409-4,1.409-6.12v-27c-0.047-26.225-17.256-49.327-42.369-56.88L790,243.67
	c-7.747-2.333-15.37-5.026-22.87-8.08l-47.29-19.22C646.103,186.407,567.262,171,487.67,171h-160
	c-52.643-0.001-105.068,6.737-156,20.05L63.13,219.43c-2.195,0.577-3.728,2.561-3.73,4.83V292c0,1.323-0.525,2.593-1.46,3.53
	L44.33,309.1C37.714,315.697,33.997,324.657,34,334v12.49C33.997,357.166,38.811,367.273,47.1,374z"/>
<path fill="#FFFFFF" d="M487.69,192.17l0.46,0.13c5.727,1.547,11.434,3.177,17.12,4.89l2,0.61c2.18,0.667,4.354,1.333,6.52,2
	l2.24,0.71c2.367,0.76,4.733,1.537,7.101,2.33l1.26,0.42c2.786,0.94,5.566,1.9,8.34,2.881l1.78,0.64
	c2.14,0.767,4.279,1.543,6.42,2.329l2.609,1c1.954,0.734,3.903,1.478,5.851,2.23l2.439,0.94c2.667,1.054,5.357,2.123,8.07,3.21
	l47.29,19.26c7.493,3.053,15.116,5.75,22.87,8.09l1,0.301h99.41c2.761,0.001,5.001-2.236,5.002-4.998
	c0.001-2.033-1.229-3.865-3.112-4.633l-17-6.91c-72.271-29.518-149.603-44.667-227.67-44.6h-39.1
	C461.71,185.626,474.743,188.684,487.69,192.17z"/>
<path d="M732.34,234.5l-17-6.91c-40.967-16.717-83.651-28.867-127.28-36.23l52.771,52.77h89.59c2.761,0.019,5.014-2.206,5.032-4.968
	C735.466,237.118,734.233,235.271,732.34,234.5z"/>
<path fill="#FFFFFF" d="M802.72,291.23h-59.4c-2.496,0.006-4.515,2.035-4.508,4.531c0.003,1.191,0.477,2.334,1.318,3.178
	l10.72,10.721c5.379,5.379,12.674,8.4,20.28,8.4h59.399c2.496-0.008,4.515-2.037,4.508-4.533c-0.003-1.191-0.477-2.333-1.317-3.178
	L823,299.62C817.62,294.244,810.324,291.227,802.72,291.23z"/>
<path d="M570.449,244.13c2.762,0.001,5.001-2.235,5.003-4.997c0.001-2.033-1.229-3.865-3.112-4.633l-17-6.91
	c-115.141-46.898-241.955-57.096-363.11-29.2c-5.44,1.278-8.815,6.725-7.538,12.166c0.43,1.83,1.36,3.504,2.688,4.835L205,233
	c7.126,7.127,16.792,11.13,26.87,11.13H570.449L570.449,244.13z"/>
<path fill="#AAAAAA" d="M579,249.22l-23.65-9.63c-12.8-5.213-25.72-9.97-38.76-14.27c-2.618-0.879-5.453,0.532-6.331,3.15
	c-0.172,0.512-0.259,1.049-0.26,1.59v28.789h67.12c2.762-0.004,4.997-2.246,4.993-5.008C582.109,251.812,580.879,249.986,579,249.22
	z"/>
<path d="M804,374H47c6.339,5.186,14.28,8.012,22.47,8h721.81C796.703,381.996,801.647,378.887,804,374z M88.37,253.32l-29-29v67.92
	l29-29c2.739-2.729,2.748-7.16,0.021-9.9C88.384,253.334,88.377,253.326,88.37,253.32z M781,334.62h-9.5c-2.762,0-5,2.238-5,5v15.87
	c-0.006,8.008,6.481,14.504,14.489,14.51c0.004,0,0.007,0,0.011,0v-29.12h10.739c3.458,0,6.261-2.803,6.261-6.26l0,0H781z"/>
<path fill="#FFFFFF" d="M941.53,318.061h19.78c-2.919-6.854-7.094-13.102-12.31-18.42l-10.711,10.709
	c-1.762,1.77-1.756,4.631,0.013,6.393C939.158,317.596,940.321,318.07,941.53,318.061L941.53,318.061z"/>
<path d="M875.92,310.061H842.1c-0.553-0.004-1.003,0.441-1.006,0.994c-0.002,0.268,0.105,0.526,0.296,0.715l4.83,4.83
	c0.939,0.938,2.213,1.463,3.54,1.461h33.83c0.552,0.002,1.002-0.442,1.006-0.994c0.001-0.27-0.105-0.527-0.296-0.717l-4.83-4.83
	C878.528,310.58,877.25,310.055,875.92,310.061z M898.47,318.061h23.83c1.327,0.002,2.601-0.523,3.54-1.461l4.83-4.83
	c0.392-0.389,0.395-1.021,0.006-1.414c-0.189-0.19-0.447-0.297-0.717-0.295H906.13c-1.327-0.003-2.601,0.522-3.54,1.459l-4.83,4.83
	c-0.393,0.389-0.395,1.022-0.006,1.414C897.943,317.955,898.201,318.062,898.47,318.061z M958.1,374.221l-19.63-19.101
	c-4.743-4.582-11.085-7.136-17.681-7.12h-69.38c-6.595-0.016-12.937,2.538-17.68,7.12l-19.63,19.101H787V382h165
	c3.727,0.02,7.314-1.415,10-4c1.111-1.088,2.03-2.355,2.72-3.75h-6.62V374.221z"/>
<circle fill="#FFFFFF" cx="891.03" cy="308.27" r="5.98"/>
<pattern  id="SVGID_1_" xlink:href="#a___1801521405" patternTransform="matrix(1 0 0 -1 -95.5005 -17193.9102)">
</pattern>
<path fill="url(#SVGID_1_)" d="M297,318.29h240c22.091,0,40,17.909,40,40H257C257,336.199,274.908,318.29,297,318.29z"/>
<path d="M242,382v-34.62c0-35-28.65-63.38-64-63.38c-35.351,0-64,28.38-64,63.38V382"/>
<circle cx="177.5" cy="347.5" r="55.5"/>
<circle fill="#FFFFFF" cx="177.97" cy="347.51" r="37.5"/>
<path fill="#D6D6D6" d="M178,321.73v19.149c3.661,0,6.63,2.968,6.63,6.63l0,0h19.16c0-14.238-11.542-25.779-25.78-25.779
	C178.007,321.73,178.003,321.73,178,321.73z M171.35,347.51h-19.16c0,14.238,11.542,25.78,25.78,25.78c0.01,0,0.02,0,0.03,0v-19.149
	c-3.662,0.01-6.64-2.949-6.65-6.61C171.35,347.523,171.35,347.517,171.35,347.51z"/>
<path d="M592,382v-35c0-35.346,28.653-64,64-64c35.346,0,64,28.654,64,64v35"/>
<circle cx="655.5" cy="347.5" r="55.5"/>
<circle fill="#FFFFFF" cx="655.94" cy="347.51" r="37.5"/>
<path fill="#D6D6D6" d="M674.18,329.28l-13.54,13.54c2.585,2.588,2.585,6.781,0,9.369l13.54,13.541
	C684.241,355.663,684.241,339.347,674.18,329.28z M651.26,342.82l-13.54-13.54c-10.068,10.067-10.069,26.39-0.002,36.458
	c0.001,0,0.001,0.001,0.002,0.002l13.54-13.54c-2.591-2.589-2.592-6.786-0.004-9.376C651.257,342.822,651.258,342.821,651.26,342.82
	L651.26,342.82z"/>
<pattern  id="SVGID_2_" xlink:href="#a___1801521405" patternTransform="matrix(1 0 0 -1 -95.5005 -17193.9102)">
</pattern>
<path fill="url(#SVGID_2_)" d="M59,318.29h18.84c11.681-0.005,21.154,9.459,21.16,21.14c0,0.004,0,0.007,0,0.01v18.851H80.13
	C68.457,358.279,59,348.812,59,337.141V318.29z"/>
<path d="M869.22,352.51h43.62c1.463,0,2.649,1.187,2.649,2.65v12.1c0,1.464-1.187,2.65-2.649,2.65h-43.62
	c-1.464,0-2.65-1.187-2.65-2.65v-12.1C866.57,353.696,867.756,352.51,869.22,352.51z"/>
</svg>
