<?xml version="1.0" standalone="no"?><!DOCTYPE svg PUBLIC "-//W3C//DTD SVG 1.1//EN" "http://www.w3.org/Graphics/SVG/1.1/DTD/svg11.dtd"><svg viewBox="0 0 1700 503" height="503" width="1700" version="1.1" xmlns="http://www.w3.org/2000/svg" xmlns:xlink="http://www.w3.org/1999/xlink"><defs xmlns="http://www.w3.org/1999/xhtml"><style type="text/css"><![CDATA[
.gm-style .gm-style-cc span, .gm-style .gm-style-cc a, .gm-style .gm-style-mtc div { font-size: 10px; }
.gm-style { font-family: Roboto, Arial, sans-serif; font-size: 11px; font-weight: 400; text-decoration: none; }
.gm-style img { max-width: none; }
._style_428QBV { display: inline-block !important; }
._style_428QBV::after { display: table !important; clear: both !important; }
._style_2oaFa9 { float: right !important; }
._style_4qLRK9 { position: absolute !important; top: 17px !important; color: rgb(255, 255, 255) !important; right: 24px !important; }
._style_4qLRK9:hover { color: rgb(198, 198, 198) !important; }
._style_36Mftu { position: relative !important; display: inline-block !important; height: 30px !important; width: 30px !important; font-size: 16px !important; line-height: 24px !important; border: 2px solid rgb(62, 62, 62) !important; border-radius: 50% !important; }
._style_1UhP79 { display: inline-block !important; margin-left: 24px !important; cursor: pointer !important; transform: translateY(13px) !important; color: rgb(13, 105, 108) !important; position: relative !important; }
._style_1UhP79:hover { color: rgb(9, 77, 79) !important; }
._style_1UhP79:focus { color: rgb(9, 77, 79) !important; }
._style_1SUL4j { background-color: rgb(248, 248, 249) !important; border-bottom: 2px solid rgb(241, 241, 241) !important; border-top: 2px solid rgb(241, 241, 241) !important; display: none !important; padding: 8px 20px !important; position: relative !important; }
._style_1aI2j0 { height: 48px !important; }
._style_4oGfO9 { color: rgb(147, 147, 147) !important; left: 20px !important; margin-top: -8px !important; position: absolute !important; top: 50% !important; }
._style_1vg4QW { background-image: url("https://d1a3f4spazzrp4.cloudfront.net/uber-com/1.2.22/d1a3f4spazzrp4.cloudfront.net/images/common/app-icon-rider-c4f46c9bd7.png") !important; background-size: 100% !important; display: inline-block !important; height: 48px !important; margin-left: 24px !important; width: 48px !important; }
._style_326d4w { display: inline-block !important; line-height: 1 !important; margin-left: 8px !important; margin-top: -15px !important; position: absolute !important; top: 50% !important; }
._style_yZn95 { font-size: 14px !important; margin-bottom: 6px !important; text-transform: uppercase !important; font-weight: 500 !important; }
._style_kYMs2 { font-size: 10px !important; font-weight: 400 !important; }
._style_2Jw8il { color: rgb(13, 105, 108) !important; font-size: 14px !important; line-height: 1 !important; margin-top: -7px !important; position: absolute !important; text-transform: uppercase !important; top: 50% !important; right: 24px !important; font-weight: 600 !important; }
._style_4wJp4e { fill: currentcolor !important; }
._style_2gYiok { color: rgb(0, 0, 0) !important; height: 16px !important; vertical-align: middle !important; margin-right: 0px !important; transform: initial !important; fill: currentcolor !important; }
._style_2ei6R2:hover { color: rgb(13, 105, 108) !important; padding-bottom: 0px !important; padding-top: 13px !important; border-bottom: none !important; border-top: 4px solid rgb(13, 105, 108) !important; }
._style_2JjW2G:hover { color: rgb(13, 105, 108) !important; padding-bottom: 0px !important; padding-top: 15px !important; border-bottom: none !important; border-top: 4px solid rgb(13, 105, 108) !important; }
._style_1JuVVZ { background-color: rgb(13, 105, 108) !important; border-color: rgb(13, 105, 108) !important; }
._style_1JuVVZ:hover { background-color: rgb(9, 77, 79) !important; border-color: rgb(9, 77, 79) !important; }
._style_1JuVVZ:focus { background-color: rgb(9, 77, 79) !important; border-color: rgb(9, 77, 79) !important; }
._style_1JuVVZ:active { background-color: rgb(9, 77, 79) !important; border-color: rgb(9, 77, 79) !important; }
._style_1JZ8kY { padding: 52px !important; width: 504px !important; }
._style_3E0d1k { color: rgb(0, 0, 0) !important; font-size: 24px !important; line-height: 32px !important; margin-bottom: 32px !important; }
._style_1oby6h { position: relative !important; margin-bottom: 32px !important; }
._style_1HhTo1 { font-size: 14px !important; margin-bottom: 0px !important; }
._style_1RvW0f { background-color: rgb(13, 105, 108) !important; border-color: rgb(13, 105, 108) !important; }
._style_1RvW0f:hover { background-color: rgb(9, 77, 79) !important; border-color: rgb(9, 77, 79) !important; }
._style_2ChM7P { position: fixed !important; top: 0px !important; bottom: 0px !important; right: 0px !important; left: 0px !important; background-color: rgba(0, 0, 0, 0.498039) !important; padding-top: 12vh !important; z-index: 9999999 !important; }
._style_3jptXC { position: fixed !important; background-color: rgb(255, 255, 255) !important; left: 50% !important; transform: translateX(-50%) !important; }
._style_1Enqv5 { position: absolute !important; top: 0px !important; right: 0px !important; padding: 10px !important; width: 38px !important; height: 38px !important; cursor: pointer !important; text-align: center !important; border: none !important; background-color: rgb(255, 255, 255) !important; }
._style_2HpgLe { visibility: hidden !important; fill: currentcolor !important; }
._style_1Ih8IB:hover { color: rgb(9, 77, 79) !important; text-decoration: underline !important; }
._style_1Ih8IB:focus { color: rgb(9, 77, 79) !important; text-decoration: underline !important; }
._style_3UStPQ:hover { color: rgb(198, 198, 198) !important; }
._style_1sGX8l { margin-left: 20px !important; margin-top: 19px !important; width: 24px !important; height: 24px !important; fill: currentcolor !important; }
._style_xCeYW { padding-top: 24px !important; padding-left: 28px !important; fill: currentcolor !important; box-sizing: content-box !important; transform: initial !important; }
._style_4hHuPu { transform: initial !important; vertical-align: text-bottom !important; fill: currentcolor !important; }
._style_1GcvDT { margin-right: 10px !important; transform: translateY(2px) !important; fill: currentcolor !important; }
._style_2LFHGc { padding-right: 145px !important; padding-left: 145px !important; background-color: rgb(255, 255, 255) !important; }
._style_4tEdrq { padding: 80px 0px !important; }
._style_VxPAE { position: relative !important; }
._style_3zaJwR { font-weight: 400 !important; font-size: 36px !important; letter-spacing: -0.02em !important; line-height: 1.22222 !important; margin-bottom: 24px !important; }
._style_ZJW1y { font-weight: 200 !important; color: rgb(73, 73, 73) !important; font-size: 23px !important; letter-spacing: -0.02em !important; line-height: 1 !important; margin-bottom: 12px !important; }
._style_3418qX { -webkit-font-smoothing: initial !important; background-color: rgb(0, 0, 0) !important; color: rgb(255, 255, 255) !important; padding-top: 52px !important; }
._style_bvXS5 { width: 33.333% !important; }
._style_1YpxGn { border-bottom: 1px solid rgb(40, 39, 39) !important; padding: 32px 0px !important; }
._style_18Xh4k { width: 66.666% !important; }
._style_14S3e1 { padding-top: 16px !important; padding-bottom: 12px !important; border-bottom: 1px solid rgb(40, 39, 39) !important; }
._style_3QfsMI { padding-top: 40px !important; border-bottom: 1px solid rgb(40, 39, 39) !important; padding-bottom: 40px !important; }
._style_gwtgR { width: 33.333% !important; }
._style_24RCuF { display: block !important; font-size: 17px !important; position: relative !important; top: 7px !important; }
._style_2BAGBT { width: 50% !important; }
._style_1gAz3C { width: 66.666% !important; }
._style_26QL5l { color: rgb(255, 255, 255) !important; }
._style_3IiqoB { color: rgb(255, 255, 255) !important; }
._style_3IiqoB:hover { color: rgb(198, 198, 198) !important; }
._style_3IiqoB:focus { color: rgb(198, 198, 198) !important; }
._style_4jsgrJ { color: rgb(0, 0, 0) !important; }
._style_hXjNE { padding-bottom: 12px !important; }
._style_1hnHrL { color: rgb(255, 255, 255) !important; font-weight: 500 !important; }
._style_1hnHrL:hover { color: rgb(198, 198, 198) !important; }
._style_1hnHrL:focus { color: rgb(198, 198, 198) !important; }
._style_3Jeye1 { padding-top: 12px !important; padding-bottom: 12px !important; }
._style_1Nwixv { color: rgb(255, 255, 255) !important; padding: 5px 0px !important; position: absolute !important; }
._style_3ygUST { color: rgb(255, 255, 255) !important; border-color: transparent !important; text-transform: uppercase !important; padding: 8px 0px 8px 30px !important; }
._style_2ptyvC { width: 100% !important; font-weight: 500 !important; }
._style_2ptyvC::after { color: rgb(147, 147, 147) !important; right: 10px !important; }
._style_1BKBec { transform: translateY(2px) !important; fill: currentcolor !important; }
._style_4suyUZ { margin-left: 0px !important; list-style: none !important; }
._style_4vDxhh { width: 50% !important; }
._style_3goTnr { font-size: 24px !important; line-height: 32px !important; margin-bottom: 24px !important; padding-left: 32px !important; padding-right: 32px !important; padding-top: 38px !important; }
._style_3FU8hw { padding-left: 32px !important; padding-right: 32px !important; padding-bottom: 12px !important; max-height: 65vh !important; overflow-y: auto !important; }
._style_wcZit { color: rgb(0, 0, 0) !important; }
._style_wcZit:hover { color: rgb(13, 105, 108) !important; text-decoration: underline !important; }
._style_wcZit:focus { color: rgb(13, 105, 108) !important; text-decoration: underline !important; }
._style_1w4eRP { position: fixed !important; background-color: rgb(255, 255, 255) !important; left: 50% !important; transform: translateX(-50%) !important; }
._style_414tT0 { padding-right: 12px !important; }
._style_3Lugp9 { color: rgb(255, 255, 255) !important; font-size: 14px !important; line-height: 20px !important; }
._style_3Lugp9:hover { color: rgb(198, 198, 198) !important; }
._style_3Lugp9:focus { color: rgb(198, 198, 198) !important; }
._style_3AUhs5 { margin-left: 0px !important; list-style: none !important; margin-right: 0px !important; }
._style_3zoQ0P { margin-bottom: 0px !important; padding-bottom: 12px !important; }
._style_3qJACI { margin-bottom: 0px !important; padding-bottom: 0px !important; }
._style_1KgRnW { margin-bottom: 0px !important; padding-bottom: 0px !important; }
._style_sCsrh { font-size: 12px !important; line-height: 20px !important; white-space: nowrap !important; color: rgb(255, 255, 255) !important; }
._style_sCsrh:hover { color: rgb(198, 198, 198) !important; }
._style_sCsrh:focus { color: rgb(198, 198, 198) !important; }
._style_4hxkaV { display: inline-block !important; padding-left: 16px !important; }
._style_4zgDoB { border-bottom: 1px solid rgb(40, 39, 39) !important; padding: 18px 0px !important; }
._style_4vtRTk { font-size: 12px !important; line-height: 20px !important; white-space: nowrap !important; color: rgb(192, 192, 192) !important; }
._style_1NVEIM { float: left !important; padding-right: 20px !important; }
._style_2Jho6k { max-width: 120px !important; }
._style_2NejXE::after { display: table !important; clear: both !important; }
._style_3TG8AD { width: 33.333% !important; }
._style_zVjAb { font-weight: 500 !important; font-size: 10px !important; line-height: 16px !important; color: rgb(192, 192, 192) !important; }
._style_2HGMjk { font-weight: 500 !important; font-size: 10px !important; line-height: 16px !important; color: rgb(255, 255, 255) !important; }
._style_2HGMjk:hover { color: rgb(198, 198, 198) !important; }
._style_2HGMjk:focus { color: rgb(198, 198, 198) !important; }
._style_2MBZ4k { margin-bottom: 0px !important; }
._style_428QBV { display: inline-block !important; }
._style_428QBV::after { content: "" !important; display: table !important; clear: both !important; }
._style_2oaFa9 { float: right !important; }
._style_4qLRK9 { position: absolute !important; top: 17px !important; color: rgb(255, 255, 255) !important; right: 24px !important; }
._style_4qLRK9:hover { color: rgb(198, 198, 198) !important; }
._style_36Mftu { position: relative !important; display: inline-block !important; height: 30px !important; width: 30px !important; font-size: 16px !important; line-height: 24px !important; border: 2px solid rgb(62, 62, 62) !important; border-radius: 50% !important; }
._style_1UhP79 { display: inline-block !important; margin-left: 24px !important; cursor: pointer !important; transform: translateY(13px) !important; color: rgb(13, 105, 108) !important; position: relative !important; }
._style_1UhP79:hover { color: rgb(9, 77, 79) !important; }
._style_1UhP79:focus { color: rgb(9, 77, 79) !important; }
._style_1SUL4j { background-color: rgb(248, 248, 249) !important; border-bottom: 2px solid rgb(241, 241, 241) !important; border-top: 2px solid rgb(241, 241, 241) !important; display: none !important; padding: 8px 20px !important; position: relative !important; }
._style_1aI2j0 { height: 48px !important; }
._style_4oGfO9 { color: rgb(147, 147, 147) !important; left: 20px !important; margin-top: -8px !important; position: absolute !important; top: 50% !important; }
._style_1vg4QW { background-image: url("https://d1a3f4spazzrp4.cloudfront.net/uber-com/1.2.22/d1a3f4spazzrp4.cloudfront.net/images/common/app-icon-rider-c4f46c9bd7.png") !important; background-size: 100% !important; display: inline-block !important; height: 48px !important; margin-left: 24px !important; width: 48px !important; }
._style_326d4w { display: inline-block !important; line-height: 1 !important; margin-left: 8px !important; margin-top: -15px !important; position: absolute !important; top: 50% !important; }
._style_yZn95 { font-size: 14px !important; margin-bottom: 6px !important; text-transform: uppercase !important; font-family: ff-clan-web-pro, "Helvetica Neue", Helvetica, sans-serif !important; font-weight: 500 !important; }
._style_kYMs2 { font-size: 10px !important; font-family: ff-clan-web-pro, "Helvetica Neue", Helvetica, sans-serif !important; font-weight: 400 !important; }
._style_2Jw8il { color: rgb(13, 105, 108) !important; font-size: 14px !important; line-height: 1 !important; margin-top: -7px !important; position: absolute !important; text-transform: uppercase !important; top: 50% !important; right: 24px !important; font-family: ff-clan-web-pro, "Helvetica Neue", Helvetica, sans-serif !important; font-weight: 600 !important; }
._style_4wJp4e { fill: currentcolor !important; }
._style_2gYiok { color: rgb(0, 0, 0) !important; height: 16px !important; vertical-align: middle !important; margin-right: 0px !important; transform: initial !important; fill: currentcolor !important; }
._style_2ei6R2:hover { color: rgb(13, 105, 108) !important; padding-bottom: 0px !important; padding-top: 13px !important; border-bottom: none !important; border-top: 4px solid rgb(13, 105, 108) !important; }
._style_2JjW2G:hover { color: rgb(13, 105, 108) !important; padding-bottom: 0px !important; padding-top: 15px !important; border-bottom: none !important; border-top: 4px solid rgb(13, 105, 108) !important; }
._style_1JuVVZ { background-color: rgb(13, 105, 108) !important; border-color: rgb(13, 105, 108) !important; }
._style_1JuVVZ:hover { background-color: rgb(9, 77, 79) !important; border-color: rgb(9, 77, 79) !important; }
._style_1JuVVZ:focus { background-color: rgb(9, 77, 79) !important; border-color: rgb(9, 77, 79) !important; }
._style_1JuVVZ:active { background-color: rgb(9, 77, 79) !important; border-color: rgb(9, 77, 79) !important; }
._style_1JZ8kY { padding: 52px !important; width: 504px !important; }
._style_3E0d1k { color: rgb(0, 0, 0) !important; font-size: 24px !important; line-height: 32px !important; margin-bottom: 32px !important; }
._style_1oby6h { position: relative !important; margin-bottom: 32px !important; }
._style_1HhTo1 { font-size: 14px !important; margin-bottom: 0px !important; }
._style_1RvW0f { background-color: rgb(13, 105, 108) !important; border-color: rgb(13, 105, 108) !important; }
._style_1RvW0f:hover { background-color: rgb(9, 77, 79) !important; border-color: rgb(9, 77, 79) !important; }
._style_2ChM7P { position: fixed !important; top: 0px !important; bottom: 0px !important; right: 0px !important; left: 0px !important; background-color: rgba(0, 0, 0, 0.498039) !important; padding-top: 12vh !important; z-index: 9999999 !important; }
._style_3jptXC { position: fixed !important; background-color: rgb(255, 255, 255) !important; left: 50% !important; transform: translateX(-50%) !important; }
._style_1Enqv5 { position: absolute !important; top: 0px !important; right: 0px !important; padding: 10px !important; width: 38px !important; height: 38px !important; cursor: pointer !important; text-align: center !important; border: none !important; background-color: rgb(255, 255, 255) !important; }
._style_2HpgLe { visibility: hidden !important; fill: currentcolor !important; }
._style_1Ih8IB:hover { color: rgb(9, 77, 79) !important; text-decoration: underline !important; }
._style_1Ih8IB:focus { color: rgb(9, 77, 79) !important; text-decoration: underline !important; }
._style_3UStPQ:hover { color: rgb(198, 198, 198) !important; }
._style_1sGX8l { margin-left: 20px !important; margin-top: 19px !important; width: 24px !important; height: 24px !important; fill: currentcolor !important; }
._style_xCeYW { padding-top: 24px !important; padding-left: 28px !important; fill: currentcolor !important; box-sizing: content-box !important; transform: initial !important; }
._style_4hHuPu { transform: initial !important; vertical-align: text-bottom !important; fill: currentcolor !important; }
._style_1GcvDT { margin-right: 10px !important; transform: translateY(2px) !important; fill: currentcolor !important; }
._style_2LFHGc { padding-right: 145px !important; padding-left: 145px !important; background-color: rgb(255, 255, 255) !important; }
._style_4tEdrq { padding: 80px 0px !important; }
._style_VxPAE { position: relative !important; }
._style_3zaJwR { font-family: ff-clan-web-pro, "Helvetica Neue", Helvetica, sans-serif !important; font-weight: 400 !important; font-size: 36px !important; letter-spacing: -0.02em !important; line-height: 1.22222 !important; margin-bottom: 24px !important; }
._style_ZJW1y { font-family: ff-clan-web-pro, "Helvetica Neue", Helvetica, sans-serif !important; font-weight: 200 !important; color: rgb(73, 73, 73) !important; font-size: 23px !important; letter-spacing: -0.02em !important; line-height: 1 !important; margin-bottom: 12px !important; }
._style_3418qX { -webkit-font-smoothing: initial !important; background-color: rgb(0, 0, 0) !important; color: rgb(255, 255, 255) !important; padding-top: 52px !important; }
._style_bvXS5 { width: 33.333% !important; }
._style_1YpxGn { border-bottom: 1px solid rgb(40, 39, 39) !important; padding: 32px 0px !important; }
._style_18Xh4k { width: 66.666% !important; }
._style_14S3e1 { padding-top: 16px !important; padding-bottom: 12px !important; border-bottom: 1px solid rgb(40, 39, 39) !important; }
._style_3QfsMI { padding-top: 40px !important; border-bottom: 1px solid rgb(40, 39, 39) !important; padding-bottom: 40px !important; }
._style_gwtgR { width: 33.333% !important; }
._style_24RCuF { display: block !important; font-size: 17px !important; position: relative !important; top: 7px !important; }
._style_2BAGBT { width: 50% !important; }
._style_1gAz3C { width: 66.666% !important; }
._style_26QL5l { color: rgb(255, 255, 255) !important; }
._style_3IiqoB { color: rgb(255, 255, 255) !important; }
._style_3IiqoB:hover { color: rgb(198, 198, 198) !important; }
._style_3IiqoB:focus { color: rgb(198, 198, 198) !important; }
._style_4jsgrJ { color: rgb(0, 0, 0) !important; }
._style_hXjNE { padding-bottom: 12px !important; }
._style_1hnHrL { color: rgb(255, 255, 255) !important; font-weight: 500 !important; }
._style_1hnHrL:hover { color: rgb(198, 198, 198) !important; }
._style_1hnHrL:focus { color: rgb(198, 198, 198) !important; }
._style_3Jeye1 { padding-top: 12px !important; padding-bottom: 12px !important; }
._style_1Nwixv { color: rgb(255, 255, 255) !important; padding: 5px 0px !important; position: absolute !important; }
._style_3ygUST { color: rgb(255, 255, 255) !important; border-color: transparent !important; text-transform: uppercase !important; padding: 8px 0px 8px 30px !important; }
._style_2ptyvC { width: 100% !important; font-family: ff-clan-web-pro, "Helvetica Neue", Helvetica, sans-serif !important; font-weight: 500 !important; }
._style_2ptyvC::after { color: rgb(147, 147, 147) !important; right: 10px !important; }
._style_1BKBec { transform: translateY(2px) !important; fill: currentcolor !important; }
._style_4suyUZ { margin-left: 0px !important; list-style: none !important; }
._style_4vDxhh { width: 50% !important; }
._style_3goTnr { font-family: ff-clan-web-pro, "Helvetica Neue", Helvetica, sans-serif !important; font-size: 24px !important; line-height: 32px !important; margin-bottom: 24px !important; padding-left: 32px !important; padding-right: 32px !important; padding-top: 38px !important; }
._style_3FU8hw { padding-left: 32px !important; padding-right: 32px !important; padding-bottom: 12px !important; max-height: 65vh !important; overflow-y: auto !important; }
._style_wcZit { color: rgb(0, 0, 0) !important; }
._style_wcZit:hover { color: rgb(13, 105, 108) !important; text-decoration: underline !important; }
._style_wcZit:focus { color: rgb(13, 105, 108) !important; text-decoration: underline !important; }
._style_1w4eRP { position: fixed !important; background-color: rgb(255, 255, 255) !important; left: 50% !important; transform: translateX(-50%) !important; }
._style_414tT0 { padding-right: 12px !important; }
._style_3Lugp9 { color: rgb(255, 255, 255) !important; font-size: 14px !important; line-height: 20px !important; }
._style_3Lugp9:hover { color: rgb(198, 198, 198) !important; }
._style_3Lugp9:focus { color: rgb(198, 198, 198) !important; }
._style_3AUhs5 { margin-left: 0px !important; list-style: none !important; margin-right: 0px !important; }
._style_3zoQ0P { margin-bottom: 0px !important; padding-bottom: 12px !important; }
._style_3qJACI { margin-bottom: 0px !important; padding-bottom: 0px !important; }
._style_1KgRnW { margin-bottom: 0px !important; padding-bottom: 0px !important; }
._style_sCsrh { font-family: ff-clan-web-pro, "Helvetica Neue", Helvetica, sans-serif !important; font-size: 12px !important; line-height: 20px !important; white-space: nowrap !important; color: rgb(255, 255, 255) !important; }
._style_sCsrh:hover { color: rgb(198, 198, 198) !important; }
._style_sCsrh:focus { color: rgb(198, 198, 198) !important; }
._style_4hxkaV { display: inline-block !important; padding-left: 16px !important; }
._style_4zgDoB { border-bottom: 1px solid rgb(40, 39, 39) !important; padding: 18px 0px !important; }
._style_4vtRTk { font-family: ff-clan-web-pro, "Helvetica Neue", Helvetica, sans-serif !important; font-size: 12px !important; line-height: 20px !important; white-space: nowrap !important; color: rgb(192, 192, 192) !important; }
._style_1NVEIM { float: left !important; padding-right: 20px !important; }
._style_2Jho6k { max-width: 120px !important; }
._style_2NejXE::after { content: "" !important; display: table !important; clear: both !important; }
._style_3TG8AD { width: 33.333% !important; }
._style_zVjAb { font-family: ff-clan-web-pro, "Helvetica Neue", Helvetica, sans-serif !important; font-weight: 500 !important; font-size: 10px !important; line-height: 16px !important; color: rgb(192, 192, 192) !important; }
._style_2HGMjk { font-family: ff-clan-web-pro, "Helvetica Neue", Helvetica, sans-serif !important; font-weight: 500 !important; font-size: 10px !important; line-height: 16px !important; color: rgb(255, 255, 255) !important; }
._style_2HGMjk:hover { color: rgb(198, 198, 198) !important; }
._style_2HGMjk:focus { color: rgb(198, 198, 198) !important; }
._style_2MBZ4k { margin-bottom: 0px !important; }]]></style></defs><title xmlns="http://www.w3.org/1999/xhtml">Decorative Illustration</title><desc xmlns="http://www.w3.org/1999/xhtml">Decorative Illustration</desc>
    <g fill="none" stroke="#D6D6D6" stroke-width="2" stroke-miterlimit="10">
        <path stroke-linejoin="bevel" d="M150 201l100-100 100 100m0 0l100-100 100 100"/>
        <path d="M550 201l100-100 100 100M250 101h600M150 201v300m-50-25h1050v25m-974-50h975v25H176zm49 0v-74.8c0-13.8 11.2-25 25-25s25 11.2 25 25V451m-125 0V316m26 109c0 14.4-11.6 26-26 26s-26-11.6-26-26v-83c0-14.4 11.6-26 26-26s26 11.6 26 26v83zm-26 2l-26-26m26-24l26-26m174 100V316"/>
        <path d="M376 425c0 14.4-11.6 26-26 26s-26-11.6-26-26v-83c0-14.4 11.6-26 26-26s26 11.6 26 26v83zm-26 2l-26-26m25.9-24l26-26M550 451V316m26 109c0 14.4-11.6 26-26 26s-26-11.6-26-26v-83c0-14.4 11.6-26 26-26s26 11.6 26 26v83zm-26 2l-26-26m26-24l26-26m273 100V316m27 109.2c0 14.3-11.6 25.8-25.8 25.8h-.3c-14.3 0-25.8-11.6-25.8-25.8v-83.3c0-14.3 11.6-25.8 25.8-25.8h.3c14.3 0 25.8 11.6 25.8 25.8v83.3zm-26 1.8l-26-26m25-24l26-26m-625 0v100m175 0v-74.8c0-13.8 11.2-25 25-25s25 11.2 25 25V451m-25-100v100m175 0v-75c0-13.8 11.2-25 25-25s25 11.2 25 25v75m-25-100v100M350 201v300m0-450h26v90h-26zm100.7.2c27.6 27.6 72.3 27.6 99.8 0m-100.7 0c-27.6-27.6-72.3-27.6-99.8 0"/>
        <path d="M351 51h300.2c-27.6-27-72.2-27.6-99.7 0M250 201V1m300 500V1M225 251h50v50h-50zm50 25h-50m25 25v-50m175 0h50v50h-50zm50 25h-50m25 25v-50m175 0h50v50h-50zm50 25h-50m25 25v-50m100-50v75m0-175v375m1-250h399m-399 25h400M150 201h1001m-251 25v-25m-18 25v-25m218 75v-25m-17 25v-25m-266 25v-25m-17 25v-25m51 25H751m0 0h399m-399 50h399m-399 25h73m-73-50h399m-100 0v-25m-150 50v-25m-18 25v-25m218 75v-25m-17 25v-25m-283 25v-25m-49 25h73m52-25h274m-274 25h274m0 125V1M850 101C850 45.8 805.2 1 750 1S650 45.8 650 101m158.6.6c0-32.3-26.2-58.4-58.4-58.4m-.1 116c32.3 0 58.4-26.2 58.4-58.4m241.7 50.4c27.6 27.6 72.3 27.6 99.8 0m-99.8 0c-27.6-27.6-72.3-27.6-99.8 0"/>
        <path d="M1150 151H850.6c27.6 28 72.3 27.6 99.8 0M750 101V1M250 101H100m50 100V0m700 101h599m-628.2 70.3l329.9 329.9M680 30L651 1m170 29l29-29m600 500V176h-200v325m208.8.2l91.2-100 91.2 100"/>
        <path d="M1250 501V51.2l50-50.8 50 50.8V501"/>
        <path d="M1276 201h150v25h-150zm0 50h150v25h-150zm0 50h150v25h-150zm0 50h150v25h-150zm0 50h150v25h-150zm248-175h11v50h-11zm-52 0h11v50h-11zm26 0h11v50h-11zm26-75h11v50h-11zm-52 0h11v50h-11zm26 0h11v50h-11zm52 75h11v50h-11zm25 0h12v50h-12zm-25-75h11v50h-11zm25 0h12v50h-12zm-51-75h11v50h-11zm-52 0h11v50h-11zm26 0h11v50h-11zm52 0h11v50h-11zm25 0h12v50h-12zm-51-75v50h11V1m-63 0v50h11V1m15 0v50h11V1m41 0v50h11V1m14 0v50h12V1m-138 400h151m-76-95h51v95h-51zm26 0v95m-100-225V1m-44-1v101M1394 0v101M1383 0v101M1372 0v101M1361 0v101m56-101v101m11-101v101m11-101v101m-89-50V1m-178 175h28v25h-28zm28 0h28v25h-28zm-28-50h28v25h-28zm28 0h28v25h-28zm-28 100h28v25h-28zm28 0h28v25h-28zm-28 50h28v25h-28zm28 0h28v25h-28zm-28 50h28v25h-28zm28 0h28v25h-28zm-28 50h28v25h-28zm28 0h28v25h-28zM750 276v173m50-48h24m52 0h273M750 201c55.2 0 100-44.8 100-100M0 502h1700M100 1h1500m-449.8 50.2c27.6 27.6 72.3 27.6 99.8 0m-99.8 0c-27.6-27.6-72.3-27.6-99.8 0"/>
        <path d="M1250 51H950.6c27.6 28 72.3 27.6 99.8 0M774 451v-24c0-14.4 11.6-26 26-26"/>
    </g>
</svg>