<?xml version="1.0" standalone="no"?><!DOCTYPE svg PUBLIC "-//W3C//DTD SVG 1.1//EN" "http://www.w3.org/Graphics/SVG/1.1/DTD/svg11.dtd"><svg viewBox="0 0 1700 502" height="502" width="1700" version="1.1" xmlns="http://www.w3.org/2000/svg" xmlns:xlink="http://www.w3.org/1999/xlink"><defs xmlns="http://www.w3.org/1999/xhtml"><style type="text/css"><![CDATA[
.gm-style .gm-style-cc span, .gm-style .gm-style-cc a, .gm-style .gm-style-mtc div { font-size: 10px; }
.gm-style { font-family: Roboto, Arial, sans-serif; font-size: 11px; font-weight: 400; text-decoration: none; }
.gm-style img { max-width: none; }
._style_428QBV { display: inline-block !important; }
._style_428QBV::after { display: table !important; clear: both !important; }
._style_2oaFa9 { float: right !important; }
._style_4qLRK9 { position: absolute !important; top: 17px !important; color: rgb(255, 255, 255) !important; right: 24px !important; }
._style_4qLRK9:hover { color: rgb(198, 198, 198) !important; }
._style_36Mftu { position: relative !important; display: inline-block !important; height: 30px !important; width: 30px !important; font-size: 16px !important; line-height: 24px !important; border: 2px solid rgb(62, 62, 62) !important; border-radius: 50% !important; }
._style_1UhP79 { display: inline-block !important; margin-left: 24px !important; cursor: pointer !important; transform: translateY(13px) !important; color: rgb(13, 105, 108) !important; position: relative !important; }
._style_1UhP79:hover { color: rgb(9, 77, 79) !important; }
._style_1UhP79:focus { color: rgb(9, 77, 79) !important; }
._style_1SUL4j { background-color: rgb(248, 248, 249) !important; border-bottom: 2px solid rgb(241, 241, 241) !important; border-top: 2px solid rgb(241, 241, 241) !important; display: none !important; padding: 8px 20px !important; position: relative !important; }
._style_1aI2j0 { height: 48px !important; }
._style_4oGfO9 { color: rgb(147, 147, 147) !important; left: 20px !important; margin-top: -8px !important; position: absolute !important; top: 50% !important; }
._style_1vg4QW { background-image: url("https://d1a3f4spazzrp4.cloudfront.net/uber-com/1.2.22/d1a3f4spazzrp4.cloudfront.net/images/common/app-icon-rider-c4f46c9bd7.png") !important; background-size: 100% !important; display: inline-block !important; height: 48px !important; margin-left: 24px !important; width: 48px !important; }
._style_326d4w { display: inline-block !important; line-height: 1 !important; margin-left: 8px !important; margin-top: -15px !important; position: absolute !important; top: 50% !important; }
._style_yZn95 { font-size: 14px !important; margin-bottom: 6px !important; text-transform: uppercase !important; font-weight: 500 !important; }
._style_kYMs2 { font-size: 10px !important; font-weight: 400 !important; }
._style_2Jw8il { color: rgb(13, 105, 108) !important; font-size: 14px !important; line-height: 1 !important; margin-top: -7px !important; position: absolute !important; text-transform: uppercase !important; top: 50% !important; right: 24px !important; font-weight: 600 !important; }
._style_4wJp4e { fill: currentcolor !important; }
._style_2gYiok { color: rgb(0, 0, 0) !important; height: 16px !important; vertical-align: middle !important; margin-right: 0px !important; transform: initial !important; fill: currentcolor !important; }
._style_2ei6R2:hover { color: rgb(13, 105, 108) !important; padding-bottom: 0px !important; padding-top: 13px !important; border-bottom: none !important; border-top: 4px solid rgb(13, 105, 108) !important; }
._style_2JjW2G:hover { color: rgb(13, 105, 108) !important; padding-bottom: 0px !important; padding-top: 15px !important; border-bottom: none !important; border-top: 4px solid rgb(13, 105, 108) !important; }
._style_1JuVVZ { background-color: rgb(13, 105, 108) !important; border-color: rgb(13, 105, 108) !important; }
._style_1JuVVZ:hover { background-color: rgb(9, 77, 79) !important; border-color: rgb(9, 77, 79) !important; }
._style_1JuVVZ:focus { background-color: rgb(9, 77, 79) !important; border-color: rgb(9, 77, 79) !important; }
._style_1JuVVZ:active { background-color: rgb(9, 77, 79) !important; border-color: rgb(9, 77, 79) !important; }
._style_1JZ8kY { padding: 52px !important; width: 504px !important; }
._style_3E0d1k { color: rgb(0, 0, 0) !important; font-size: 24px !important; line-height: 32px !important; margin-bottom: 32px !important; }
._style_1oby6h { position: relative !important; margin-bottom: 32px !important; }
._style_1HhTo1 { font-size: 14px !important; margin-bottom: 0px !important; }
._style_1RvW0f { background-color: rgb(13, 105, 108) !important; border-color: rgb(13, 105, 108) !important; }
._style_1RvW0f:hover { background-color: rgb(9, 77, 79) !important; border-color: rgb(9, 77, 79) !important; }
._style_2ChM7P { position: fixed !important; top: 0px !important; bottom: 0px !important; right: 0px !important; left: 0px !important; background-color: rgba(0, 0, 0, 0.498039) !important; padding-top: 12vh !important; z-index: 9999999 !important; }
._style_3jptXC { position: fixed !important; background-color: rgb(255, 255, 255) !important; left: 50% !important; transform: translateX(-50%) !important; }
._style_1Enqv5 { position: absolute !important; top: 0px !important; right: 0px !important; padding: 10px !important; width: 38px !important; height: 38px !important; cursor: pointer !important; text-align: center !important; border: none !important; background-color: rgb(255, 255, 255) !important; }
._style_2HpgLe { visibility: hidden !important; fill: currentcolor !important; }
._style_1Ih8IB:hover { color: rgb(9, 77, 79) !important; text-decoration: underline !important; }
._style_1Ih8IB:focus { color: rgb(9, 77, 79) !important; text-decoration: underline !important; }
._style_3UStPQ:hover { color: rgb(198, 198, 198) !important; }
._style_1sGX8l { margin-left: 20px !important; margin-top: 19px !important; width: 24px !important; height: 24px !important; fill: currentcolor !important; }
._style_xCeYW { padding-top: 24px !important; padding-left: 28px !important; fill: currentcolor !important; box-sizing: content-box !important; transform: initial !important; }
._style_4hHuPu { transform: initial !important; vertical-align: text-bottom !important; fill: currentcolor !important; }
._style_1GcvDT { margin-right: 10px !important; transform: translateY(2px) !important; fill: currentcolor !important; }
._style_2LFHGc { padding-right: 145px !important; padding-left: 145px !important; background-color: rgb(255, 255, 255) !important; }
._style_4tEdrq { padding: 80px 0px !important; }
._style_VxPAE { position: relative !important; }
._style_3zaJwR { font-weight: 400 !important; font-size: 36px !important; letter-spacing: -0.02em !important; line-height: 1.22222 !important; margin-bottom: 24px !important; }
._style_ZJW1y { font-weight: 200 !important; color: rgb(73, 73, 73) !important; font-size: 23px !important; letter-spacing: -0.02em !important; line-height: 1 !important; margin-bottom: 12px !important; }
._style_3418qX { -webkit-font-smoothing: initial !important; background-color: rgb(0, 0, 0) !important; color: rgb(255, 255, 255) !important; padding-top: 52px !important; }
._style_bvXS5 { width: 33.333% !important; }
._style_1YpxGn { border-bottom: 1px solid rgb(40, 39, 39) !important; padding: 32px 0px !important; }
._style_18Xh4k { width: 66.666% !important; }
._style_14S3e1 { padding-top: 16px !important; padding-bottom: 12px !important; border-bottom: 1px solid rgb(40, 39, 39) !important; }
._style_3QfsMI { padding-top: 40px !important; border-bottom: 1px solid rgb(40, 39, 39) !important; padding-bottom: 40px !important; }
._style_gwtgR { width: 33.333% !important; }
._style_24RCuF { display: block !important; font-size: 17px !important; position: relative !important; top: 7px !important; }
._style_2BAGBT { width: 50% !important; }
._style_1gAz3C { width: 66.666% !important; }
._style_26QL5l { color: rgb(255, 255, 255) !important; }
._style_3IiqoB { color: rgb(255, 255, 255) !important; }
._style_3IiqoB:hover { color: rgb(198, 198, 198) !important; }
._style_3IiqoB:focus { color: rgb(198, 198, 198) !important; }
._style_4jsgrJ { color: rgb(0, 0, 0) !important; }
._style_hXjNE { padding-bottom: 12px !important; }
._style_1hnHrL { color: rgb(255, 255, 255) !important; font-weight: 500 !important; }
._style_1hnHrL:hover { color: rgb(198, 198, 198) !important; }
._style_1hnHrL:focus { color: rgb(198, 198, 198) !important; }
._style_3Jeye1 { padding-top: 12px !important; padding-bottom: 12px !important; }
._style_1Nwixv { color: rgb(255, 255, 255) !important; padding: 5px 0px !important; position: absolute !important; }
._style_3ygUST { color: rgb(255, 255, 255) !important; border-color: transparent !important; text-transform: uppercase !important; padding: 8px 0px 8px 30px !important; }
._style_2ptyvC { width: 100% !important; font-weight: 500 !important; }
._style_2ptyvC::after { color: rgb(147, 147, 147) !important; right: 10px !important; }
._style_1BKBec { transform: translateY(2px) !important; fill: currentcolor !important; }
._style_4suyUZ { margin-left: 0px !important; list-style: none !important; }
._style_4vDxhh { width: 50% !important; }
._style_3goTnr { font-size: 24px !important; line-height: 32px !important; margin-bottom: 24px !important; padding-left: 32px !important; padding-right: 32px !important; padding-top: 38px !important; }
._style_3FU8hw { padding-left: 32px !important; padding-right: 32px !important; padding-bottom: 12px !important; max-height: 65vh !important; overflow-y: auto !important; }
._style_wcZit { color: rgb(0, 0, 0) !important; }
._style_wcZit:hover { color: rgb(13, 105, 108) !important; text-decoration: underline !important; }
._style_wcZit:focus { color: rgb(13, 105, 108) !important; text-decoration: underline !important; }
._style_1w4eRP { position: fixed !important; background-color: rgb(255, 255, 255) !important; left: 50% !important; transform: translateX(-50%) !important; }
._style_414tT0 { padding-right: 12px !important; }
._style_3Lugp9 { color: rgb(255, 255, 255) !important; font-size: 14px !important; line-height: 20px !important; }
._style_3Lugp9:hover { color: rgb(198, 198, 198) !important; }
._style_3Lugp9:focus { color: rgb(198, 198, 198) !important; }
._style_3AUhs5 { margin-left: 0px !important; list-style: none !important; margin-right: 0px !important; }
._style_3zoQ0P { margin-bottom: 0px !important; padding-bottom: 12px !important; }
._style_3qJACI { margin-bottom: 0px !important; padding-bottom: 0px !important; }
._style_1KgRnW { margin-bottom: 0px !important; padding-bottom: 0px !important; }
._style_sCsrh { font-size: 12px !important; line-height: 20px !important; white-space: nowrap !important; color: rgb(255, 255, 255) !important; }
._style_sCsrh:hover { color: rgb(198, 198, 198) !important; }
._style_sCsrh:focus { color: rgb(198, 198, 198) !important; }
._style_4hxkaV { display: inline-block !important; padding-left: 16px !important; }
._style_4zgDoB { border-bottom: 1px solid rgb(40, 39, 39) !important; padding: 18px 0px !important; }
._style_4vtRTk { font-size: 12px !important; line-height: 20px !important; white-space: nowrap !important; color: rgb(192, 192, 192) !important; }
._style_1NVEIM { float: left !important; padding-right: 20px !important; }
._style_2Jho6k { max-width: 120px !important; }
._style_2NejXE::after { display: table !important; clear: both !important; }
._style_3TG8AD { width: 33.333% !important; }
._style_zVjAb { font-weight: 500 !important; font-size: 10px !important; line-height: 16px !important; color: rgb(192, 192, 192) !important; }
._style_2HGMjk { font-weight: 500 !important; font-size: 10px !important; line-height: 16px !important; color: rgb(255, 255, 255) !important; }
._style_2HGMjk:hover { color: rgb(198, 198, 198) !important; }
._style_2HGMjk:focus { color: rgb(198, 198, 198) !important; }
._style_2MBZ4k { margin-bottom: 0px !important; }
._style_428QBV { display: inline-block !important; }
._style_428QBV::after { content: "" !important; display: table !important; clear: both !important; }
._style_2oaFa9 { float: right !important; }
._style_4qLRK9 { position: absolute !important; top: 17px !important; color: rgb(255, 255, 255) !important; right: 24px !important; }
._style_4qLRK9:hover { color: rgb(198, 198, 198) !important; }
._style_36Mftu { position: relative !important; display: inline-block !important; height: 30px !important; width: 30px !important; font-size: 16px !important; line-height: 24px !important; border: 2px solid rgb(62, 62, 62) !important; border-radius: 50% !important; }
._style_1UhP79 { display: inline-block !important; margin-left: 24px !important; cursor: pointer !important; transform: translateY(13px) !important; color: rgb(13, 105, 108) !important; position: relative !important; }
._style_1UhP79:hover { color: rgb(9, 77, 79) !important; }
._style_1UhP79:focus { color: rgb(9, 77, 79) !important; }
._style_1SUL4j { background-color: rgb(248, 248, 249) !important; border-bottom: 2px solid rgb(241, 241, 241) !important; border-top: 2px solid rgb(241, 241, 241) !important; display: none !important; padding: 8px 20px !important; position: relative !important; }
._style_1aI2j0 { height: 48px !important; }
._style_4oGfO9 { color: rgb(147, 147, 147) !important; left: 20px !important; margin-top: -8px !important; position: absolute !important; top: 50% !important; }
._style_1vg4QW { background-image: url("https://d1a3f4spazzrp4.cloudfront.net/uber-com/1.2.22/d1a3f4spazzrp4.cloudfront.net/images/common/app-icon-rider-c4f46c9bd7.png") !important; background-size: 100% !important; display: inline-block !important; height: 48px !important; margin-left: 24px !important; width: 48px !important; }
._style_326d4w { display: inline-block !important; line-height: 1 !important; margin-left: 8px !important; margin-top: -15px !important; position: absolute !important; top: 50% !important; }
._style_yZn95 { font-size: 14px !important; margin-bottom: 6px !important; text-transform: uppercase !important; font-family: ff-clan-web-pro, "Helvetica Neue", Helvetica, sans-serif !important; font-weight: 500 !important; }
._style_kYMs2 { font-size: 10px !important; font-family: ff-clan-web-pro, "Helvetica Neue", Helvetica, sans-serif !important; font-weight: 400 !important; }
._style_2Jw8il { color: rgb(13, 105, 108) !important; font-size: 14px !important; line-height: 1 !important; margin-top: -7px !important; position: absolute !important; text-transform: uppercase !important; top: 50% !important; right: 24px !important; font-family: ff-clan-web-pro, "Helvetica Neue", Helvetica, sans-serif !important; font-weight: 600 !important; }
._style_4wJp4e { fill: currentcolor !important; }
._style_2gYiok { color: rgb(0, 0, 0) !important; height: 16px !important; vertical-align: middle !important; margin-right: 0px !important; transform: initial !important; fill: currentcolor !important; }
._style_2ei6R2:hover { color: rgb(13, 105, 108) !important; padding-bottom: 0px !important; padding-top: 13px !important; border-bottom: none !important; border-top: 4px solid rgb(13, 105, 108) !important; }
._style_2JjW2G:hover { color: rgb(13, 105, 108) !important; padding-bottom: 0px !important; padding-top: 15px !important; border-bottom: none !important; border-top: 4px solid rgb(13, 105, 108) !important; }
._style_1JuVVZ { background-color: rgb(13, 105, 108) !important; border-color: rgb(13, 105, 108) !important; }
._style_1JuVVZ:hover { background-color: rgb(9, 77, 79) !important; border-color: rgb(9, 77, 79) !important; }
._style_1JuVVZ:focus { background-color: rgb(9, 77, 79) !important; border-color: rgb(9, 77, 79) !important; }
._style_1JuVVZ:active { background-color: rgb(9, 77, 79) !important; border-color: rgb(9, 77, 79) !important; }
._style_1JZ8kY { padding: 52px !important; width: 504px !important; }
._style_3E0d1k { color: rgb(0, 0, 0) !important; font-size: 24px !important; line-height: 32px !important; margin-bottom: 32px !important; }
._style_1oby6h { position: relative !important; margin-bottom: 32px !important; }
._style_1HhTo1 { font-size: 14px !important; margin-bottom: 0px !important; }
._style_1RvW0f { background-color: rgb(13, 105, 108) !important; border-color: rgb(13, 105, 108) !important; }
._style_1RvW0f:hover { background-color: rgb(9, 77, 79) !important; border-color: rgb(9, 77, 79) !important; }
._style_2ChM7P { position: fixed !important; top: 0px !important; bottom: 0px !important; right: 0px !important; left: 0px !important; background-color: rgba(0, 0, 0, 0.498039) !important; padding-top: 12vh !important; z-index: 9999999 !important; }
._style_3jptXC { position: fixed !important; background-color: rgb(255, 255, 255) !important; left: 50% !important; transform: translateX(-50%) !important; }
._style_1Enqv5 { position: absolute !important; top: 0px !important; right: 0px !important; padding: 10px !important; width: 38px !important; height: 38px !important; cursor: pointer !important; text-align: center !important; border: none !important; background-color: rgb(255, 255, 255) !important; }
._style_2HpgLe { visibility: hidden !important; fill: currentcolor !important; }
._style_1Ih8IB:hover { color: rgb(9, 77, 79) !important; text-decoration: underline !important; }
._style_1Ih8IB:focus { color: rgb(9, 77, 79) !important; text-decoration: underline !important; }
._style_3UStPQ:hover { color: rgb(198, 198, 198) !important; }
._style_1sGX8l { margin-left: 20px !important; margin-top: 19px !important; width: 24px !important; height: 24px !important; fill: currentcolor !important; }
._style_xCeYW { padding-top: 24px !important; padding-left: 28px !important; fill: currentcolor !important; box-sizing: content-box !important; transform: initial !important; }
._style_4hHuPu { transform: initial !important; vertical-align: text-bottom !important; fill: currentcolor !important; }
._style_1GcvDT { margin-right: 10px !important; transform: translateY(2px) !important; fill: currentcolor !important; }
._style_2LFHGc { padding-right: 145px !important; padding-left: 145px !important; background-color: rgb(255, 255, 255) !important; }
._style_4tEdrq { padding: 80px 0px !important; }
._style_VxPAE { position: relative !important; }
._style_3zaJwR { font-family: ff-clan-web-pro, "Helvetica Neue", Helvetica, sans-serif !important; font-weight: 400 !important; font-size: 36px !important; letter-spacing: -0.02em !important; line-height: 1.22222 !important; margin-bottom: 24px !important; }
._style_ZJW1y { font-family: ff-clan-web-pro, "Helvetica Neue", Helvetica, sans-serif !important; font-weight: 200 !important; color: rgb(73, 73, 73) !important; font-size: 23px !important; letter-spacing: -0.02em !important; line-height: 1 !important; margin-bottom: 12px !important; }
._style_3418qX { -webkit-font-smoothing: initial !important; background-color: rgb(0, 0, 0) !important; color: rgb(255, 255, 255) !important; padding-top: 52px !important; }
._style_bvXS5 { width: 33.333% !important; }
._style_1YpxGn { border-bottom: 1px solid rgb(40, 39, 39) !important; padding: 32px 0px !important; }
._style_18Xh4k { width: 66.666% !important; }
._style_14S3e1 { padding-top: 16px !important; padding-bottom: 12px !important; border-bottom: 1px solid rgb(40, 39, 39) !important; }
._style_3QfsMI { padding-top: 40px !important; border-bottom: 1px solid rgb(40, 39, 39) !important; padding-bottom: 40px !important; }
._style_gwtgR { width: 33.333% !important; }
._style_24RCuF { display: block !important; font-size: 17px !important; position: relative !important; top: 7px !important; }
._style_2BAGBT { width: 50% !important; }
._style_1gAz3C { width: 66.666% !important; }
._style_26QL5l { color: rgb(255, 255, 255) !important; }
._style_3IiqoB { color: rgb(255, 255, 255) !important; }
._style_3IiqoB:hover { color: rgb(198, 198, 198) !important; }
._style_3IiqoB:focus { color: rgb(198, 198, 198) !important; }
._style_4jsgrJ { color: rgb(0, 0, 0) !important; }
._style_hXjNE { padding-bottom: 12px !important; }
._style_1hnHrL { color: rgb(255, 255, 255) !important; font-weight: 500 !important; }
._style_1hnHrL:hover { color: rgb(198, 198, 198) !important; }
._style_1hnHrL:focus { color: rgb(198, 198, 198) !important; }
._style_3Jeye1 { padding-top: 12px !important; padding-bottom: 12px !important; }
._style_1Nwixv { color: rgb(255, 255, 255) !important; padding: 5px 0px !important; position: absolute !important; }
._style_3ygUST { color: rgb(255, 255, 255) !important; border-color: transparent !important; text-transform: uppercase !important; padding: 8px 0px 8px 30px !important; }
._style_2ptyvC { width: 100% !important; font-family: ff-clan-web-pro, "Helvetica Neue", Helvetica, sans-serif !important; font-weight: 500 !important; }
._style_2ptyvC::after { color: rgb(147, 147, 147) !important; right: 10px !important; }
._style_1BKBec { transform: translateY(2px) !important; fill: currentcolor !important; }
._style_4suyUZ { margin-left: 0px !important; list-style: none !important; }
._style_4vDxhh { width: 50% !important; }
._style_3goTnr { font-family: ff-clan-web-pro, "Helvetica Neue", Helvetica, sans-serif !important; font-size: 24px !important; line-height: 32px !important; margin-bottom: 24px !important; padding-left: 32px !important; padding-right: 32px !important; padding-top: 38px !important; }
._style_3FU8hw { padding-left: 32px !important; padding-right: 32px !important; padding-bottom: 12px !important; max-height: 65vh !important; overflow-y: auto !important; }
._style_wcZit { color: rgb(0, 0, 0) !important; }
._style_wcZit:hover { color: rgb(13, 105, 108) !important; text-decoration: underline !important; }
._style_wcZit:focus { color: rgb(13, 105, 108) !important; text-decoration: underline !important; }
._style_1w4eRP { position: fixed !important; background-color: rgb(255, 255, 255) !important; left: 50% !important; transform: translateX(-50%) !important; }
._style_414tT0 { padding-right: 12px !important; }
._style_3Lugp9 { color: rgb(255, 255, 255) !important; font-size: 14px !important; line-height: 20px !important; }
._style_3Lugp9:hover { color: rgb(198, 198, 198) !important; }
._style_3Lugp9:focus { color: rgb(198, 198, 198) !important; }
._style_3AUhs5 { margin-left: 0px !important; list-style: none !important; margin-right: 0px !important; }
._style_3zoQ0P { margin-bottom: 0px !important; padding-bottom: 12px !important; }
._style_3qJACI { margin-bottom: 0px !important; padding-bottom: 0px !important; }
._style_1KgRnW { margin-bottom: 0px !important; padding-bottom: 0px !important; }
._style_sCsrh { font-family: ff-clan-web-pro, "Helvetica Neue", Helvetica, sans-serif !important; font-size: 12px !important; line-height: 20px !important; white-space: nowrap !important; color: rgb(255, 255, 255) !important; }
._style_sCsrh:hover { color: rgb(198, 198, 198) !important; }
._style_sCsrh:focus { color: rgb(198, 198, 198) !important; }
._style_4hxkaV { display: inline-block !important; padding-left: 16px !important; }
._style_4zgDoB { border-bottom: 1px solid rgb(40, 39, 39) !important; padding: 18px 0px !important; }
._style_4vtRTk { font-family: ff-clan-web-pro, "Helvetica Neue", Helvetica, sans-serif !important; font-size: 12px !important; line-height: 20px !important; white-space: nowrap !important; color: rgb(192, 192, 192) !important; }
._style_1NVEIM { float: left !important; padding-right: 20px !important; }
._style_2Jho6k { max-width: 120px !important; }
._style_2NejXE::after { content: "" !important; display: table !important; clear: both !important; }
._style_3TG8AD { width: 33.333% !important; }
._style_zVjAb { font-family: ff-clan-web-pro, "Helvetica Neue", Helvetica, sans-serif !important; font-weight: 500 !important; font-size: 10px !important; line-height: 16px !important; color: rgb(192, 192, 192) !important; }
._style_2HGMjk { font-family: ff-clan-web-pro, "Helvetica Neue", Helvetica, sans-serif !important; font-weight: 500 !important; font-size: 10px !important; line-height: 16px !important; color: rgb(255, 255, 255) !important; }
._style_2HGMjk:hover { color: rgb(198, 198, 198) !important; }
._style_2HGMjk:focus { color: rgb(198, 198, 198) !important; }
._style_2MBZ4k { margin-bottom: 0px !important; }]]></style></defs><title xmlns="http://www.w3.org/1999/xhtml">Decorative Illustration</title><desc xmlns="http://www.w3.org/1999/xhtml">Decorative Illustration</desc>
    <path d="M345 21h10m-5-5v10m-230 75h10m-5-5v10m170-5h10m-5-5v10" fill="none" stroke="#D6D6D6" stroke-width="2" stroke-miterlimit="10"/>
    <circle fill="none" stroke="#D6D6D6" stroke-width="2" stroke-miterlimit="10" cx="300" cy="51" r="2.5"/>
    <circle fill="none" stroke="#D6D6D6" stroke-width="2" stroke-miterlimit="10" cx="478" cy="51" r="2.5"/>
    <circle fill="none" stroke="#D6D6D6" stroke-width="2" stroke-miterlimit="10" cx="150" cy="31" r="2.5"/>
    <circle fill="none" stroke="#D6D6D6" stroke-width="2" stroke-miterlimit="10" cx="250" cy="19" r="2.5"/>
    <path fill="none" stroke="#D6D6D6" stroke-width="2" stroke-miterlimit="10" d="M150 51h100v450H150zm0 50h100M150 76h100m-100 50h100m268-75h64m-64-25h64m-64 50h64m-432 75h100m-100 25h100m-100 25h100m-100 25h100m-100 25h100M150 151h-50m80-100V1m41 50V1m29 175h200v325H250z"/>
    <path fill="none" stroke="#D6D6D6" stroke-width="2" stroke-miterlimit="10" d="M350 51h100v450H350z"/>
    <path fill="none" stroke="#D6D6D6" stroke-width="2" stroke-miterlimit="10" d="M275 201h150v25H275zm0 50h150v25H275zm0 50h150v25H275zm0 50h150v25H275zm0 50h150v25H275zm-125.3-50c-27.6 0-50 22.4-50 50h100c0-27.6-22.4-50-50-50zM500 201c-27.6 0-50 22.4-50 50h100c0-27.6-22.4-50-50-50zm100 0c-27.6 0-50 22.4-50 50h100c0-27.6-22.4-50-50-50zm100 0c-27.6 0-50 22.4-50 50h100c0-27.6-22.4-50-50-50zm100 0c-27.6 0-50 22.4-50 50h100c0-27.6-22.4-50-50-50zM200 401v100m-50-150h131m-81 50h81M150 276h100m-100 25h100M850 26h100M850 1h100M850 51h100M850 76h100m-100 25h100m-100 25h100m-100 25h100m-100 25h100m-100 25h100M818 101h12v50h-12zm-48 0h11v50h-11zm24 0h12v50h-12zm24-75h12v50h-12zm-48 0h11v50h-11zm24 0h12v50h-12z"/>
    <path fill="none" stroke="#D6D6D6" stroke-width="2" stroke-miterlimit="10" d="M450 176h400v70M450 118h100v58m50-58h50"/>
    <path fill="none" stroke="#D6D6D6" stroke-width="2" stroke-miterlimit="10" d="M500 1h100v175H500zm350 0h100v250H850zM650 1h100v250H650zm50 175v-39m0-14v-19m-16 72v-39m0-14v-19m-15 72v-39m0-14v-19m47 72v-39m0-14v-19m15 72v-39m0-14v-19m-31 0V85m0-14V52m-16 52V85m0-14V52m-15 52V85m0-14V52m47 52V85m0-14V52m15 52V85m0-14V52m-31 1V34m0-14V1m-16 52V34m0-14V1m-15 52V34m0-14V1m47 52V34m0-14V1m15 52V34m0-14V1m619 100h-300m100 100h200m-400 0v300m200-300v300m150-300v300m-50-300h100v300h-100z"/>
    <path fill="none" stroke="#D6D6D6" stroke-width="2" stroke-linejoin="bevel" stroke-miterlimit="10" d="M950 201.6c13.8 13.8 36.2 13.8 50 0 13.8 13.8 36.2 13.8 50 0 13.8 13.8 36.2 13.8 50 0 13.8 13.8 36.2 13.8 50 0 13.8 13.8 36.2 13.8 50 0 13.8 13.8 36.2 13.8 50 0 13.8 13.8 36.2 13.8 50 0 13.8 13.8 36.2 13.8 50 0"/>
    <path fill="none" stroke="#D6D6D6" stroke-width="2" stroke-miterlimit="10" d="M1050 101c55.2 0 100 44.8 100 100H950c0-55.2 44.8-100 100-100zm49.3 13H1350m0 12h-233.9m12.4 12H1350m-213.4 13H1350m-207.1 13H1350m-203.2 12H1350m0-75h-300m300 87h-200.7M1313 344c0 2.8-2.2 5-5 5h-16c-2.8 0-5-2.2-5-5v-40c0-2.8 2.2-5 5-5h16c2.8 0 5 2.2 5 5v40zm337 57c-41.4 41.4-108.6 41.4-150 0-41.4 41.4-108.6 41.4-150 0m150 0v100M800 401c-41.4 41.4-108.6 41.4-150 0m300 0c-41.4 41.4-108.6 41.4-150 0m0 0v100M650 401v100m0-100c-41.4 41.4-108.6 41.4-150 0m0 0v100"/>
    <path d="M1600 401c-27.6 0-50-22.4-50-50V151c0-27.6 22.4-50 50-50m0 0v400m-150-100c-27.6 0-50-22.4-50-50V151c0-27.6 22.4-50 50-50s50 22.4 50 50v200c0 27.6-22.4 50-50 50zm0-300v400m-100-400h251m-1 249.7l-49.5-49.4m-100.8 49.4l-49.4-49.4m49.4-50.3l50-50m-149.7 0V1m100 0v62h-50V1m150 0v62h-50V1m-100 50h50m50 0h50M450 258c17.9 0 17.9 8 35.7 8 17.9 0 17.9-8 35.7-8 17.9 0 17.9 8 35.7 8 17.9 0 17.9-8 35.7-8 17.9 0 17.9 8 35.7 8 17.9 0 17.9-8 35.7-8 17.9 0 17.9 8 35.7 8 17.9 0 17.9-8 35.7-8 17.9 0 17.9 8 35.7 8 17.9 0 17.9-8 35.7-8 17.9 0 17.9 8 35.7 8 17.9 0 17.9-8 35.7-8 17.9 0 17.9 8 35.7 8 17.9 0 17.9-8 35.7-8M450 270.3c17.9 0 17.9 8 35.7 8 17.9 0 17.9-8 35.7-8 17.9 0 17.9 8 35.7 8 17.9 0 17.9-8 35.7-8 17.9 0 17.9 8 35.7 8 17.9 0 17.9-8 35.7-8 17.9 0 17.9 8 35.7 8 17.9 0 17.9-8 35.7-8 17.9 0 17.9 8 35.7 8 17.9 0 17.9-8 35.7-8 17.9 0 17.9 8 35.7 8 17.9 0 17.9-8 35.7-8 17.9 0 17.9 8 35.7 8 17.9 0 17.9-8 35.7-8M450 282.7c17.9 0 17.9 8 35.7 8 17.9 0 17.9-8 35.7-8 17.9 0 17.9 8 35.7 8 17.9 0 17.9-8 35.7-8 17.9 0 17.9 8 35.7 8 17.9 0 17.9-8 35.7-8 17.9 0 17.9 8 35.7 8 17.9 0 17.9-8 35.7-8 17.9 0 17.9 8 35.7 8 17.9 0 17.9-8 35.7-8 17.9 0 17.9 8 35.7 8 17.9 0 17.9-8 35.7-8 17.9 0 17.9 8 35.7 8 17.9 0 17.9-8 35.7-8M450 295c17.9 0 17.9 8 35.7 8 17.9 0 17.9-8 35.7-8 17.9 0 17.9 8 35.7 8 17.9 0 17.9-8 35.7-8 17.9 0 17.9 8 35.7 8 17.9 0 17.9-8 35.7-8 17.9 0 17.9 8 35.7 8 17.9 0 17.9-8 35.7-8 17.9 0 17.9 8 35.7 8 17.9 0 17.9-8 35.7-8 17.9 0 17.9 8 35.7 8 17.9 0 17.9-8 35.7-8 17.9 0 17.9 8 35.7 8 17.9 0 17.9-8 35.7-8M450 307.3c17.9 0 17.9 8 35.7 8 17.9 0 17.9-8 35.7-8 17.9 0 17.9 8 35.7 8 17.9 0 17.9-8 35.7-8 17.9 0 17.9 8 35.7 8 17.9 0 17.9-8 35.7-8 17.9 0 17.9 8 35.7 8 17.9 0 17.9-8 35.7-8 17.9 0 17.9 8 35.7 8 17.9 0 17.9-8 35.7-8 17.9 0 17.9 8 35.7 8 17.9 0 17.9-8 35.7-8 17.9 0 17.9 8 35.7 8 17.9 0 17.9-8 35.7-8M450 319.7c17.9 0 17.9 8 35.7 8 17.9 0 17.9-8 35.7-8 17.9 0 17.9 8 35.7 8 17.9 0 17.9-8 35.7-8 17.9 0 17.9 8 35.7 8 17.9 0 17.9-8 35.7-8 17.9 0 17.9 8 35.7 8 17.9 0 17.9-8 35.7-8 17.9 0 17.9 8 35.7 8 17.9 0 17.9-8 35.7-8 17.9 0 17.9 8 35.7 8 17.9 0 17.9-8 35.7-8 17.9 0 17.9 8 35.7 8 17.9 0 17.9-8 35.7-8M450 332c17.9 0 17.9 8 35.7 8 17.9 0 17.9-8 35.7-8 17.9 0 17.9 8 35.7 8 17.9 0 17.9-8 35.7-8 17.9 0 17.9 8 35.7 8 17.9 0 17.9-8 35.7-8 17.9 0 17.9 8 35.7 8 17.9 0 17.9-8 35.7-8 17.9 0 17.9 8 35.7 8 17.9 0 17.9-8 35.7-8 17.9 0 17.9 8 35.7 8 17.9 0 17.9-8 35.7-8 17.9 0 17.9 8 35.7 8 17.9 0 17.9-8 35.7-8M100 1h1500M369 51v125m15-125v125m16-125v125m16-125v125m16-125v125M0 501h1700M450 401h50" fill="none" stroke="#D6D6D6" stroke-width="2" stroke-miterlimit="10"/>
</svg>