<?xml version="1.0" standalone="no"?><!DOCTYPE svg PUBLIC "-//W3C//DTD SVG 1.1//EN" "http://www.w3.org/Graphics/SVG/1.1/DTD/svg11.dtd"><svg viewBox="0 0 1000 405" height="405" width="1000" version="1.1" xmlns="http://www.w3.org/2000/svg" xmlns:xlink="http://www.w3.org/1999/xlink"><defs xmlns="http://www.w3.org/1999/xhtml"><style type="text/css"><![CDATA[
.gm-style .gm-style-cc span, .gm-style .gm-style-cc a, .gm-style .gm-style-mtc div { font-size: 10px; }
.gm-style { font-family: Roboto, Arial, sans-serif; font-size: 11px; font-weight: 400; text-decoration: none; }
.gm-style img { max-width: none; }
._style_428QBV { display: inline-block !important; }
._style_428QBV::after { display: table !important; clear: both !important; }
._style_2oaFa9 { float: right !important; }
._style_4qLRK9 { position: absolute !important; top: 17px !important; color: rgb(255, 255, 255) !important; right: 24px !important; }
._style_4qLRK9:hover { color: rgb(198, 198, 198) !important; }
._style_36Mftu { position: relative !important; display: inline-block !important; height: 30px !important; width: 30px !important; font-size: 16px !important; line-height: 24px !important; border: 2px solid rgb(62, 62, 62) !important; border-radius: 50% !important; }
._style_1UhP79 { display: inline-block !important; margin-left: 24px !important; cursor: pointer !important; transform: translateY(13px) !important; color: rgb(13, 105, 108) !important; position: relative !important; }
._style_1UhP79:hover { color: rgb(9, 77, 79) !important; }
._style_1UhP79:focus { color: rgb(9, 77, 79) !important; }
._style_1SUL4j { background-color: rgb(248, 248, 249) !important; border-bottom: 2px solid rgb(241, 241, 241) !important; border-top: 2px solid rgb(241, 241, 241) !important; display: none !important; padding: 8px 20px !important; position: relative !important; }
._style_1aI2j0 { height: 48px !important; }
._style_4oGfO9 { color: rgb(147, 147, 147) !important; left: 20px !important; margin-top: -8px !important; position: absolute !important; top: 50% !important; }
._style_1vg4QW { background-image: url("https://d1a3f4spazzrp4.cloudfront.net/uber-com/1.2.22/d1a3f4spazzrp4.cloudfront.net/images/common/app-icon-rider-c4f46c9bd7.png") !important; background-size: 100% !important; display: inline-block !important; height: 48px !important; margin-left: 24px !important; width: 48px !important; }
._style_326d4w { display: inline-block !important; line-height: 1 !important; margin-left: 8px !important; margin-top: -15px !important; position: absolute !important; top: 50% !important; }
._style_yZn95 { font-size: 14px !important; margin-bottom: 6px !important; text-transform: uppercase !important; font-weight: 500 !important; }
._style_kYMs2 { font-size: 10px !important; font-weight: 400 !important; }
._style_2Jw8il { color: rgb(13, 105, 108) !important; font-size: 14px !important; line-height: 1 !important; margin-top: -7px !important; position: absolute !important; text-transform: uppercase !important; top: 50% !important; right: 24px !important; font-weight: 600 !important; }
._style_4wJp4e { fill: currentcolor !important; }
._style_2gYiok { color: rgb(0, 0, 0) !important; height: 16px !important; vertical-align: middle !important; margin-right: 0px !important; transform: initial !important; fill: currentcolor !important; }
._style_2ei6R2:hover { color: rgb(13, 105, 108) !important; padding-bottom: 0px !important; padding-top: 13px !important; border-bottom: none !important; border-top: 4px solid rgb(13, 105, 108) !important; }
._style_2JjW2G:hover { color: rgb(13, 105, 108) !important; padding-bottom: 0px !important; padding-top: 15px !important; border-bottom: none !important; border-top: 4px solid rgb(13, 105, 108) !important; }
._style_1JuVVZ { background-color: rgb(13, 105, 108) !important; border-color: rgb(13, 105, 108) !important; }
._style_1JuVVZ:hover { background-color: rgb(9, 77, 79) !important; border-color: rgb(9, 77, 79) !important; }
._style_1JuVVZ:focus { background-color: rgb(9, 77, 79) !important; border-color: rgb(9, 77, 79) !important; }
._style_1JuVVZ:active { background-color: rgb(9, 77, 79) !important; border-color: rgb(9, 77, 79) !important; }
._style_1JZ8kY { padding: 52px !important; width: 504px !important; }
._style_3E0d1k { color: rgb(0, 0, 0) !important; font-size: 24px !important; line-height: 32px !important; margin-bottom: 32px !important; }
._style_1oby6h { position: relative !important; margin-bottom: 32px !important; }
._style_1HhTo1 { font-size: 14px !important; margin-bottom: 0px !important; }
._style_1RvW0f { background-color: rgb(13, 105, 108) !important; border-color: rgb(13, 105, 108) !important; }
._style_1RvW0f:hover { background-color: rgb(9, 77, 79) !important; border-color: rgb(9, 77, 79) !important; }
._style_2ChM7P { position: fixed !important; top: 0px !important; bottom: 0px !important; right: 0px !important; left: 0px !important; background-color: rgba(0, 0, 0, 0.498039) !important; padding-top: 12vh !important; z-index: 9999999 !important; }
._style_3jptXC { position: fixed !important; background-color: rgb(255, 255, 255) !important; left: 50% !important; transform: translateX(-50%) !important; }
._style_1Enqv5 { position: absolute !important; top: 0px !important; right: 0px !important; padding: 10px !important; width: 38px !important; height: 38px !important; cursor: pointer !important; text-align: center !important; border: none !important; background-color: rgb(255, 255, 255) !important; }
._style_2HpgLe { visibility: hidden !important; fill: currentcolor !important; }
._style_1Ih8IB:hover { color: rgb(9, 77, 79) !important; text-decoration: underline !important; }
._style_1Ih8IB:focus { color: rgb(9, 77, 79) !important; text-decoration: underline !important; }
._style_3UStPQ:hover { color: rgb(198, 198, 198) !important; }
._style_1sGX8l { margin-left: 20px !important; margin-top: 19px !important; width: 24px !important; height: 24px !important; fill: currentcolor !important; }
._style_xCeYW { padding-top: 24px !important; padding-left: 28px !important; fill: currentcolor !important; box-sizing: content-box !important; transform: initial !important; }
._style_4hHuPu { transform: initial !important; vertical-align: text-bottom !important; fill: currentcolor !important; }
._style_1GcvDT { margin-right: 10px !important; transform: translateY(2px) !important; fill: currentcolor !important; }
._style_2LFHGc { padding-right: 145px !important; padding-left: 145px !important; background-color: rgb(255, 255, 255) !important; }
._style_4tEdrq { padding: 80px 0px !important; }
._style_VxPAE { position: relative !important; }
._style_3zaJwR { font-weight: 400 !important; font-size: 36px !important; letter-spacing: -0.02em !important; line-height: 1.22222 !important; margin-bottom: 24px !important; }
._style_ZJW1y { font-weight: 200 !important; color: rgb(73, 73, 73) !important; font-size: 23px !important; letter-spacing: -0.02em !important; line-height: 1 !important; margin-bottom: 12px !important; }
._style_3418qX { -webkit-font-smoothing: initial !important; background-color: rgb(0, 0, 0) !important; color: rgb(255, 255, 255) !important; padding-top: 52px !important; }
._style_bvXS5 { width: 33.333% !important; }
._style_1YpxGn { border-bottom: 1px solid rgb(40, 39, 39) !important; padding: 32px 0px !important; }
._style_18Xh4k { width: 66.666% !important; }
._style_14S3e1 { padding-top: 16px !important; padding-bottom: 12px !important; border-bottom: 1px solid rgb(40, 39, 39) !important; }
._style_3QfsMI { padding-top: 40px !important; border-bottom: 1px solid rgb(40, 39, 39) !important; padding-bottom: 40px !important; }
._style_gwtgR { width: 33.333% !important; }
._style_24RCuF { display: block !important; font-size: 17px !important; position: relative !important; top: 7px !important; }
._style_2BAGBT { width: 50% !important; }
._style_1gAz3C { width: 66.666% !important; }
._style_26QL5l { color: rgb(255, 255, 255) !important; }
._style_3IiqoB { color: rgb(255, 255, 255) !important; }
._style_3IiqoB:hover { color: rgb(198, 198, 198) !important; }
._style_3IiqoB:focus { color: rgb(198, 198, 198) !important; }
._style_4jsgrJ { color: rgb(0, 0, 0) !important; }
._style_hXjNE { padding-bottom: 12px !important; }
._style_1hnHrL { color: rgb(255, 255, 255) !important; font-weight: 500 !important; }
._style_1hnHrL:hover { color: rgb(198, 198, 198) !important; }
._style_1hnHrL:focus { color: rgb(198, 198, 198) !important; }
._style_3Jeye1 { padding-top: 12px !important; padding-bottom: 12px !important; }
._style_1Nwixv { color: rgb(255, 255, 255) !important; padding: 5px 0px !important; position: absolute !important; }
._style_3ygUST { color: rgb(255, 255, 255) !important; border-color: transparent !important; text-transform: uppercase !important; padding: 8px 0px 8px 30px !important; }
._style_2ptyvC { width: 100% !important; font-weight: 500 !important; }
._style_2ptyvC::after { color: rgb(147, 147, 147) !important; right: 10px !important; }
._style_1BKBec { transform: translateY(2px) !important; fill: currentcolor !important; }
._style_4suyUZ { margin-left: 0px !important; list-style: none !important; }
._style_4vDxhh { width: 50% !important; }
._style_3goTnr { font-size: 24px !important; line-height: 32px !important; margin-bottom: 24px !important; padding-left: 32px !important; padding-right: 32px !important; padding-top: 38px !important; }
._style_3FU8hw { padding-left: 32px !important; padding-right: 32px !important; padding-bottom: 12px !important; max-height: 65vh !important; overflow-y: auto !important; }
._style_wcZit { color: rgb(0, 0, 0) !important; }
._style_wcZit:hover { color: rgb(13, 105, 108) !important; text-decoration: underline !important; }
._style_wcZit:focus { color: rgb(13, 105, 108) !important; text-decoration: underline !important; }
._style_1w4eRP { position: fixed !important; background-color: rgb(255, 255, 255) !important; left: 50% !important; transform: translateX(-50%) !important; }
._style_414tT0 { padding-right: 12px !important; }
._style_3Lugp9 { color: rgb(255, 255, 255) !important; font-size: 14px !important; line-height: 20px !important; }
._style_3Lugp9:hover { color: rgb(198, 198, 198) !important; }
._style_3Lugp9:focus { color: rgb(198, 198, 198) !important; }
._style_3AUhs5 { margin-left: 0px !important; list-style: none !important; margin-right: 0px !important; }
._style_3zoQ0P { margin-bottom: 0px !important; padding-bottom: 12px !important; }
._style_3qJACI { margin-bottom: 0px !important; padding-bottom: 0px !important; }
._style_1KgRnW { margin-bottom: 0px !important; padding-bottom: 0px !important; }
._style_sCsrh { font-size: 12px !important; line-height: 20px !important; white-space: nowrap !important; color: rgb(255, 255, 255) !important; }
._style_sCsrh:hover { color: rgb(198, 198, 198) !important; }
._style_sCsrh:focus { color: rgb(198, 198, 198) !important; }
._style_4hxkaV { display: inline-block !important; padding-left: 16px !important; }
._style_4zgDoB { border-bottom: 1px solid rgb(40, 39, 39) !important; padding: 18px 0px !important; }
._style_4vtRTk { font-size: 12px !important; line-height: 20px !important; white-space: nowrap !important; color: rgb(192, 192, 192) !important; }
._style_1NVEIM { float: left !important; padding-right: 20px !important; }
._style_2Jho6k { max-width: 120px !important; }
._style_2NejXE::after { display: table !important; clear: both !important; }
._style_3TG8AD { width: 33.333% !important; }
._style_zVjAb { font-weight: 500 !important; font-size: 10px !important; line-height: 16px !important; color: rgb(192, 192, 192) !important; }
._style_2HGMjk { font-weight: 500 !important; font-size: 10px !important; line-height: 16px !important; color: rgb(255, 255, 255) !important; }
._style_2HGMjk:hover { color: rgb(198, 198, 198) !important; }
._style_2HGMjk:focus { color: rgb(198, 198, 198) !important; }
._style_2MBZ4k { margin-bottom: 0px !important; }
._style_428QBV { display: inline-block !important; }
._style_428QBV::after { content: "" !important; display: table !important; clear: both !important; }
._style_2oaFa9 { float: right !important; }
._style_4qLRK9 { position: absolute !important; top: 17px !important; color: rgb(255, 255, 255) !important; right: 24px !important; }
._style_4qLRK9:hover { color: rgb(198, 198, 198) !important; }
._style_36Mftu { position: relative !important; display: inline-block !important; height: 30px !important; width: 30px !important; font-size: 16px !important; line-height: 24px !important; border: 2px solid rgb(62, 62, 62) !important; border-radius: 50% !important; }
._style_1UhP79 { display: inline-block !important; margin-left: 24px !important; cursor: pointer !important; transform: translateY(13px) !important; color: rgb(13, 105, 108) !important; position: relative !important; }
._style_1UhP79:hover { color: rgb(9, 77, 79) !important; }
._style_1UhP79:focus { color: rgb(9, 77, 79) !important; }
._style_1SUL4j { background-color: rgb(248, 248, 249) !important; border-bottom: 2px solid rgb(241, 241, 241) !important; border-top: 2px solid rgb(241, 241, 241) !important; display: none !important; padding: 8px 20px !important; position: relative !important; }
._style_1aI2j0 { height: 48px !important; }
._style_4oGfO9 { color: rgb(147, 147, 147) !important; left: 20px !important; margin-top: -8px !important; position: absolute !important; top: 50% !important; }
._style_1vg4QW { background-image: url("https://d1a3f4spazzrp4.cloudfront.net/uber-com/1.2.22/d1a3f4spazzrp4.cloudfront.net/images/common/app-icon-rider-c4f46c9bd7.png") !important; background-size: 100% !important; display: inline-block !important; height: 48px !important; margin-left: 24px !important; width: 48px !important; }
._style_326d4w { display: inline-block !important; line-height: 1 !important; margin-left: 8px !important; margin-top: -15px !important; position: absolute !important; top: 50% !important; }
._style_yZn95 { font-size: 14px !important; margin-bottom: 6px !important; text-transform: uppercase !important; font-family: ff-clan-web-pro, "Helvetica Neue", Helvetica, sans-serif !important; font-weight: 500 !important; }
._style_kYMs2 { font-size: 10px !important; font-family: ff-clan-web-pro, "Helvetica Neue", Helvetica, sans-serif !important; font-weight: 400 !important; }
._style_2Jw8il { color: rgb(13, 105, 108) !important; font-size: 14px !important; line-height: 1 !important; margin-top: -7px !important; position: absolute !important; text-transform: uppercase !important; top: 50% !important; right: 24px !important; font-family: ff-clan-web-pro, "Helvetica Neue", Helvetica, sans-serif !important; font-weight: 600 !important; }
._style_4wJp4e { fill: currentcolor !important; }
._style_2gYiok { color: rgb(0, 0, 0) !important; height: 16px !important; vertical-align: middle !important; margin-right: 0px !important; transform: initial !important; fill: currentcolor !important; }
._style_2ei6R2:hover { color: rgb(13, 105, 108) !important; padding-bottom: 0px !important; padding-top: 13px !important; border-bottom: none !important; border-top: 4px solid rgb(13, 105, 108) !important; }
._style_2JjW2G:hover { color: rgb(13, 105, 108) !important; padding-bottom: 0px !important; padding-top: 15px !important; border-bottom: none !important; border-top: 4px solid rgb(13, 105, 108) !important; }
._style_1JuVVZ { background-color: rgb(13, 105, 108) !important; border-color: rgb(13, 105, 108) !important; }
._style_1JuVVZ:hover { background-color: rgb(9, 77, 79) !important; border-color: rgb(9, 77, 79) !important; }
._style_1JuVVZ:focus { background-color: rgb(9, 77, 79) !important; border-color: rgb(9, 77, 79) !important; }
._style_1JuVVZ:active { background-color: rgb(9, 77, 79) !important; border-color: rgb(9, 77, 79) !important; }
._style_1JZ8kY { padding: 52px !important; width: 504px !important; }
._style_3E0d1k { color: rgb(0, 0, 0) !important; font-size: 24px !important; line-height: 32px !important; margin-bottom: 32px !important; }
._style_1oby6h { position: relative !important; margin-bottom: 32px !important; }
._style_1HhTo1 { font-size: 14px !important; margin-bottom: 0px !important; }
._style_1RvW0f { background-color: rgb(13, 105, 108) !important; border-color: rgb(13, 105, 108) !important; }
._style_1RvW0f:hover { background-color: rgb(9, 77, 79) !important; border-color: rgb(9, 77, 79) !important; }
._style_2ChM7P { position: fixed !important; top: 0px !important; bottom: 0px !important; right: 0px !important; left: 0px !important; background-color: rgba(0, 0, 0, 0.498039) !important; padding-top: 12vh !important; z-index: 9999999 !important; }
._style_3jptXC { position: fixed !important; background-color: rgb(255, 255, 255) !important; left: 50% !important; transform: translateX(-50%) !important; }
._style_1Enqv5 { position: absolute !important; top: 0px !important; right: 0px !important; padding: 10px !important; width: 38px !important; height: 38px !important; cursor: pointer !important; text-align: center !important; border: none !important; background-color: rgb(255, 255, 255) !important; }
._style_2HpgLe { visibility: hidden !important; fill: currentcolor !important; }
._style_1Ih8IB:hover { color: rgb(9, 77, 79) !important; text-decoration: underline !important; }
._style_1Ih8IB:focus { color: rgb(9, 77, 79) !important; text-decoration: underline !important; }
._style_3UStPQ:hover { color: rgb(198, 198, 198) !important; }
._style_1sGX8l { margin-left: 20px !important; margin-top: 19px !important; width: 24px !important; height: 24px !important; fill: currentcolor !important; }
._style_xCeYW { padding-top: 24px !important; padding-left: 28px !important; fill: currentcolor !important; box-sizing: content-box !important; transform: initial !important; }
._style_4hHuPu { transform: initial !important; vertical-align: text-bottom !important; fill: currentcolor !important; }
._style_1GcvDT { margin-right: 10px !important; transform: translateY(2px) !important; fill: currentcolor !important; }
._style_2LFHGc { padding-right: 145px !important; padding-left: 145px !important; background-color: rgb(255, 255, 255) !important; }
._style_4tEdrq { padding: 80px 0px !important; }
._style_VxPAE { position: relative !important; }
._style_3zaJwR { font-family: ff-clan-web-pro, "Helvetica Neue", Helvetica, sans-serif !important; font-weight: 400 !important; font-size: 36px !important; letter-spacing: -0.02em !important; line-height: 1.22222 !important; margin-bottom: 24px !important; }
._style_ZJW1y { font-family: ff-clan-web-pro, "Helvetica Neue", Helvetica, sans-serif !important; font-weight: 200 !important; color: rgb(73, 73, 73) !important; font-size: 23px !important; letter-spacing: -0.02em !important; line-height: 1 !important; margin-bottom: 12px !important; }
._style_3418qX { -webkit-font-smoothing: initial !important; background-color: rgb(0, 0, 0) !important; color: rgb(255, 255, 255) !important; padding-top: 52px !important; }
._style_bvXS5 { width: 33.333% !important; }
._style_1YpxGn { border-bottom: 1px solid rgb(40, 39, 39) !important; padding: 32px 0px !important; }
._style_18Xh4k { width: 66.666% !important; }
._style_14S3e1 { padding-top: 16px !important; padding-bottom: 12px !important; border-bottom: 1px solid rgb(40, 39, 39) !important; }
._style_3QfsMI { padding-top: 40px !important; border-bottom: 1px solid rgb(40, 39, 39) !important; padding-bottom: 40px !important; }
._style_gwtgR { width: 33.333% !important; }
._style_24RCuF { display: block !important; font-size: 17px !important; position: relative !important; top: 7px !important; }
._style_2BAGBT { width: 50% !important; }
._style_1gAz3C { width: 66.666% !important; }
._style_26QL5l { color: rgb(255, 255, 255) !important; }
._style_3IiqoB { color: rgb(255, 255, 255) !important; }
._style_3IiqoB:hover { color: rgb(198, 198, 198) !important; }
._style_3IiqoB:focus { color: rgb(198, 198, 198) !important; }
._style_4jsgrJ { color: rgb(0, 0, 0) !important; }
._style_hXjNE { padding-bottom: 12px !important; }
._style_1hnHrL { color: rgb(255, 255, 255) !important; font-weight: 500 !important; }
._style_1hnHrL:hover { color: rgb(198, 198, 198) !important; }
._style_1hnHrL:focus { color: rgb(198, 198, 198) !important; }
._style_3Jeye1 { padding-top: 12px !important; padding-bottom: 12px !important; }
._style_1Nwixv { color: rgb(255, 255, 255) !important; padding: 5px 0px !important; position: absolute !important; }
._style_3ygUST { color: rgb(255, 255, 255) !important; border-color: transparent !important; text-transform: uppercase !important; padding: 8px 0px 8px 30px !important; }
._style_2ptyvC { width: 100% !important; font-family: ff-clan-web-pro, "Helvetica Neue", Helvetica, sans-serif !important; font-weight: 500 !important; }
._style_2ptyvC::after { color: rgb(147, 147, 147) !important; right: 10px !important; }
._style_1BKBec { transform: translateY(2px) !important; fill: currentcolor !important; }
._style_4suyUZ { margin-left: 0px !important; list-style: none !important; }
._style_4vDxhh { width: 50% !important; }
._style_3goTnr { font-family: ff-clan-web-pro, "Helvetica Neue", Helvetica, sans-serif !important; font-size: 24px !important; line-height: 32px !important; margin-bottom: 24px !important; padding-left: 32px !important; padding-right: 32px !important; padding-top: 38px !important; }
._style_3FU8hw { padding-left: 32px !important; padding-right: 32px !important; padding-bottom: 12px !important; max-height: 65vh !important; overflow-y: auto !important; }
._style_wcZit { color: rgb(0, 0, 0) !important; }
._style_wcZit:hover { color: rgb(13, 105, 108) !important; text-decoration: underline !important; }
._style_wcZit:focus { color: rgb(13, 105, 108) !important; text-decoration: underline !important; }
._style_1w4eRP { position: fixed !important; background-color: rgb(255, 255, 255) !important; left: 50% !important; transform: translateX(-50%) !important; }
._style_414tT0 { padding-right: 12px !important; }
._style_3Lugp9 { color: rgb(255, 255, 255) !important; font-size: 14px !important; line-height: 20px !important; }
._style_3Lugp9:hover { color: rgb(198, 198, 198) !important; }
._style_3Lugp9:focus { color: rgb(198, 198, 198) !important; }
._style_3AUhs5 { margin-left: 0px !important; list-style: none !important; margin-right: 0px !important; }
._style_3zoQ0P { margin-bottom: 0px !important; padding-bottom: 12px !important; }
._style_3qJACI { margin-bottom: 0px !important; padding-bottom: 0px !important; }
._style_1KgRnW { margin-bottom: 0px !important; padding-bottom: 0px !important; }
._style_sCsrh { font-family: ff-clan-web-pro, "Helvetica Neue", Helvetica, sans-serif !important; font-size: 12px !important; line-height: 20px !important; white-space: nowrap !important; color: rgb(255, 255, 255) !important; }
._style_sCsrh:hover { color: rgb(198, 198, 198) !important; }
._style_sCsrh:focus { color: rgb(198, 198, 198) !important; }
._style_4hxkaV { display: inline-block !important; padding-left: 16px !important; }
._style_4zgDoB { border-bottom: 1px solid rgb(40, 39, 39) !important; padding: 18px 0px !important; }
._style_4vtRTk { font-family: ff-clan-web-pro, "Helvetica Neue", Helvetica, sans-serif !important; font-size: 12px !important; line-height: 20px !important; white-space: nowrap !important; color: rgb(192, 192, 192) !important; }
._style_1NVEIM { float: left !important; padding-right: 20px !important; }
._style_2Jho6k { max-width: 120px !important; }
._style_2NejXE::after { content: "" !important; display: table !important; clear: both !important; }
._style_3TG8AD { width: 33.333% !important; }
._style_zVjAb { font-family: ff-clan-web-pro, "Helvetica Neue", Helvetica, sans-serif !important; font-weight: 500 !important; font-size: 10px !important; line-height: 16px !important; color: rgb(192, 192, 192) !important; }
._style_2HGMjk { font-family: ff-clan-web-pro, "Helvetica Neue", Helvetica, sans-serif !important; font-weight: 500 !important; font-size: 10px !important; line-height: 16px !important; color: rgb(255, 255, 255) !important; }
._style_2HGMjk:hover { color: rgb(198, 198, 198) !important; }
._style_2HGMjk:focus { color: rgb(198, 198, 198) !important; }
._style_2MBZ4k { margin-bottom: 0px !important; }]]></style></defs><title xmlns="http://www.w3.org/1999/xhtml">Decorative Illustration</title><desc xmlns="http://www.w3.org/1999/xhtml">Decorative Illustration</desc>
    <defs>
        <pattern id="a___184606869" data-name="2/3 - black" width="5" height="5" patternTransform="translate(-80.7 178.8)" patternUnits="userSpaceOnUse" viewBox="0 0 5 5">
            <path fill="none" d="M0 0h5v5H0z"/>
            <path d="M0 0h2v2H0z"/>
        </pattern>
        <pattern id="b___184606869" data-name="2/3 - black 5" width="5" height="5" patternTransform="translate(-8.5 7)" patternUnits="userSpaceOnUse" viewBox="0 0 5 5">
            <path fill="none" d="M0 0h5v5H0z"/>
            <path d="M0 0h2v2H0z"/>
        </pattern>
    </defs>
    <circle cx="837.15" cy="348.76" r="55.61"/>
    <path d="M930.14 312.59l-9.4-9.4a143.53 143.53 0 0 0-55.42-34.44l-94.38-32-91.87-36.24A394.76 394.76 0 0 0 534.24 173H334.7a394.75 394.75 0 0 0-131.79 22.65l-47.35 16.77a143.9 143.9 0 0 1-48 8.26H72.08a2.6 2.6 0 0 0-1.84 4.44l1.6 1.6a17.12 17.12 0 0 1 5 12.11v24.11a41.45 41.45 0 0 1-12.14 29.31 26.33 26.33 0 0 0-7.7 18.6v27.84A45 45 0 0 0 76.81 376H922.3a62.4 62.4 0 0 0 14.11-10.57 17.74 17.74 0 0 0 5.2-12.54v-12.64a39.13 39.13 0 0 0-11.47-27.66z" class="illustration-secondary-fill"/>
    <path d="M76.3 376a44.77 44.77 0 0 0 25.6 8h789.87a62.37 62.37 0 0 0 30.53-8h-846zm659.82-140.72l-61.2-24.22A380.82 380.82 0 0 0 588.3 188l56.7 57h89.28a5 5 0 0 0 1.84-9.72z"/>
    <path d="M534.46 320.72h-220a40 40 0 0 0-40 40h300a40 40 0 0 0-40-40zm-462.46 0h24.74a20.51 20.51 0 0 1 20.51 20.51v19.49H92.51A20.51 20.51 0 0 1 72 340.21v-19.49z" fill="url(#a___184606869)"/>
    <path d="M80.51 273.1a38.12 38.12 0 0 0 27-11.16l15.71-15.71a4.34 4.34 0 0 0-3.07-7.4h-43.3v24.11a41.43 41.43 0 0 1-1.27 10.17h4.93zM260.3 384v-35a64 64 0 1 0-128 0v35"/>
    <circle cx="195.8" cy="348.5" r="55.5"/>
    <circle cx="196.24" cy="348.76" r="37.5" fill="#fff"/>
    <path d="M196.24 323v19.15a6.63 6.63 0 0 1 6.63 6.63H222A25.78 25.78 0 0 0 196.24 323zm-6.63 25.76h-19.16a25.78 25.78 0 0 0 25.78 25.78v-19.15a6.63 6.63 0 0 1-6.62-6.63z" fill="#d6d6d6"/>
    <path d="M588.3 384v-35a64 64 0 1 1 128 0v35"/>
    <circle cx="652.69" cy="348.76" r="55.61"/>
    <circle cx="652.69" cy="348.76" r="37.5" fill="#fff"/>
    <path d="M670.92 330.53l-13.54 13.54a6.63 6.63 0 0 1 0 9.37L670.92 367a25.78 25.78 0 0 0 0-36.47zM648 344.08l-13.54-13.54a25.78 25.78 0 0 0 0 36.46L648 353.45a6.63 6.63 0 0 1 0-9.37z" fill="#d6d6d6"/>
    <path d="M720 311.76l1.11 1.11a55.22 55.22 0 0 0 39 16.17H804a2.63 2.63 0 0 0 1.86-4.5l-10.87-10.87a21.9 21.9 0 0 0-15.48-6.41h-57.69a2.63 2.63 0 0 0-1.82 4.5z" fill="#fff"/>
    <path d="M573.9 245.39a5 5 0 0 0 1.83-9.65l-61.07-24A381.17 381.17 0 0 0 374.24 185h-39.53a382.8 382.8 0 0 0-127.79 22l-29.42 10.38a12 12 0 0 0-4.48 19.8 28 28 0 0 0 19.82 8.21H573.9zm231.65 67.12l14.12 14.12a23.87 23.87 0 0 0 16.88 7h50.12a23.87 23.87 0 0 0 16.88-7l14.12-14.12a3.08 3.08 0 0 0-2.17-5.25H807.72a3.08 3.08 0 0 0-2.17 5.25z"/>
    <path d="M851.36 317.62l4.7 4.7a14.91 14.91 0 0 0 10.54 4.37 14.91 14.91 0 0 0 10.54-4.37l4.7-4.7a2 2 0 0 0-1.41-3.41h-27.65a2 2 0 0 0-1.42 3.41zM919.25 329H940a39.12 39.12 0 0 0-9.82-16.46l-.32-.32c-.54.44-1.06.92-1.56 1.41l-10.87 10.87a2.64 2.64 0 0 0 1.82 4.5z" fill="#fff"/>
    <path d="M749.51 365.66h186.66l.24-.22a17.74 17.74 0 0 0 5.2-12.54V349h-24.18a14.26 14.26 0 0 0-10.08 4.18 14.27 14.27 0 0 1-10.09 4.18H826a14.26 14.26 0 0 1-10.08-4.18 14.26 14.26 0 0 0-10.14-4.18h-45.62a14.27 14.27 0 0 0-10.08 4.18L746 357.2a5 5 0 0 0 3.51 8.46z"/>
    <rect x="842.3" y="348" width="49" height="17" rx="2.65" ry="2.65" fill="#d6d6d6"/>
    <path d="M563.9 257.39a5 5 0 0 0 1.83-9.65l-53.43-21a5.59 5.59 0 0 0-7.64 5.21v25.48h59.24z" class="illustration-secondary-fill"/>
    <path d="M533.78 185H470.3a396.13 396.13 0 0 1 48.31 15.43l91.81 36 25.44 8.57H645l-55.69-56a385.32 385.32 0 0 0-55.53-4z" fill="#fff"/>
    <path d="M527.49 5H227.76a75.2 75.2 0 0 0-75.28 75c0 41.51 34.52 75 75.94 75h58.06l40 40 40-40h162c41.42 0 75-30.32 75-75 .01-41.51-34.57-75-75.99-75z" fill="#fff" stroke="#d6d6d6" stroke-miterlimit="10" stroke-width="2"/>
    <path d="M460.49 155l-7-49c-1.16-10.83-11.1-19-22-19h-251c-7 0-9.74 6.05-9 13l5 34" fill="none" stroke="#d6d6d6" stroke-miterlimit="10" stroke-width="2"/>
    <path d="M266.49 75v4.83a8.2 8.2 0 0 0 8.17 8.2h.17a12.7 12.7 0 0 1 12.66 12.7v.27h-30V75h9z"/>
    <path d="M215.49 45l-19 19c-4.48 4.48-2.34 12 4 12h203a42.67 42.67 0 0 0 31-13l25-25c4.24-4.24 3-9-3-9h-202a55 55 0 0 0-39 16z" fill="#fff" stroke="#d6d6d6" stroke-miterlimit="10" stroke-width="2"/>
    <path d="M403.49 49h-32c-6.72 0-12 4.28-12 11v16a5.81 5.81 0 0 0 6 6h43c3.47 0 6-3.53 6-7V61c0-6.72-4.28-12-11-12zm-139 0h-31c-6.72 0-12 4.28-12 11v16a5.81 5.81 0 0 0 6 6h43a5.81 5.81 0 0 0 6-6V61.4a12.22 12.22 0 0 0-12-12.4z" fill="#fff" stroke="#d6d6d6" stroke-miterlimit="10" stroke-width="2"/>
    <path d="M280.49 98h-53c-13.56 0-23.85 11.37-21 25l7 30 11 2h80l-4-40c-1.35-10.38-9.49-17-20-17z" class="illustration-secondary-fill"/>
    <path fill="url(#b___184606869)" d="M240.49 154h47l-8-56h-46l7 56z"/>
    <path d="M281.52 45.69a21.59 21.59 0 1 0-40 11.31h-3.07v41h-6l30 30a5.78 5.78 0 0 0 10-4V98h-6V75.93h11a3.92 3.92 0 0 0 4-3.93V46.3c.04-.21.07-.41.07-.61zm2.85 9.24a9.74 9.74 0 0 1-2.85-6.93v8.6h2.15a1 1 0 0 0 .7-1.67z" fill="#d6d6d6"/>
    <path d="M430.49 98h-68c-10.18 0-18.92 8.78-17.61 18.88l6.61 38.12h102l-5-41a17.83 17.83 0 0 0-18-16z" class="illustration-primary-fill"/>
    <path d="M407.49 91h-30v7h37a7 7 0 0 0-7-7zm-29 7a64 64 0 0 1 18 37l2 21h37l-3-21a64 64 0 0 0-18-37h-36z"/>
    <path d="M427.46 55a9.92 9.92 0 0 1-3-7v-2.5c0-12.23-10.62-21.5-23-21.5a20.25 20.25 0 0 0-20 20v54h20l9 9V83h9.28a4.72 4.72 0 0 0 4.72-4.72V60h5v-1a5.78 5.78 0 0 0-2-4z" fill="#aaa"/>
    <circle cx="412.99" cy="114.5" r="1.5" fill="#aaa"/>
    <path d="M392.49 91h-15v7h22a7 7 0 0 0-7-7z"/>
    <path d="M569.49 144l-6-44c-.82-7.7-6.26-13-14-13h-74a14.18 14.18 0 0 0-14 16l8 51" fill="#fff" stroke="#d6d6d6" stroke-miterlimit="10" stroke-width="2"/>
    <path d="M556.49 98h-53a22.16 22.16 0 0 0-22.17 25.08l5.17 30.92h54c19.25 0 41-20 41-20l-4-18c-2-10-10.49-18-21-18z" class="illustration-secondary-fill"/>
    <path d="M494.36 49.22h31.2a12.18 12.18 0 0 1 12.17 12.18v14.21a6.29 6.29 0 0 1-6.29 6.29h-43a6.29 6.29 0 0 1-6.29-6.29V61.4a12.18 12.18 0 0 1 12.18-12.18z" fill="#fff" stroke="#d6d6d6" stroke-miterlimit="10" stroke-width="2"/>
    <path d="M552.49 131h-2a33.1 33.1 0 0 1-33-33h29a5.6 5.6 0 0 1 6 6v27z" class="illustration-primary-fill"/>
    <path d="M545.49 91h-31a7.13 7.13 0 0 0-7 7h45a7.13 7.13 0 0 0-7-7z" class="illustration-secondary-fill"/>
    <path d="M560.46 46v-.5a21.5 21.5 0 0 0-43 0V98c6.55 0 13.37 2.37 18 7l11 11V76h11a4 4 0 0 0 4-4V46h-1zm-25.79 13.98zM561.49 48v9h2c.89 0 1.63-1.37 1-2a10.15 10.15 0 0 1-3-7z" fill="#414141"/>
    <path fill="#fff" d="M533.487 60.004l2 2-2 2.002-2-2z"/>
    <path fill="#fff" stroke="#d6d6d6" stroke-miterlimit="10" stroke-width="2" d="M207.49 87h-11l68 68h11l-68-68zm160 0h-13l68 68h12l-67-68z"/>
    <path d="M410.49 83a11.9 11.9 0 0 1-6.6-2m-5.4-18h26v2h-26zm0 3h26v2h-26zm0 3h26v2h-26zm.39 5h25.6v-2h-25.94a11.86 11.86 0 0 0 .34 2zm1.24 3h24.37v-2h-25.3a12 12 0 0 0 .93 2zm2.47 3h21.56a4.69 4.69 0 0 0 .33-1.72V78h-23.71a12.13 12.13 0 0 0 1.82 2z" class="illustration-secondary-fill"/>
    <path d="M410.49 83h9.28a4.71 4.71 0 0 0 3.85-2h-19.74a11.9 11.9 0 0 0 6.61 2zm-12-26h5v2h-5zm0 3h5v2h-5z" class="illustration-secondary-fill"/>
    <path d="M423.49 24h-21a21 21 0 0 0-21 21v19h3a8 8 0 0 0 8-8v-4a3 3 0 0 1 3-3 3 3 0 0 1 3 3v4h5v-7a6 6 0 0 1 6-6v-4a3 3 0 0 1 3-3h10l2-2c1.48-1.48 3-3.91 3-6a4.15 4.15 0 0 0-4-4z" class="illustration-secondary-fill"/>
    <path d="M278.49 31h-2.67a22.37 22.37 0 0 0-16.33-7c-11.88-.33-21 9.12-21 21v12c0 5.21-2.29 6.34-6 10a19.6 19.6 0 0 0-6 14 16.85 16.85 0 0 0 12 16V76l6-6c1.77-1.77 4-4.5 4-7V51a3 3 0 0 1 6 0v10l5.51-5.75c1.95-1.95 3.51-4.5 3.51-7.25v-5a3.83 3.83 0 0 1 2-3.51V48h22v-7c-.02-5.47-3.51-10-9.02-10zm275-7h-15c-11.83 0-21 10-21 22v15a15 15 0 0 0-15 15v22h5a7.13 7.13 0 0 1 7-7h3V77l7-7a10.5 10.5 0 0 0 3-7V51.11a3.07 3.07 0 0 1 2.41-3.05 3 3 0 0 1 3.59 2.94v9l25-25c4.19-4.24.93-11-5-11z"/>
    <path d="M535.49 48h25v7h2v-9h-25a2 2 0 0 0-2 2z" class="illustration-secondary-fill"/>
    <path fill="#fff" stroke="#d6d6d6" stroke-miterlimit="10" stroke-width="2" d="M555.49 150l-63-62.85-13-.15 66 66"/>
</svg>