<?xml version="1.0" standalone="no"?><!DOCTYPE svg PUBLIC "-//W3C//DTD SVG 1.1//EN" "http://www.w3.org/Graphics/SVG/1.1/DTD/svg11.dtd"><svg data-name="Layer 1" viewBox="0 0 88 88" height="88" width="88" version="1.1" xmlns="http://www.w3.org/2000/svg" xmlns:xlink="http://www.w3.org/1999/xlink" style="display:block;height:120px;list-style-type:none;width:120px;perspective-origin:60px 60px;transform-origin:60px 60px;"><title xmlns="http://www.w3.org/1999/xhtml" style="display:none;height:auto;list-style-type:none;overflow-x:visible;overflow-y:visible;width:auto;perspective-origin:50% 50%;transform-origin:50% 50%;">Decorative Illustration</title><desc xmlns="http://www.w3.org/1999/xhtml" style="height:auto;list-style-type:none;overflow-x:visible;overflow-y:visible;width:auto;perspective-origin:50% 50%;transform-origin:50% 50%;">Decorative Illustration</desc>
    <path d="M0 88h88V0A88 88 0 0 0 0 88z" class="illustration-primary-fill" style="height:auto;list-style-type:none;overflow-x:visible;overflow-y:visible;width:auto;perspective-origin:0px 0px;transform-origin:0px 0px;fill:rgb(207, 216, 244);d:path('M 0 88 h 88 V 0 A 88 88 0 0 0 0 88 Z');"/>
    <path fill="#fff" d="M55 35h21v44H55z" style="height:auto;list-style-type:none;overflow-x:visible;overflow-y:visible;width:auto;perspective-origin:0px 0px;transform-origin:0px 0px;fill:rgb(255, 255, 255);d:path('M 55 35 h 21 v 44 H 55 Z');"/>
    <path class="illustration-secondary-fill" d="M48 27l7 8h21l7.7-8H48z" style="height:auto;list-style-type:none;overflow-x:visible;overflow-y:visible;width:auto;perspective-origin:0px 0px;transform-origin:0px 0px;fill:rgb(84, 56, 200);d:path('M 48 27 l 7 8 h 21 l 7.7 -8 H 48 Z');"/>
    <path d="M79 17H52.5c-2.6 0-4.5 2.5-4.5 5.1V27h36v-4.9a5.31 5.31 0 0 0-5-5.1z" fill="#fff" style="height:auto;list-style-type:none;overflow-x:visible;overflow-y:visible;width:auto;perspective-origin:0px 0px;transform-origin:0px 0px;fill:rgb(255, 255, 255);d:path('M 79 17 H 52.5 c -2.6 0 -4.5 2.5 -4.5 5.1 V 27 h 36 v -4.9 a 5.31 5.31 0 0 0 -5 -5.1 Z');"/>
    <path d="M66 35h10v44H66z" style="height:auto;list-style-type:none;overflow-x:visible;overflow-y:visible;width:auto;perspective-origin:0px 0px;transform-origin:0px 0px;d:path('M 66 35 h 10 v 44 H 66 Z');"/>
    <path d="M72.7 52h-2.5v-4h2.5v4zm0-11h-2.5v3.9h2.5V41zm0 14.1h-2.5V59h2.5v-3.9z" class="illustration-secondary-fill" style="height:auto;list-style-type:none;overflow-x:visible;overflow-y:visible;width:auto;perspective-origin:0px 0px;transform-origin:0px 0px;fill:rgb(84, 56, 200);d:path('M 72.7 52 h -2.5 v -4 h 2.5 v 4 Z m 0 -11 h -2.5 v 3.9 h 2.5 V 41 Z m 0 14.1 h -2.5 V 59 h 2.5 v -3.9 Z');"/>
    <path d="M84 27H66v8h10l8-8z" style="height:auto;list-style-type:none;overflow-x:visible;overflow-y:visible;width:auto;perspective-origin:0px 0px;transform-origin:0px 0px;d:path('M 84 27 H 66 v 8 h 10 l 8 -8 Z');"/>
    <path d="M79 17H66v10h18v-4.9a5.31 5.31 0 0 0-5-5.1zM61.7 52h-2.5v-4h2.5v4zm0-11h-2.5v3.9h2.5V41zm0 14.1h-2.5V59h2.5v-3.9z" class="illustration-secondary-fill" style="height:auto;list-style-type:none;overflow-x:visible;overflow-y:visible;width:auto;perspective-origin:0px 0px;transform-origin:0px 0px;fill:rgb(84, 56, 200);d:path('M 79 17 H 66 v 10 h 18 v -4.9 a 5.31 5.31 0 0 0 -5 -5.1 Z M 61.7 52 h -2.5 v -4 h 2.5 v 4 Z m 0 -11 h -2.5 v 3.9 h 2.5 V 41 Z m 0 14.1 h -2.5 V 59 h 2.5 v -3.9 Z');"/>
    <path d="M88 88V65H66a16.31 16.31 0 0 1-11.7-4.6L27.9 21.5a10.3 10.3 0 0 0-8.5-4.5H8l24.4 71H88z" fill="#a5a5a5" style="height:auto;list-style-type:none;overflow-x:visible;overflow-y:visible;width:auto;perspective-origin:0px 0px;transform-origin:0px 0px;fill:rgb(165, 165, 165);d:path('M 88 88 V 65 H 66 a 16.31 16.31 0 0 1 -11.7 -4.6 L 27.9 21.5 a 10.3 10.3 0 0 0 -8.5 -4.5 H 8 l 24.4 71 H 88 Z');"/>
    <path d="M49.3 65.4L22.9 26.5a10.3 10.3 0 0 0-8.5-4.5H1.7l22.7 66H88V70H61a16.31 16.31 0 0 1-11.7-4.6z" fill="#fff" style="height:auto;list-style-type:none;overflow-x:visible;overflow-y:visible;width:auto;perspective-origin:0px 0px;transform-origin:0px 0px;fill:rgb(255, 255, 255);d:path('M 49.3 65.4 L 22.9 26.5 a 10.3 10.3 0 0 0 -8.5 -4.5 H 1.7 l 22.7 66 H 88 V 70 H 61 a 16.31 16.31 0 0 1 -11.7 -4.6 Z');"/>
    <path class="illustration-secondary-fill" d="M32.4 88L8 17H0l24.4 71h8z" style="height:auto;list-style-type:none;overflow-x:visible;overflow-y:visible;width:auto;perspective-origin:0px 0px;transform-origin:0px 0px;fill:rgb(84, 56, 200);d:path('M 32.4 88 L 8 17 H 0 l 24.4 71 h 8 Z');"/>
    <path d="M86.5 86.48H88V88h-1.5z" style="height:auto;list-style-type:none;overflow-x:visible;overflow-y:visible;width:auto;perspective-origin:0px 0px;transform-origin:0px 0px;d:path('M 86.5 86.48 H 88 V 88 h -1.5 Z');"/>
    <path fill="none" d="M86.5 84.48H88v2h-1.5z" style="height:auto;list-style-type:none;overflow-x:visible;overflow-y:visible;width:auto;perspective-origin:0px 0px;transform-origin:0px 0px;fill:none;d:path('M 86.5 84.48 H 88 v 2 h -1.5 Z');"/>
    <path d="M86.5 82.48H88v2h-1.5z" style="height:auto;list-style-type:none;overflow-x:visible;overflow-y:visible;width:auto;perspective-origin:0px 0px;transform-origin:0px 0px;d:path('M 86.5 82.48 H 88 v 2 h -1.5 Z');"/>
    <path fill="none" d="M86.5 80.48H88v2h-1.5z" style="height:auto;list-style-type:none;overflow-x:visible;overflow-y:visible;width:auto;perspective-origin:0px 0px;transform-origin:0px 0px;fill:none;d:path('M 86.5 80.48 H 88 v 2 h -1.5 Z');"/>
    <path d="M86.5 78.6H88v1.88h-1.5z" style="height:auto;list-style-type:none;overflow-x:visible;overflow-y:visible;width:auto;perspective-origin:0px 0px;transform-origin:0px 0px;d:path('M 86.5 78.6 H 88 v 1.88 h -1.5 Z');"/>
    <path fill="none" d="M84.5 86.48h2V88h-2z" style="height:auto;list-style-type:none;overflow-x:visible;overflow-y:visible;width:auto;perspective-origin:0px 0px;transform-origin:0px 0px;fill:none;d:path('M 84.5 86.48 h 2 V 88 h -2 Z');"/>
    <path d="M82.5 86.48h2V88h-2z" style="height:auto;list-style-type:none;overflow-x:visible;overflow-y:visible;width:auto;perspective-origin:0px 0px;transform-origin:0px 0px;d:path('M 82.5 86.48 h 2 V 88 h -2 Z');"/>
    <path fill="none" d="M86.5 82.48h-2v2h-2v2h4v-4z" style="height:auto;list-style-type:none;overflow-x:visible;overflow-y:visible;width:auto;perspective-origin:0px 0px;transform-origin:0px 0px;fill:none;d:path('M 86.5 82.48 h -2 v 2 h -2 v 2 h 4 v -4 Z');"/>
    <path d="M82.5 82.48h2v2h-2z" style="height:auto;list-style-type:none;overflow-x:visible;overflow-y:visible;width:auto;perspective-origin:0px 0px;transform-origin:0px 0px;d:path('M 82.5 82.48 h 2 v 2 h -2 Z');"/>
    <path fill="none" d="M82.5 80.48v2h4V78.6h-2v1.88h-2z" style="height:auto;list-style-type:none;overflow-x:visible;overflow-y:visible;width:auto;perspective-origin:0px 0px;transform-origin:0px 0px;fill:none;d:path('M 82.5 80.48 v 2 h 4 V 78.6 h -2 v 1.88 h -2 Z');"/>
    <path d="M82.5 78.6h2v1.88h-2z" style="height:auto;list-style-type:none;overflow-x:visible;overflow-y:visible;width:auto;perspective-origin:0px 0px;transform-origin:0px 0px;d:path('M 82.5 78.6 h 2 v 1.88 h -2 Z');"/>
    <path fill="none" d="M80.5 86.48h2V88h-2z" style="height:auto;list-style-type:none;overflow-x:visible;overflow-y:visible;width:auto;perspective-origin:0px 0px;transform-origin:0px 0px;fill:none;d:path('M 80.5 86.48 h 2 V 88 h -2 Z');"/>
    <path d="M78.5 86.48h2V88h-2z" style="height:auto;list-style-type:none;overflow-x:visible;overflow-y:visible;width:auto;perspective-origin:0px 0px;transform-origin:0px 0px;d:path('M 78.5 86.48 h 2 V 88 h -2 Z');"/>
    <path fill="none" d="M82.5 82.48h-2v2h-2v2h4v-4z" style="height:auto;list-style-type:none;overflow-x:visible;overflow-y:visible;width:auto;perspective-origin:0px 0px;transform-origin:0px 0px;fill:none;d:path('M 82.5 82.48 h -2 v 2 h -2 v 2 h 4 v -4 Z');"/>
    <path d="M78.5 82.48h2v2h-2z" style="height:auto;list-style-type:none;overflow-x:visible;overflow-y:visible;width:auto;perspective-origin:0px 0px;transform-origin:0px 0px;d:path('M 78.5 82.48 h 2 v 2 h -2 Z');"/>
    <path fill="none" d="M78.5 80.48v2h4V78.6h-2v1.88h-2z" style="height:auto;list-style-type:none;overflow-x:visible;overflow-y:visible;width:auto;perspective-origin:0px 0px;transform-origin:0px 0px;fill:none;d:path('M 78.5 80.48 v 2 h 4 V 78.6 h -2 v 1.88 h -2 Z');"/>
    <path d="M78.5 78.6h2v1.88h-2z" style="height:auto;list-style-type:none;overflow-x:visible;overflow-y:visible;width:auto;perspective-origin:0px 0px;transform-origin:0px 0px;d:path('M 78.5 78.6 h 2 v 1.88 h -2 Z');"/>
    <path fill="none" d="M76.5 86.48h2V88h-2z" style="height:auto;list-style-type:none;overflow-x:visible;overflow-y:visible;width:auto;perspective-origin:0px 0px;transform-origin:0px 0px;fill:none;d:path('M 76.5 86.48 h 2 V 88 h -2 Z');"/>
    <path d="M74.5 86.48h2V88h-2z" style="height:auto;list-style-type:none;overflow-x:visible;overflow-y:visible;width:auto;perspective-origin:0px 0px;transform-origin:0px 0px;d:path('M 74.5 86.48 h 2 V 88 h -2 Z');"/>
    <path fill="none" d="M78.5 82.48h-2v2h-2v2h4v-4z" style="height:auto;list-style-type:none;overflow-x:visible;overflow-y:visible;width:auto;perspective-origin:0px 0px;transform-origin:0px 0px;fill:none;d:path('M 78.5 82.48 h -2 v 2 h -2 v 2 h 4 v -4 Z');"/>
    <path d="M74.5 82.48h2v2h-2z" style="height:auto;list-style-type:none;overflow-x:visible;overflow-y:visible;width:auto;perspective-origin:0px 0px;transform-origin:0px 0px;d:path('M 74.5 82.48 h 2 v 2 h -2 Z');"/>
    <path fill="none" d="M74.5 80.48v2h4V78.6h-2v1.88h-2z" style="height:auto;list-style-type:none;overflow-x:visible;overflow-y:visible;width:auto;perspective-origin:0px 0px;transform-origin:0px 0px;fill:none;d:path('M 74.5 80.48 v 2 h 4 V 78.6 h -2 v 1.88 h -2 Z');"/>
    <path d="M74.5 78.6h2v1.88h-2z" style="height:auto;list-style-type:none;overflow-x:visible;overflow-y:visible;width:auto;perspective-origin:0px 0px;transform-origin:0px 0px;d:path('M 74.5 78.6 h 2 v 1.88 h -2 Z');"/>
    <path fill="none" d="M72.5 86.48h2V88h-2z" style="height:auto;list-style-type:none;overflow-x:visible;overflow-y:visible;width:auto;perspective-origin:0px 0px;transform-origin:0px 0px;fill:none;d:path('M 72.5 86.48 h 2 V 88 h -2 Z');"/>
    <path d="M70.5 86.48h2V88h-2z" style="height:auto;list-style-type:none;overflow-x:visible;overflow-y:visible;width:auto;perspective-origin:0px 0px;transform-origin:0px 0px;d:path('M 70.5 86.48 h 2 V 88 h -2 Z');"/>
    <path fill="none" d="M74.5 82.48h-2v2h-2v2h4v-4z" style="height:auto;list-style-type:none;overflow-x:visible;overflow-y:visible;width:auto;perspective-origin:0px 0px;transform-origin:0px 0px;fill:none;d:path('M 74.5 82.48 h -2 v 2 h -2 v 2 h 4 v -4 Z');"/>
    <path d="M70.5 82.48h2v2h-2z" style="height:auto;list-style-type:none;overflow-x:visible;overflow-y:visible;width:auto;perspective-origin:0px 0px;transform-origin:0px 0px;d:path('M 70.5 82.48 h 2 v 2 h -2 Z');"/>
    <path fill="none" d="M70.5 80.48v2h4V78.6h-2v1.88h-2z" style="height:auto;list-style-type:none;overflow-x:visible;overflow-y:visible;width:auto;perspective-origin:0px 0px;transform-origin:0px 0px;fill:none;d:path('M 70.5 80.48 v 2 h 4 V 78.6 h -2 v 1.88 h -2 Z');"/>
    <path d="M70.5 78.6h2v1.88h-2z" style="height:auto;list-style-type:none;overflow-x:visible;overflow-y:visible;width:auto;perspective-origin:0px 0px;transform-origin:0px 0px;d:path('M 70.5 78.6 h 2 v 1.88 h -2 Z');"/>
    <path fill="none" d="M68.5 86.48h2V88h-2z" style="height:auto;list-style-type:none;overflow-x:visible;overflow-y:visible;width:auto;perspective-origin:0px 0px;transform-origin:0px 0px;fill:none;d:path('M 68.5 86.48 h 2 V 88 h -2 Z');"/>
    <path d="M66.5 86.48h2V88h-2z" style="height:auto;list-style-type:none;overflow-x:visible;overflow-y:visible;width:auto;perspective-origin:0px 0px;transform-origin:0px 0px;d:path('M 66.5 86.48 h 2 V 88 h -2 Z');"/>
    <path fill="none" d="M70.5 82.48h-2v2h-2v2h4v-4z" style="height:auto;list-style-type:none;overflow-x:visible;overflow-y:visible;width:auto;perspective-origin:0px 0px;transform-origin:0px 0px;fill:none;d:path('M 70.5 82.48 h -2 v 2 h -2 v 2 h 4 v -4 Z');"/>
    <path d="M66.5 82.48h2v2h-2z" style="height:auto;list-style-type:none;overflow-x:visible;overflow-y:visible;width:auto;perspective-origin:0px 0px;transform-origin:0px 0px;d:path('M 66.5 82.48 h 2 v 2 h -2 Z');"/>
    <path fill="none" d="M66.5 80.48v2h4V78.6h-2v1.88h-2z" style="height:auto;list-style-type:none;overflow-x:visible;overflow-y:visible;width:auto;perspective-origin:0px 0px;transform-origin:0px 0px;fill:none;d:path('M 66.5 80.48 v 2 h 4 V 78.6 h -2 v 1.88 h -2 Z');"/>
    <path d="M66.5 78.6h2v1.88h-2z" style="height:auto;list-style-type:none;overflow-x:visible;overflow-y:visible;width:auto;perspective-origin:0px 0px;transform-origin:0px 0px;d:path('M 66.5 78.6 h 2 v 1.88 h -2 Z');"/>
    <path fill="none" d="M64.5 86.48h2V88h-2z" style="height:auto;list-style-type:none;overflow-x:visible;overflow-y:visible;width:auto;perspective-origin:0px 0px;transform-origin:0px 0px;fill:none;d:path('M 64.5 86.48 h 2 V 88 h -2 Z');"/>
    <path d="M62.5 86.48h2V88h-2z" style="height:auto;list-style-type:none;overflow-x:visible;overflow-y:visible;width:auto;perspective-origin:0px 0px;transform-origin:0px 0px;d:path('M 62.5 86.48 h 2 V 88 h -2 Z');"/>
    <path fill="none" d="M66.5 82.48h-2v2h-2v2h4v-4z" style="height:auto;list-style-type:none;overflow-x:visible;overflow-y:visible;width:auto;perspective-origin:0px 0px;transform-origin:0px 0px;fill:none;d:path('M 66.5 82.48 h -2 v 2 h -2 v 2 h 4 v -4 Z');"/>
    <path d="M62.5 82.48h2v2h-2z" style="height:auto;list-style-type:none;overflow-x:visible;overflow-y:visible;width:auto;perspective-origin:0px 0px;transform-origin:0px 0px;d:path('M 62.5 82.48 h 2 v 2 h -2 Z');"/>
    <path fill="none" d="M62.5 80.48v2h4V78.6h-2v1.88h-2z" style="height:auto;list-style-type:none;overflow-x:visible;overflow-y:visible;width:auto;perspective-origin:0px 0px;transform-origin:0px 0px;fill:none;d:path('M 62.5 80.48 v 2 h 4 V 78.6 h -2 v 1.88 h -2 Z');"/>
    <path d="M62.5 78.6h2v1.88h-2z" style="height:auto;list-style-type:none;overflow-x:visible;overflow-y:visible;width:auto;perspective-origin:0px 0px;transform-origin:0px 0px;d:path('M 62.5 78.6 h 2 v 1.88 h -2 Z');"/>
    <path fill="none" d="M60.5 86.48h2V88h-2z" style="height:auto;list-style-type:none;overflow-x:visible;overflow-y:visible;width:auto;perspective-origin:0px 0px;transform-origin:0px 0px;fill:none;d:path('M 60.5 86.48 h 2 V 88 h -2 Z');"/>
    <path d="M58.5 86.48h2V88h-2z" style="height:auto;list-style-type:none;overflow-x:visible;overflow-y:visible;width:auto;perspective-origin:0px 0px;transform-origin:0px 0px;d:path('M 58.5 86.48 h 2 V 88 h -2 Z');"/>
    <path fill="none" d="M62.5 82.48h-2v2h-2v2h4v-4z" style="height:auto;list-style-type:none;overflow-x:visible;overflow-y:visible;width:auto;perspective-origin:0px 0px;transform-origin:0px 0px;fill:none;d:path('M 62.5 82.48 h -2 v 2 h -2 v 2 h 4 v -4 Z');"/>
    <path d="M58.5 82.48h2v2h-2z" style="height:auto;list-style-type:none;overflow-x:visible;overflow-y:visible;width:auto;perspective-origin:0px 0px;transform-origin:0px 0px;d:path('M 58.5 82.48 h 2 v 2 h -2 Z');"/>
    <path fill="none" d="M58.5 80.48v2h4V78.6h-2v1.88h-2z" style="height:auto;list-style-type:none;overflow-x:visible;overflow-y:visible;width:auto;perspective-origin:0px 0px;transform-origin:0px 0px;fill:none;d:path('M 58.5 80.48 v 2 h 4 V 78.6 h -2 v 1.88 h -2 Z');"/>
    <path d="M58.5 78.6h2v1.88h-2z" style="height:auto;list-style-type:none;overflow-x:visible;overflow-y:visible;width:auto;perspective-origin:0px 0px;transform-origin:0px 0px;d:path('M 58.5 78.6 h 2 v 1.88 h -2 Z');"/>
    <path fill="none" d="M56.5 86.48h2V88h-2z" style="height:auto;list-style-type:none;overflow-x:visible;overflow-y:visible;width:auto;perspective-origin:0px 0px;transform-origin:0px 0px;fill:none;d:path('M 56.5 86.48 h 2 V 88 h -2 Z');"/>
    <path d="M54.5 86.48h2V88h-2z" style="height:auto;list-style-type:none;overflow-x:visible;overflow-y:visible;width:auto;perspective-origin:0px 0px;transform-origin:0px 0px;d:path('M 54.5 86.48 h 2 V 88 h -2 Z');"/>
    <path fill="none" d="M58.5 82.48h-2v2h-2v2h4v-4z" style="height:auto;list-style-type:none;overflow-x:visible;overflow-y:visible;width:auto;perspective-origin:0px 0px;transform-origin:0px 0px;fill:none;d:path('M 58.5 82.48 h -2 v 2 h -2 v 2 h 4 v -4 Z');"/>
    <path d="M54.5 82.48h2v2h-2z" style="height:auto;list-style-type:none;overflow-x:visible;overflow-y:visible;width:auto;perspective-origin:0px 0px;transform-origin:0px 0px;d:path('M 54.5 82.48 h 2 v 2 h -2 Z');"/>
    <path fill="none" d="M54.5 80.48v2h4V78.6h-2v1.88h-2z" style="height:auto;list-style-type:none;overflow-x:visible;overflow-y:visible;width:auto;perspective-origin:0px 0px;transform-origin:0px 0px;fill:none;d:path('M 54.5 80.48 v 2 h 4 V 78.6 h -2 v 1.88 h -2 Z');"/>
    <path d="M54.5 78.6h2v1.88h-2z" style="height:auto;list-style-type:none;overflow-x:visible;overflow-y:visible;width:auto;perspective-origin:0px 0px;transform-origin:0px 0px;d:path('M 54.5 78.6 h 2 v 1.88 h -2 Z');"/>
    <path fill="none" d="M52.5 86.48h2V88h-2z" style="height:auto;list-style-type:none;overflow-x:visible;overflow-y:visible;width:auto;perspective-origin:0px 0px;transform-origin:0px 0px;fill:none;d:path('M 52.5 86.48 h 2 V 88 h -2 Z');"/>
    <path d="M50.5 86.48h2V88h-2z" style="height:auto;list-style-type:none;overflow-x:visible;overflow-y:visible;width:auto;perspective-origin:0px 0px;transform-origin:0px 0px;d:path('M 50.5 86.48 h 2 V 88 h -2 Z');"/>
    <path fill="none" d="M54.5 82.48h-2v2h-2v2h4v-4z" style="height:auto;list-style-type:none;overflow-x:visible;overflow-y:visible;width:auto;perspective-origin:0px 0px;transform-origin:0px 0px;fill:none;d:path('M 54.5 82.48 h -2 v 2 h -2 v 2 h 4 v -4 Z');"/>
    <path d="M50.5 82.48h2v2h-2z" style="height:auto;list-style-type:none;overflow-x:visible;overflow-y:visible;width:auto;perspective-origin:0px 0px;transform-origin:0px 0px;d:path('M 50.5 82.48 h 2 v 2 h -2 Z');"/>
    <path fill="none" d="M50.5 80.48v2h4V78.6h-2v1.88h-2z" style="height:auto;list-style-type:none;overflow-x:visible;overflow-y:visible;width:auto;perspective-origin:0px 0px;transform-origin:0px 0px;fill:none;d:path('M 50.5 80.48 v 2 h 4 V 78.6 h -2 v 1.88 h -2 Z');"/>
    <path d="M50.5 78.6h2v1.88h-2z" style="height:auto;list-style-type:none;overflow-x:visible;overflow-y:visible;width:auto;perspective-origin:0px 0px;transform-origin:0px 0px;d:path('M 50.5 78.6 h 2 v 1.88 h -2 Z');"/>
    <path fill="none" d="M48.5 86.48h2V88h-2z" style="height:auto;list-style-type:none;overflow-x:visible;overflow-y:visible;width:auto;perspective-origin:0px 0px;transform-origin:0px 0px;fill:none;d:path('M 48.5 86.48 h 2 V 88 h -2 Z');"/>
    <path d="M46.5 86.48h2V88h-2z" style="height:auto;list-style-type:none;overflow-x:visible;overflow-y:visible;width:auto;perspective-origin:0px 0px;transform-origin:0px 0px;d:path('M 46.5 86.48 h 2 V 88 h -2 Z');"/>
    <path fill="none" d="M50.5 82.48h-2v2h-2v2h4v-4z" style="height:auto;list-style-type:none;overflow-x:visible;overflow-y:visible;width:auto;perspective-origin:0px 0px;transform-origin:0px 0px;fill:none;d:path('M 50.5 82.48 h -2 v 2 h -2 v 2 h 4 v -4 Z');"/>
    <path d="M46.5 82.48h2v2h-2z" style="height:auto;list-style-type:none;overflow-x:visible;overflow-y:visible;width:auto;perspective-origin:0px 0px;transform-origin:0px 0px;d:path('M 46.5 82.48 h 2 v 2 h -2 Z');"/>
    <path fill="none" d="M46.5 80.48v2h4V78.6h-2v1.88h-2z" style="height:auto;list-style-type:none;overflow-x:visible;overflow-y:visible;width:auto;perspective-origin:0px 0px;transform-origin:0px 0px;fill:none;d:path('M 46.5 80.48 v 2 h 4 V 78.6 h -2 v 1.88 h -2 Z');"/>
    <path d="M46.5 78.6h2v1.88h-2z" style="height:auto;list-style-type:none;overflow-x:visible;overflow-y:visible;width:auto;perspective-origin:0px 0px;transform-origin:0px 0px;d:path('M 46.5 78.6 h 2 v 1.88 h -2 Z');"/>
    <path fill="none" d="M44.5 86.48h2V88h-2z" style="height:auto;list-style-type:none;overflow-x:visible;overflow-y:visible;width:auto;perspective-origin:0px 0px;transform-origin:0px 0px;fill:none;d:path('M 44.5 86.48 h 2 V 88 h -2 Z');"/>
    <path d="M42.5 86.48h2V88h-2z" style="height:auto;list-style-type:none;overflow-x:visible;overflow-y:visible;width:auto;perspective-origin:0px 0px;transform-origin:0px 0px;d:path('M 42.5 86.48 h 2 V 88 h -2 Z');"/>
    <path fill="none" d="M46.5 82.48h-2v2h-2v2h4v-4z" style="height:auto;list-style-type:none;overflow-x:visible;overflow-y:visible;width:auto;perspective-origin:0px 0px;transform-origin:0px 0px;fill:none;d:path('M 46.5 82.48 h -2 v 2 h -2 v 2 h 4 v -4 Z');"/>
    <path d="M42.5 82.48h2v2h-2z" style="height:auto;list-style-type:none;overflow-x:visible;overflow-y:visible;width:auto;perspective-origin:0px 0px;transform-origin:0px 0px;d:path('M 42.5 82.48 h 2 v 2 h -2 Z');"/>
    <path fill="none" d="M42.5 80.48v2h4V78.6h-2v1.88h-2z" style="height:auto;list-style-type:none;overflow-x:visible;overflow-y:visible;width:auto;perspective-origin:0px 0px;transform-origin:0px 0px;fill:none;d:path('M 42.5 80.48 v 2 h 4 V 78.6 h -2 v 1.88 h -2 Z');"/>
    <path d="M42.5 78.6h2v1.88h-2z" style="height:auto;list-style-type:none;overflow-x:visible;overflow-y:visible;width:auto;perspective-origin:0px 0px;transform-origin:0px 0px;d:path('M 42.5 78.6 h 2 v 1.88 h -2 Z');"/>
    <path fill="none" d="M40.5 86.48h2V88h-2z" style="height:auto;list-style-type:none;overflow-x:visible;overflow-y:visible;width:auto;perspective-origin:0px 0px;transform-origin:0px 0px;fill:none;d:path('M 40.5 86.48 h 2 V 88 h -2 Z');"/>
    <path d="M38.5 86.48h2V88h-2z" style="height:auto;list-style-type:none;overflow-x:visible;overflow-y:visible;width:auto;perspective-origin:0px 0px;transform-origin:0px 0px;d:path('M 38.5 86.48 h 2 V 88 h -2 Z');"/>
    <path fill="none" d="M42.5 82.48h-2v2h-2v2h4v-4z" style="height:auto;list-style-type:none;overflow-x:visible;overflow-y:visible;width:auto;perspective-origin:0px 0px;transform-origin:0px 0px;fill:none;d:path('M 42.5 82.48 h -2 v 2 h -2 v 2 h 4 v -4 Z');"/>
    <path d="M38.5 82.48h2v2h-2z" style="height:auto;list-style-type:none;overflow-x:visible;overflow-y:visible;width:auto;perspective-origin:0px 0px;transform-origin:0px 0px;d:path('M 38.5 82.48 h 2 v 2 h -2 Z');"/>
    <path fill="none" d="M38.5 80.48v2h4V78.6h-2v1.88h-2z" style="height:auto;list-style-type:none;overflow-x:visible;overflow-y:visible;width:auto;perspective-origin:0px 0px;transform-origin:0px 0px;fill:none;d:path('M 38.5 80.48 v 2 h 4 V 78.6 h -2 v 1.88 h -2 Z');"/>
    <path d="M38.5 78.6h2v1.88h-2z" style="height:auto;list-style-type:none;overflow-x:visible;overflow-y:visible;width:auto;perspective-origin:0px 0px;transform-origin:0px 0px;d:path('M 38.5 78.6 h 2 v 1.88 h -2 Z');"/>
    <path fill="none" d="M36.5 86.48h2V88h-2z" style="height:auto;list-style-type:none;overflow-x:visible;overflow-y:visible;width:auto;perspective-origin:0px 0px;transform-origin:0px 0px;fill:none;d:path('M 36.5 86.48 h 2 V 88 h -2 Z');"/>
    <path d="M34.5 86.48h2V88h-2z" style="height:auto;list-style-type:none;overflow-x:visible;overflow-y:visible;width:auto;perspective-origin:0px 0px;transform-origin:0px 0px;d:path('M 34.5 86.48 h 2 V 88 h -2 Z');"/>
    <path fill="none" d="M38.5 82.48h-2v2h-2v2h4v-4z" style="height:auto;list-style-type:none;overflow-x:visible;overflow-y:visible;width:auto;perspective-origin:0px 0px;transform-origin:0px 0px;fill:none;d:path('M 38.5 82.48 h -2 v 2 h -2 v 2 h 4 v -4 Z');"/>
    <path d="M34.5 82.48h2v2h-2z" style="height:auto;list-style-type:none;overflow-x:visible;overflow-y:visible;width:auto;perspective-origin:0px 0px;transform-origin:0px 0px;d:path('M 34.5 82.48 h 2 v 2 h -2 Z');"/>
    <path fill="none" d="M34.5 80.48v2h4V78.6h-2v1.88h-2z" style="height:auto;list-style-type:none;overflow-x:visible;overflow-y:visible;width:auto;perspective-origin:0px 0px;transform-origin:0px 0px;fill:none;d:path('M 34.5 80.48 v 2 h 4 V 78.6 h -2 v 1.88 h -2 Z');"/>
    <path d="M34.5 78.6h2v1.88h-2z" style="height:auto;list-style-type:none;overflow-x:visible;overflow-y:visible;width:auto;perspective-origin:0px 0px;transform-origin:0px 0px;d:path('M 34.5 78.6 h 2 v 1.88 h -2 Z');"/>
    <path fill="none" d="M32.5 86.48h2V88h-2z" style="height:auto;list-style-type:none;overflow-x:visible;overflow-y:visible;width:auto;perspective-origin:0px 0px;transform-origin:0px 0px;fill:none;d:path('M 32.5 86.48 h 2 V 88 h -2 Z');"/>
    <path d="M30.5 86.48V88h2v-1.52h-2z" style="height:auto;list-style-type:none;overflow-x:visible;overflow-y:visible;width:auto;perspective-origin:0px 0px;transform-origin:0px 0px;d:path('M 30.5 86.48 V 88 h 2 v -1.52 h -2 Z');"/>
    <path fill="none" d="M34.5 82.48h-2v2h-2v2h4v-4z" style="height:auto;list-style-type:none;overflow-x:visible;overflow-y:visible;width:auto;perspective-origin:0px 0px;transform-origin:0px 0px;fill:none;d:path('M 34.5 82.48 h -2 v 2 h -2 v 2 h 4 v -4 Z');"/>
    <path d="M30.5 82.48h2v2h-2z" style="height:auto;list-style-type:none;overflow-x:visible;overflow-y:visible;width:auto;perspective-origin:0px 0px;transform-origin:0px 0px;d:path('M 30.5 82.48 h 2 v 2 h -2 Z');"/>
    <path fill="none" d="M30.5 80.48v2h4V78.6h-2v1.88h-2z" style="height:auto;list-style-type:none;overflow-x:visible;overflow-y:visible;width:auto;perspective-origin:0px 0px;transform-origin:0px 0px;fill:none;d:path('M 30.5 80.48 v 2 h 4 V 78.6 h -2 v 1.88 h -2 Z');"/>
    <path d="M30.5 78.6h2v1.88h-2z" style="height:auto;list-style-type:none;overflow-x:visible;overflow-y:visible;width:auto;perspective-origin:0px 0px;transform-origin:0px 0px;d:path('M 30.5 78.6 h 2 v 1.88 h -2 Z');"/>
    <path fill="none" d="M28.5 86.48h2V88h-2z" style="height:auto;list-style-type:none;overflow-x:visible;overflow-y:visible;width:auto;perspective-origin:0px 0px;transform-origin:0px 0px;fill:none;d:path('M 28.5 86.48 h 2 V 88 h -2 Z');"/>
    <path d="M26.5 86.48h2V88h-2z" style="height:auto;list-style-type:none;overflow-x:visible;overflow-y:visible;width:auto;perspective-origin:0px 0px;transform-origin:0px 0px;d:path('M 26.5 86.48 h 2 V 88 h -2 Z');"/>
    <path fill="none" d="M30.5 82.48h-2v2h-2v2h4v-4z" style="height:auto;list-style-type:none;overflow-x:visible;overflow-y:visible;width:auto;perspective-origin:0px 0px;transform-origin:0px 0px;fill:none;d:path('M 30.5 82.48 h -2 v 2 h -2 v 2 h 4 v -4 Z');"/>
    <path d="M26.5 82.48h2v2h-2z" style="height:auto;list-style-type:none;overflow-x:visible;overflow-y:visible;width:auto;perspective-origin:0px 0px;transform-origin:0px 0px;d:path('M 26.5 82.48 h 2 v 2 h -2 Z');"/>
    <path fill="none" d="M26.5 80.48v2h4V78.6h-2v1.88h-2z" style="height:auto;list-style-type:none;overflow-x:visible;overflow-y:visible;width:auto;perspective-origin:0px 0px;transform-origin:0px 0px;fill:none;d:path('M 26.5 80.48 v 2 h 4 V 78.6 h -2 v 1.88 h -2 Z');"/>
    <path d="M26.5 78.6h2v1.88h-2z" style="height:auto;list-style-type:none;overflow-x:visible;overflow-y:visible;width:auto;perspective-origin:0px 0px;transform-origin:0px 0px;d:path('M 26.5 78.6 h 2 v 1.88 h -2 Z');"/>
    <path fill="none" d="M24.5 86.48h2V88h-2z" style="height:auto;list-style-type:none;overflow-x:visible;overflow-y:visible;width:auto;perspective-origin:0px 0px;transform-origin:0px 0px;fill:none;d:path('M 24.5 86.48 h 2 V 88 h -2 Z');"/>
    <path d="M23.88 86.48L24.4 88h.1v-1.52h-.62z" style="height:auto;list-style-type:none;overflow-x:visible;overflow-y:visible;width:auto;perspective-origin:0px 0px;transform-origin:0px 0px;d:path('M 23.88 86.48 L 24.4 88 h 0.1 v -1.52 h -0.62 Z');"/>
    <path fill="none" d="M26.5 86.48v-4h-2v2h-1.3l.68 2h2.62z" style="height:auto;list-style-type:none;overflow-x:visible;overflow-y:visible;width:auto;perspective-origin:0px 0px;transform-origin:0px 0px;fill:none;d:path('M 26.5 86.48 v -4 h -2 v 2 h -1.3 l 0.68 2 h 2.62 Z');"/>
    <path d="M24.5 82.48h-1.98l.68 2h1.3v-2z" style="height:auto;list-style-type:none;overflow-x:visible;overflow-y:visible;width:auto;perspective-origin:0px 0px;transform-origin:0px 0px;d:path('M 24.5 82.48 h -1.98 l 0.68 2 h 1.3 v -2 Z');"/>
    <path fill="none" d="M26.5 82.48V78.6h-2v1.88h-2v1.93l.02.07h3.98z" style="height:auto;list-style-type:none;overflow-x:visible;overflow-y:visible;width:auto;perspective-origin:0px 0px;transform-origin:0px 0px;fill:none;d:path('M 26.5 82.48 V 78.6 h -2 v 1.88 h -2 v 1.93 l 0.02 0.07 h 3.98 Z');"/>
    <path d="M22.5 78.6h2v1.88h-2z" style="height:auto;list-style-type:none;overflow-x:visible;overflow-y:visible;width:auto;perspective-origin:0px 0px;transform-origin:0px 0px;d:path('M 22.5 78.6 h 2 v 1.88 h -2 Z');"/>
    <path fill="none" d="M22.5 78.6h-1.3l1.3 3.81V78.6z" style="height:auto;list-style-type:none;overflow-x:visible;overflow-y:visible;width:auto;perspective-origin:0px 0px;transform-origin:0px 0px;fill:none;d:path('M 22.5 78.6 h -1.3 l 1.3 3.81 V 78.6 Z');"/>
</svg>