<?xml version="1.0" standalone="no"?><!DOCTYPE svg PUBLIC "-//W3C//DTD SVG 1.1//EN" "http://www.w3.org/Graphics/SVG/1.1/DTD/svg11.dtd"><svg viewBox="0 0 64 64" width="20px" height="20px" class=" _style_4wJp4e" data-reactid="57" version="1.1" xmlns="http://www.w3.org/2000/svg" xmlns:xlink="http://www.w3.org/1999/xlink" style="border-bottom-color:rgb(13, 105, 108);border-left-color:rgb(13, 105, 108);border-right-color:rgb(13, 105, 108);border-top-color:rgb(13, 105, 108);color:rgb(13, 105, 108);cursor:pointer;height:20px;list-style-type:none;outline-color:rgb(13, 105, 108);text-decoration:none solid rgb(13, 105, 108);text-decoration-color:rgb(13, 105, 108);width:20px;column-rule-color:rgb(13, 105, 108);perspective-origin:10px 10px;-webkit-text-emphasis-color:rgb(13, 105, 108);-webkit-text-fill-color:rgb(13, 105, 108);-webkit-text-stroke-color:rgb(13, 105, 108);transform-origin:10px 10px;fill:rgb(13, 105, 108);caret-color:rgb(13, 105, 108);"><path d="M32.0000114,4c-11.0449219,0-20,8.8027344-20,20c0,6.0996094,2,11.03125,6,16.9375l13.1807709,18.6359062 C31.3796368,59.8575249,31.6893368,59.9997215,31.9991455,60c0.3104134,0.0002785,0.6209373-0.141922,0.820179-0.4265938 L46.0000114,40.9375c4-5.90625,6-10.8378906,6-16.9375C52.0000114,12.8027344,43.0449333,4,32.0000114,4z M32.0000114,36.25 c-6.7655029,0-12.25-5.484375-12.25-12.25s5.4844971-12.25,12.25-12.25s12.25,5.484375,12.25,12.25 S38.7655144,36.25,32.0000114,36.25z" data-reactid="58" style="border-bottom-color:rgb(13, 105, 108);border-left-color:rgb(13, 105, 108);border-right-color:rgb(13, 105, 108);border-top-color:rgb(13, 105, 108);color:rgb(13, 105, 108);cursor:pointer;height:auto;list-style-type:none;outline-color:rgb(13, 105, 108);overflow-x:visible;overflow-y:visible;text-decoration:none solid rgb(13, 105, 108);text-decoration-color:rgb(13, 105, 108);width:auto;column-rule-color:rgb(13, 105, 108);perspective-origin:0px 0px;-webkit-text-emphasis-color:rgb(13, 105, 108);-webkit-text-fill-color:rgb(13, 105, 108);-webkit-text-stroke-color:rgb(13, 105, 108);transform-origin:0px 0px;fill:rgb(13, 105, 108);d:path('M 32 4 c -11.0449 0 -20 8.80273 -20 20 c 0 6.09961 2 11.0313 6 16.9375 l 13.1808 18.6359 C 31.3796 59.8575 31.6893 59.9997 31.9991 60 c 0.310413 0.0002785 0.620937 -0.141922 0.820179 -0.426594 L 46 40.9375 c 4 -5.90625 6 -10.8379 6 -16.9375 C 52 12.8027 43.0449 4 32 4 Z M 32 36.25 c -6.7655 0 -12.25 -5.48438 -12.25 -12.25 s 5.4845 -12.25 12.25 -12.25 s 12.25 5.48438 12.25 12.25 S 38.7655 36.25 32 36.25 Z');caret-color:rgb(13, 105, 108);"/></svg>