<?xml version="1.0" standalone="no"?><!DOCTYPE svg PUBLIC "-//W3C//DTD SVG 1.1//EN" "http://www.w3.org/Graphics/SVG/1.1/DTD/svg11.dtd"><svg data-name="Layer 1" viewBox="0 0 88 88" height="88" width="88" style="display:block;height:120px;list-style-type:none;width:120px;perspective-origin:60px 60px;transform-origin:60px 60px;" version="1.1" xmlns="http://www.w3.org/2000/svg" xmlns:xlink="http://www.w3.org/1999/xlink"><title xmlns="http://www.w3.org/1999/xhtml" style="display:none;height:auto;list-style-type:none;overflow-x:visible;overflow-y:visible;width:auto;perspective-origin:50% 50%;transform-origin:50% 50%;">Decorative Illustration</title><desc xmlns="http://www.w3.org/1999/xhtml" style="height:auto;list-style-type:none;overflow-x:visible;overflow-y:visible;width:auto;perspective-origin:50% 50%;transform-origin:50% 50%;">Decorative Illustration</desc>
    <defs style="height:auto;list-style-type:none;overflow-x:visible;overflow-y:visible;width:auto;perspective-origin:0px 0px;transform-origin:0px 0px;">
        <clipPath id="a___1569785766" style="height:auto;list-style-type:none;overflow-x:visible;overflow-y:visible;width:auto;perspective-origin:0px 0px;transform-origin:0px 0px;">
            <circle cx="44.04" cy="44" r="43.65" fill="none" style="height:auto;list-style-type:none;overflow-x:visible;overflow-y:visible;width:auto;perspective-origin:0px 0px;transform-origin:0px 0px;fill:none;cx:44.04px;cy:44px;r:43.65px;"/>
        </clipPath>
        <pattern id="b___1569785766" data-name="2x2 - Black" width="4" height="4" patternTransform="matrix(.8 0 0 .8 5.7 4.5)" patternUnits="userSpaceOnUse" viewBox="0 0 4 4" style="height:auto;list-style-type:none;width:auto;perspective-origin:0px 0px;transform:matrix(0.8, 0, 0, 0.8, 5.7, 4.5);transform-origin:0px 0px;">
            <path fill="none" d="M0 0h4v4H0z" style="height:auto;list-style-type:none;overflow-x:visible;overflow-y:visible;width:auto;perspective-origin:0px 0px;transform-origin:0px 0px;fill:none;d:path('M 0 0 h 4 v 4 H 0 Z');"/>
            <path d="M0 0h2v2H0z" style="height:auto;list-style-type:none;overflow-x:visible;overflow-y:visible;width:auto;perspective-origin:0px 0px;transform-origin:0px 0px;d:path('M 0 0 h 2 v 2 H 0 Z');"/>
        </pattern>
    </defs>
    <path class="illustration-secondary-fill" d="M17.07 74.68h10.25v8.95H17.07z" style="height:auto;list-style-type:none;overflow-x:visible;overflow-y:visible;width:auto;perspective-origin:0px 0px;transform-origin:0px 0px;fill:rgb(84, 56, 200);d:path('M 17.07 74.68 h 10.25 v 8.95 H 17.07 Z');"/>
    <g clip-path="url(#a___1569785766)" style="height:auto;list-style-type:none;overflow-x:visible;overflow-y:visible;width:auto;perspective-origin:0px 0px;transform-origin:0px 0px;clip-path:url(&quot;#a___1569785766&quot;);">
        <path fill="#d6d6d5" d="M90.75 90.31H-1.6v-93.5h92.35z" style="height:auto;list-style-type:none;overflow-x:visible;overflow-y:visible;width:auto;perspective-origin:0px 0px;transform-origin:0px 0px;fill:rgb(214, 214, 213);d:path('M 90.75 90.31 H -1.6 v -93.5 h 92.35 Z');"/>
        <path d="M71.01 87.65H17.08V61.3a14.8 14.8 0 0 1 14.8-14.8h24.33a14.8 14.8 0 0 1 14.8 14.8v26.35z" class="illustration-secondary-fill" style="height:auto;list-style-type:none;overflow-x:visible;overflow-y:visible;width:auto;perspective-origin:0px 0px;transform-origin:0px 0px;fill:rgb(84, 56, 200);d:path('M 71.01 87.65 H 17.08 V 61.3 a 14.8 14.8 0 0 1 14.8 -14.8 h 24.33 a 14.8 14.8 0 0 1 14.8 14.8 v 26.35 Z');"/>
        <circle cx="40.02" cy="22.61" r="11.58" fill="#f8f8f9" style="height:auto;list-style-type:none;overflow-x:visible;overflow-y:visible;width:auto;perspective-origin:0px 0px;transform-origin:0px 0px;fill:rgb(248, 248, 249);cx:40.02px;cy:22.61px;r:11.58px;"/>
        <path d="M35.06 46.5h8.32v-4.3a12.59 12.59 0 0 0-3.69-8.9l-1-1A12.59 12.59 0 0 1 35 23.42h-2.29V46.5h2.35z" style="height:auto;list-style-type:none;overflow-x:visible;overflow-y:visible;width:auto;perspective-origin:0px 0px;transform-origin:0px 0px;d:path('M 35.06 46.5 h 8.32 v -4.3 a 12.59 12.59 0 0 0 -3.69 -8.9 l -1 -1 A 12.59 12.59 0 0 1 35 23.42 h -2.29 V 46.5 h 2.35 Z');"/>
        <path fill="#f8f8f9" d="M51.6 46.5H36.26V28.61H51.6z" style="height:auto;list-style-type:none;overflow-x:visible;overflow-y:visible;width:auto;perspective-origin:0px 0px;transform-origin:0px 0px;fill:rgb(248, 248, 249);d:path('M 51.6 46.5 H 36.26 V 28.61 H 51.6 Z');"/>
        <path fill="url(#b___1569785766)" d="M17.07 63.76h53.94v23.89H17.07z" style="height:auto;list-style-type:none;overflow-x:visible;overflow-y:visible;width:auto;perspective-origin:0px 0px;transform-origin:0px 0px;fill:url(&quot;#b___1569785766&quot;);d:path('M 17.07 63.76 h 53.94 v 23.89 H 17.07 Z');"/>
        <path d="M40 38.83h-9.41a2.16 2.16 0 0 1-2.16-2.16V22.61H40v16.22z" fill="#f8f8f9" style="height:auto;list-style-type:none;overflow-x:visible;overflow-y:visible;width:auto;perspective-origin:0px 0px;transform-origin:0px 0px;fill:rgb(248, 248, 249);d:path('M 40 38.83 h -9.41 a 2.16 2.16 0 0 1 -2.16 -2.16 V 22.61 H 40 v 16.22 Z');"/>
        <path d="M28.44 25v4.61h-1.16a.54.54 0 0 1-.38-.92A5.23 5.23 0 0 0 28.44 25z" fill="#f8f8f9" style="height:auto;list-style-type:none;overflow-x:visible;overflow-y:visible;width:auto;perspective-origin:0px 0px;transform-origin:0px 0px;fill:rgb(248, 248, 249);d:path('M 28.44 25 v 4.61 h -1.16 a 0.54 0.54 0 0 1 -0.38 -0.92 A 5.23 5.23 0 0 0 28.44 25 Z');"/>
        <path d="M40 11a11.24 11.24 0 0 1 11.6 11.29v17.06l-4-4a5.07 5.07 0 0 1-1.48-3.58v-5.93a1.79 1.79 0 0 0-1.8-1.84 1.79 1.79 0 0 0-1.79 1.79v.27h-1A3.14 3.14 0 0 1 38.36 23v-1.5a2.28 2.28 0 0 0-2.28-2.28h-7.14A11.59 11.59 0 0 1 40 11z" style="height:auto;list-style-type:none;overflow-x:visible;overflow-y:visible;width:auto;perspective-origin:0px 0px;transform-origin:0px 0px;d:path('M 40 11 a 11.24 11.24 0 0 1 11.6 11.29 v 17.06 l -4 -4 a 5.07 5.07 0 0 1 -1.48 -3.58 v -5.93 a 1.79 1.79 0 0 0 -1.8 -1.84 a 1.79 1.79 0 0 0 -1.79 1.79 v 0.27 h -1 A 3.14 3.14 0 0 1 38.36 23 v -1.5 a 2.28 2.28 0 0 0 -2.28 -2.28 h -7.14 A 11.59 11.59 0 0 1 40 11 Z');"/>
        <path d="M39.77 21.97H25.18v-.48a6.57 6.57 0 0 1 6.56-6.6h8v7.08z" style="height:auto;list-style-type:none;overflow-x:visible;overflow-y:visible;width:auto;perspective-origin:0px 0px;transform-origin:0px 0px;d:path('M 39.77 21.97 H 25.18 v -0.48 a 6.57 6.57 0 0 1 6.56 -6.6 h 8 v 7.08 Z');"/>
        <path class="illustration-primary-fill" d="M36.27 46.5h15.34v41.03H36.27z" style="height:auto;list-style-type:none;overflow-x:visible;overflow-y:visible;width:auto;perspective-origin:0px 0px;transform-origin:0px 0px;fill:rgb(207, 216, 244);d:path('M 36.27 46.5 h 15.34 v 41.03 H 36.27 Z');"/>
        <path d="M43.97 54.13h-.1a7.63 7.63 0 0 1-7.63-7.63H51.6a7.63 7.63 0 0 1-7.63 7.63z" fill="#f8f8f9" style="height:auto;list-style-type:none;overflow-x:visible;overflow-y:visible;width:auto;perspective-origin:0px 0px;transform-origin:0px 0px;fill:rgb(248, 248, 249);d:path('M 43.97 54.13 h -0.1 a 7.63 7.63 0 0 1 -7.63 -7.63 H 51.6 a 7.63 7.63 0 0 1 -7.63 7.63 Z');"/>
        <path d="M51.6 46.5h8.32v-4.3a12.59 12.59 0 0 0-3.69-8.9l-1-1a12.59 12.59 0 0 1-3.69-8.9h-5.42V41a5.49 5.49 0 0 0 5.48 5.5z" style="height:auto;list-style-type:none;overflow-x:visible;overflow-y:visible;width:auto;perspective-origin:0px 0px;transform-origin:0px 0px;d:path('M 51.6 46.5 h 8.32 v -4.3 a 12.59 12.59 0 0 0 -3.69 -8.9 l -1 -1 a 12.59 12.59 0 0 1 -3.69 -8.9 h -5.42 V 41 a 5.49 5.49 0 0 0 5.48 5.5 Z');"/>
    </g>
    <ellipse cx="67.07" cy="10.13" rx="10.32" ry="9.78" fill="#fff" style="height:auto;list-style-type:none;overflow-x:visible;overflow-y:visible;width:auto;perspective-origin:0px 0px;transform-origin:0px 0px;fill:rgb(255, 255, 255);cx:67.07px;cy:10.13px;rx:10.32px;ry:9.78px;"/>
    <path d="M57 12.35l7.84 23.31a2.32 2.32 0 0 0 4.41 0l7.84-23.31H57z" fill="#fff" style="height:auto;list-style-type:none;overflow-x:visible;overflow-y:visible;width:auto;perspective-origin:0px 0px;transform-origin:0px 0px;fill:rgb(255, 255, 255);d:path('M 57 12.35 l 7.84 23.31 a 2.32 2.32 0 0 0 4.41 0 l 7.84 -23.31 H 57 Z');"/>
    <ellipse cx="67.07" cy="10.13" rx="4.75" ry="4.5" class="illustration-primary-fill" style="height:auto;list-style-type:none;overflow-x:visible;overflow-y:visible;width:auto;perspective-origin:0px 0px;transform-origin:0px 0px;fill:rgb(207, 216, 244);cx:67.07px;cy:10.13px;rx:4.75px;ry:4.5px;"/>
    <path fill="#f8f8f9" d="M7.16 54.98h6.76v3.27H7.16z" style="height:auto;list-style-type:none;overflow-x:visible;overflow-y:visible;width:auto;perspective-origin:0px 0px;transform-origin:0px 0px;fill:rgb(248, 248, 249);d:path('M 7.16 54.98 h 6.76 v 3.27 H 7.16 Z');"/>
    <path d="M5.77 58.25h11.3v25.38h-3.3a8 8 0 0 1-8-8V58.25z" class="illustration-secondary-fill" style="height:auto;list-style-type:none;overflow-x:visible;overflow-y:visible;width:auto;perspective-origin:0px 0px;transform-origin:0px 0px;fill:rgb(84, 56, 200);d:path('M 5.77 58.25 h 11.3 v 25.38 h -3.3 a 8 8 0 0 1 -8 -8 V 58.25 Z');"/>
    <rect x="8.84" y="38.38" width="8.23" height="17.2" rx="1.18" ry="1.18" class="illustration-primary-fill" style="height:auto;list-style-type:none;overflow-x:visible;overflow-y:visible;width:auto;perspective-origin:0px 0px;transform-origin:0px 0px;fill:rgb(207, 216, 244);x:8.84px;y:38.38px;rx:1.18px;ry:1.18px;"/>
    <rect x="7.66" y="38.38" width="8.23" height="17.2" rx="1.18" ry="1.18" style="height:auto;list-style-type:none;overflow-x:visible;overflow-y:visible;width:auto;perspective-origin:0px 0px;transform-origin:0px 0px;x:7.66px;y:38.38px;rx:1.18px;ry:1.18px;"/>
    <path d="M13.92 52.59v-4.25H12a1.93 1.93 0 0 0 1.93-1.93H6.54a2.21 2.21 0 0 0-2.21 2.21v2.47a3.09 3.09 0 0 0 .9 2.18l1.87 1.88a4 4 0 0 0 2.83 1.17h.25a3.74 3.74 0 0 0 3.74-3.73z" fill="#f8f8f9" style="height:auto;list-style-type:none;overflow-x:visible;overflow-y:visible;width:auto;perspective-origin:0px 0px;transform-origin:0px 0px;fill:rgb(248, 248, 249);d:path('M 13.92 52.59 v -4.25 H 12 a 1.93 1.93 0 0 0 1.93 -1.93 H 6.54 a 2.21 2.21 0 0 0 -2.21 2.21 v 2.47 a 3.09 3.09 0 0 0 0.9 2.18 l 1.87 1.88 a 4 4 0 0 0 2.83 1.17 h 0.25 a 3.74 3.74 0 0 0 3.74 -3.73 Z');"/>
</svg>