<?xml version="1.0" standalone="no"?><!DOCTYPE svg PUBLIC "-//W3C//DTD SVG 1.1//EN" "http://www.w3.org/Graphics/SVG/1.1/DTD/svg11.dtd"><svg data-name="Layer 1" viewBox="0 0 88 88" height="88" width="88" style="display:block;height:120px;list-style-type:none;width:120px;perspective-origin:60px 60px;transform-origin:60px 60px;" version="1.1" xmlns="http://www.w3.org/2000/svg" xmlns:xlink="http://www.w3.org/1999/xlink"><title xmlns="http://www.w3.org/1999/xhtml" style="display:none;height:auto;list-style-type:none;overflow-x:visible;overflow-y:visible;width:auto;perspective-origin:50% 50%;transform-origin:50% 50%;">Decorative Illustration</title><desc xmlns="http://www.w3.org/1999/xhtml" style="height:auto;list-style-type:none;overflow-x:visible;overflow-y:visible;width:auto;perspective-origin:50% 50%;transform-origin:50% 50%;">Decorative Illustration</desc>
    <defs style="height:auto;list-style-type:none;overflow-x:visible;overflow-y:visible;width:auto;perspective-origin:0px 0px;transform-origin:0px 0px;">
        <pattern id="a___390658790" data-name="2/2 - black" width="4" height="4" patternTransform="translate(0 -6.8)" patternUnits="userSpaceOnUse" viewBox="0 0 4 4" style="height:auto;list-style-type:none;width:auto;perspective-origin:0px 0px;transform:matrix(1, 0, 0, 1, 0, -6.8);transform-origin:0px 0px;">
            <path fill="none" d="M0 0h4v4H0z" style="height:auto;list-style-type:none;overflow-x:visible;overflow-y:visible;width:auto;perspective-origin:0px 0px;transform-origin:0px 0px;fill:none;d:path('M 0 0 h 4 v 4 H 0 Z');"/>
            <path d="M0 0h2v2H0z" style="height:auto;list-style-type:none;overflow-x:visible;overflow-y:visible;width:auto;perspective-origin:0px 0px;transform-origin:0px 0px;d:path('M 0 0 h 2 v 2 H 0 Z');"/>
        </pattern>
    </defs>
    <path d="M75.54 31.63a31.62 31.62 0 0 0-1.88-2.71 9.45 9.45 0 0 0 7.09-9.14H66.07a11.85 11.85 0 0 1-5.32-1.28 46.46 46.46 0 0 0-20.84-4.81C17.87 13.68 0 28.3 0 46.34c0 8.26 3.76 15.8 9.94 21.55a12.52 12.52 0 0 1 4 9.17v4.16h8.17v-5.68A47.08 47.08 0 0 0 39.91 79c.44 0 .87 0 1.3-.05V79a37.15 37.15 0 0 0 15.72-3.2v5.42h8.17v-5a12.79 12.79 0 0 1 3.9-9.09c6.83-6.76 11.42-13.9 19-13.9V40.6c-4.46 0-8.45-3.74-12.46-8.97z" class="illustration-secondary-fill" style="height:auto;list-style-type:none;overflow-x:visible;overflow-y:visible;width:auto;perspective-origin:0px 0px;transform-origin:0px 0px;fill:rgb(84, 56, 200);d:path('M 75.54 31.63 a 31.62 31.62 0 0 0 -1.88 -2.71 a 9.45 9.45 0 0 0 7.09 -9.14 H 66.07 a 11.85 11.85 0 0 1 -5.32 -1.28 a 46.46 46.46 0 0 0 -20.84 -4.81 C 17.87 13.68 0 28.3 0 46.34 c 0 8.26 3.76 15.8 9.94 21.55 a 12.52 12.52 0 0 1 4 9.17 v 4.16 h 8.17 v -5.68 A 47.08 47.08 0 0 0 39.91 79 c 0.44 0 0.87 0 1.3 -0.05 V 79 a 37.15 37.15 0 0 0 15.72 -3.2 v 5.42 h 8.17 v -5 a 12.79 12.79 0 0 1 3.9 -9.09 c 6.83 -6.76 11.42 -13.9 19 -13.9 V 40.6 c -4.46 0 -8.45 -3.74 -12.46 -8.97 Z');"/>
    <path d="M0 45.74v.59c0 8.26 3.76 15.8 9.94 21.55a12.52 12.52 0 0 1 4 9.17v4.16h8.17v-5.67A47.08 47.08 0 0 0 39.91 79c.44 0 .87 0 1.3-.05V79a37.15 37.15 0 0 0 15.72-3.2v5.42h8.17v-5a12.79 12.79 0 0 1 3.9-9.09c6.83-6.76 11.42-13.9 19-13.9v-7.49H0z" fill="url(#a___390658790)" style="height:auto;list-style-type:none;overflow-x:visible;overflow-y:visible;width:auto;perspective-origin:0px 0px;transform-origin:0px 0px;fill:url(&quot;#a___390658790&quot;);d:path('M 0 45.74 v 0.59 c 0 8.26 3.76 15.8 9.94 21.55 a 12.52 12.52 0 0 1 4 9.17 v 4.16 h 8.17 v -5.67 A 47.08 47.08 0 0 0 39.91 79 c 0.44 0 0.87 0 1.3 -0.05 V 79 a 37.15 37.15 0 0 0 15.72 -3.2 v 5.42 h 8.17 v -5 a 12.79 12.79 0 0 1 3.9 -9.09 c 6.83 -6.76 11.42 -13.9 19 -13.9 v -7.49 H 0 Z');"/>
    <path d="M40.05 20.62a25 25 0 1 1 0 50.1v-50.1z" fill="#d6d6d5" style="height:auto;list-style-type:none;overflow-x:visible;overflow-y:visible;width:auto;perspective-origin:0px 0px;transform-origin:0px 0px;fill:rgb(214, 214, 213);d:path('M 40.05 20.62 a 25 25 0 1 1 0 50.1 v -50.1 Z');"/>
    <path d="M40.05 20.62a25 25 0 1 0 0 50.1v-50.1z" class="illustration-primary-fill" style="height:auto;list-style-type:none;overflow-x:visible;overflow-y:visible;width:auto;perspective-origin:0px 0px;transform-origin:0px 0px;fill:rgb(207, 216, 244);d:path('M 40.05 20.62 a 25 25 0 1 0 0 50.1 v -50.1 Z');"/>
    <path d="M10.91 26.12A10.92 10.92 0 0 1 0 15.21a8.94 8.94 0 0 1 8.93-8.93 7.35 7.35 0 0 1 7.34 7.34 6.08 6.08 0 0 1-6.07 6.08 5.07 5.07 0 0 1-5.06-5.06 4.25 4.25 0 0 1 4.25-4.25v2a2.25 2.25 0 0 0-2.25 2.25 3.06 3.06 0 0 0 3.06 3.06 4.08 4.08 0 0 0 4.08-4.07 5.35 5.35 0 0 0-5.35-5.35A6.94 6.94 0 0 0 2 15.21a8.92 8.92 0 0 0 8.91 8.91v2z" class="illustration-secondary-fill" style="height:auto;list-style-type:none;overflow-x:visible;overflow-y:visible;width:auto;perspective-origin:0px 0px;transform-origin:0px 0px;fill:rgb(84, 56, 200);d:path('M 10.91 26.12 A 10.92 10.92 0 0 1 0 15.21 a 8.94 8.94 0 0 1 8.93 -8.93 a 7.35 7.35 0 0 1 7.34 7.34 a 6.08 6.08 0 0 1 -6.07 6.08 a 5.07 5.07 0 0 1 -5.06 -5.06 a 4.25 4.25 0 0 1 4.25 -4.25 v 2 a 2.25 2.25 0 0 0 -2.25 2.25 a 3.06 3.06 0 0 0 3.06 3.06 a 4.08 4.08 0 0 0 4.08 -4.07 a 5.35 5.35 0 0 0 -5.35 -5.35 A 6.94 6.94 0 0 0 2 15.21 a 8.92 8.92 0 0 0 8.91 8.91 v 2 Z');"/>
    <path d="M46.38 55.77H29.17v-2h17.21a3.55 3.55 0 1 0 0-7.1H33.72a5.55 5.55 0 0 1 0-11.1h17.21v2H33.72a3.55 3.55 0 0 0 0 7.1h12.66a5.55 5.55 0 1 1 0 11.1z" style="height:auto;list-style-type:none;overflow-x:visible;overflow-y:visible;width:auto;perspective-origin:0px 0px;transform-origin:0px 0px;d:path('M 46.38 55.77 H 29.17 v -2 h 17.21 a 3.55 3.55 0 1 0 0 -7.1 H 33.72 a 5.55 5.55 0 0 1 0 -11.1 h 17.21 v 2 H 33.72 a 3.55 3.55 0 0 0 0 7.1 h 12.66 a 5.55 5.55 0 1 1 0 11.1 Z');"/>
    <path d="M35.11 26.12h2v38.81h-2zm7.89 0h2v38.81h-2z" style="height:auto;list-style-type:none;overflow-x:visible;overflow-y:visible;width:auto;perspective-origin:0px 0px;transform-origin:0px 0px;d:path('M 35.11 26.12 h 2 v 38.81 h -2 Z m 7.89 0 h 2 v 38.81 h -2 Z');"/>
</svg>