<?xml version="1.0" standalone="no"?><!DOCTYPE svg PUBLIC "-//W3C//DTD SVG 1.1//EN" "http://www.w3.org/Graphics/SVG/1.1/DTD/svg11.dtd"><svg data-name="Layer 1" viewBox="0 0 144 144" height="144" width="144" style="display:block;height:120px;list-style-type:none;width:120px;perspective-origin:60px 60px;transform-origin:60px 60px;" version="1.1" xmlns="http://www.w3.org/2000/svg" xmlns:xlink="http://www.w3.org/1999/xlink"><title xmlns="http://www.w3.org/1999/xhtml" style="display:none;height:auto;list-style-type:none;overflow-x:visible;overflow-y:visible;width:auto;perspective-origin:50% 50%;transform-origin:50% 50%;">Decorative Illustration</title><desc xmlns="http://www.w3.org/1999/xhtml" style="height:auto;list-style-type:none;overflow-x:visible;overflow-y:visible;width:auto;perspective-origin:50% 50%;transform-origin:50% 50%;">Decorative Illustration</desc>
    <defs style="height:auto;list-style-type:none;overflow-x:visible;overflow-y:visible;width:auto;perspective-origin:0px 0px;transform-origin:0px 0px;">
        <pattern id="a___1458686493" data-name="SVGID 1" width="4" height="4" patternTransform="matrix(1.6 0 0 1.6 5197.6 21823)" patternUnits="userSpaceOnUse" viewBox="0 0 4 4" style="height:auto;list-style-type:none;width:auto;perspective-origin:0px 0px;transform:matrix(1.6, 0, 0, 1.6, 5197.6, 21823);transform-origin:0px 0px;">
            <path fill="none" d="M0 0h4v4H0z" style="height:auto;list-style-type:none;overflow-x:visible;overflow-y:visible;width:auto;perspective-origin:0px 0px;transform-origin:0px 0px;fill:none;d:path('M 0 0 h 4 v 4 H 0 Z');"/>
            <path fill="none" d="M0 0h4v4H0z" style="height:auto;list-style-type:none;overflow-x:visible;overflow-y:visible;width:auto;perspective-origin:0px 0px;transform-origin:0px 0px;fill:none;d:path('M 0 0 h 4 v 4 H 0 Z');"/>
            <path fill="none" d="M0 0h4v4H0z" style="height:auto;list-style-type:none;overflow-x:visible;overflow-y:visible;width:auto;perspective-origin:0px 0px;transform-origin:0px 0px;fill:none;d:path('M 0 0 h 4 v 4 H 0 Z');"/>
            <path d="M0 0h2v2H0z" style="height:auto;list-style-type:none;overflow-x:visible;overflow-y:visible;width:auto;perspective-origin:0px 0px;transform-origin:0px 0px;d:path('M 0 0 h 2 v 2 H 0 Z');"/>
        </pattern>
    </defs>
    <path d="M33.7 15.7A54.36 54.36 0 0 0 72-.1a54.36 54.36 0 0 0 38.3 15.8h11.9V74a47.53 47.53 0 0 1-13.9 33.6L72 143.9l-36.2-36.3A47.53 47.53 0 0 1 21.9 74V15.7z" fill="#d6d6d5" style="height:auto;list-style-type:none;overflow-x:visible;overflow-y:visible;width:auto;perspective-origin:0px 0px;transform-origin:0px 0px;fill:rgb(214, 214, 213);d:path('M 33.7 15.7 A 54.36 54.36 0 0 0 72 -0.1 a 54.36 54.36 0 0 0 38.3 15.8 h 11.9 V 74 a 47.53 47.53 0 0 1 -13.9 33.6 L 72 143.9 l -36.2 -36.3 A 47.53 47.53 0 0 1 21.9 74 V 15.7 Z');"/>
    <path d="M21.8 74V15.7h11.9A54.19 54.19 0 0 0 72-.1v144l-36.2-36.3a47.21 47.21 0 0 1-14-33.6z" fill="url(#a___1458686493)" style="height:auto;list-style-type:none;overflow-x:visible;overflow-y:visible;width:auto;perspective-origin:0px 0px;transform-origin:0px 0px;fill:url(&quot;#a___1458686493&quot;);d:path('M 21.8 74 V 15.7 h 11.9 A 54.19 54.19 0 0 0 72 -0.1 v 144 l -36.2 -36.3 a 47.21 47.21 0 0 1 -14 -33.6 Z');"/>
    <path d="M99.2 98.6A34.91 34.91 0 0 0 109.4 74V28.5H34.6V74a34.49 34.49 0 0 0 10.2 24.6L72 125.8z" class="illustration-secondary-fill" style="height:auto;list-style-type:none;overflow-x:visible;overflow-y:visible;width:auto;perspective-origin:0px 0px;transform-origin:0px 0px;fill:rgb(84, 56, 200);d:path('M 99.2 98.6 A 34.91 34.91 0 0 0 109.4 74 V 28.5 H 34.6 V 74 a 34.49 34.49 0 0 0 10.2 24.6 L 72 125.8 Z');"/>
    <path d="M72 43.3a25.4 25.4 0 1 0 0 50.8z" class="illustration-primary-fill" style="height:auto;list-style-type:none;overflow-x:visible;overflow-y:visible;width:auto;perspective-origin:0px 0px;transform-origin:0px 0px;fill:rgb(207, 216, 244);d:path('M 72 43.3 a 25.4 25.4 0 1 0 0 50.8 Z');"/>
    <path d="M72 43.3a25.4 25.4 0 1 0 0 50.8z" fill="url(#a___1458686493)" style="height:auto;list-style-type:none;overflow-x:visible;overflow-y:visible;width:auto;perspective-origin:0px 0px;transform-origin:0px 0px;fill:url(&quot;#a___1458686493&quot;);d:path('M 72 43.3 a 25.4 25.4 0 1 0 0 50.8 Z');"/>
    <path d="M72 43.3a25.4 25.4 0 1 1 0 50.8z" style="height:auto;list-style-type:none;overflow-x:visible;overflow-y:visible;width:auto;perspective-origin:0px 0px;transform-origin:0px 0px;d:path('M 72 43.3 a 25.4 25.4 0 1 1 0 50.8 Z');"/>
</svg>