<?xml version="1.0" standalone="no"?><!DOCTYPE svg PUBLIC "-//W3C//DTD SVG 1.1//EN" "http://www.w3.org/Graphics/SVG/1.1/DTD/svg11.dtd"><svg data-name="Layer 1" viewBox="0 0 88 88" height="88" width="88" style="display:block;height:120px;list-style-type:none;width:120px;perspective-origin:60px 60px;transform-origin:60px 60px;" version="1.1" xmlns="http://www.w3.org/2000/svg" xmlns:xlink="http://www.w3.org/1999/xlink"><title xmlns="http://www.w3.org/1999/xhtml" style="display:none;height:auto;list-style-type:none;overflow-x:visible;overflow-y:visible;width:auto;perspective-origin:50% 50%;transform-origin:50% 50%;">Decorative Illustration</title><desc xmlns="http://www.w3.org/1999/xhtml" style="height:auto;list-style-type:none;overflow-x:visible;overflow-y:visible;width:auto;perspective-origin:50% 50%;transform-origin:50% 50%;">Decorative Illustration</desc>
    <defs style="height:auto;list-style-type:none;overflow-x:visible;overflow-y:visible;width:auto;perspective-origin:0px 0px;transform-origin:0px 0px;">
        <clipPath id="a___1159461306" style="height:auto;list-style-type:none;overflow-x:visible;overflow-y:visible;width:auto;perspective-origin:0px 0px;transform-origin:0px 0px;">
            <path fill="none" d="M22.68 48.37l24.98 24.98V88H22.68V48.37z" style="height:auto;list-style-type:none;overflow-x:visible;overflow-y:visible;width:auto;perspective-origin:0px 0px;transform-origin:0px 0px;fill:none;d:path('M 22.68 48.37 l 24.98 24.98 V 88 H 22.68 V 48.37 Z');"/>
        </clipPath>
        <clipPath id="b___1159461306" style="height:auto;list-style-type:none;overflow-x:visible;overflow-y:visible;width:auto;perspective-origin:0px 0px;transform-origin:0px 0px;">
            <path fill="none" d="M57.36 45.62L82.33 70.6V88H57.36V45.62z" style="height:auto;list-style-type:none;overflow-x:visible;overflow-y:visible;width:auto;perspective-origin:0px 0px;transform-origin:0px 0px;fill:none;d:path('M 57.36 45.62 L 82.33 70.6 V 88 H 57.36 V 45.62 Z');"/>
        </clipPath>
        <pattern id="c___1159461306" data-name="2x3 - Black" width="5" height="5" patternTransform="matrix(.7 0 0 .7 4.5 2.3)" patternUnits="userSpaceOnUse" viewBox="0 0 5 5" style="height:auto;list-style-type:none;width:auto;perspective-origin:0px 0px;transform:matrix(0.7, 0, 0, 0.7, 4.5, 2.3);transform-origin:0px 0px;">
            <path fill="none" d="M0 0h5v5H0z" style="height:auto;list-style-type:none;overflow-x:visible;overflow-y:visible;width:auto;perspective-origin:0px 0px;transform-origin:0px 0px;fill:none;d:path('M 0 0 h 5 v 5 H 0 Z');"/>
            <path d="M0 0h2v2H0z" style="height:auto;list-style-type:none;overflow-x:visible;overflow-y:visible;width:auto;perspective-origin:0px 0px;transform-origin:0px 0px;d:path('M 0 0 h 2 v 2 H 0 Z');"/>
        </pattern>
    </defs>
    <path fill="#fff" d="M0 48.37h11.34V88H0z" style="height:auto;list-style-type:none;overflow-x:visible;overflow-y:visible;width:auto;perspective-origin:0px 0px;transform-origin:0px 0px;fill:rgb(255, 255, 255);d:path('M 0 48.37 h 11.34 V 88 H 0 Z');"/>
    <path d="M12.04 28.92h5.79v2.05h-5.79z" style="height:auto;list-style-type:none;overflow-x:visible;overflow-y:visible;width:auto;perspective-origin:0px 0px;transform-origin:0px 0px;d:path('M 12.04 28.92 h 5.79 v 2.05 h -5.79 Z');"/>
    <path class="illustration-primary-fill" d="M11.34 48.37h11.34V88H11.34z" style="height:auto;list-style-type:none;overflow-x:visible;overflow-y:visible;width:auto;perspective-origin:0px 0px;transform-origin:0px 0px;fill:rgb(207, 216, 244);d:path('M 11.34 48.37 h 11.34 V 88 H 11.34 Z');"/>
    <path fill="#d6d6d5" d="M11.34 37.03L0 48.37h11.34V37.03" style="height:auto;list-style-type:none;overflow-x:visible;overflow-y:visible;width:auto;perspective-origin:0px 0px;transform-origin:0px 0px;fill:rgb(214, 214, 213);d:path('M 11.34 37.03 L 0 48.37 h 11.34 V 37.03');"/>
    <path class="illustration-secondary-fill" d="M11.34 37.03l11.34 11.34H11.34V37.03" style="height:auto;list-style-type:none;overflow-x:visible;overflow-y:visible;width:auto;perspective-origin:0px 0px;transform-origin:0px 0px;fill:rgb(84, 56, 200);d:path('M 11.34 37.03 l 11.34 11.34 H 11.34 V 37.03');"/>
    <path class="illustration-primary-fill" d="M45.15 12.12H64.4V88H45.15zm34.88 21.63h7.96V88h-7.96z" style="height:auto;list-style-type:none;overflow-x:visible;overflow-y:visible;width:auto;perspective-origin:0px 0px;transform-origin:0px 0px;fill:rgb(207, 216, 244);d:path('M 45.15 12.12 H 64.4 V 88 H 45.15 Z m 34.88 21.63 h 7.96 V 88 h -7.96 Z');"/>
    <path fill="#fff" d="M22.68 12.12h22.47V88H22.68z" style="height:auto;list-style-type:none;overflow-x:visible;overflow-y:visible;width:auto;perspective-origin:0px 0px;transform-origin:0px 0px;fill:rgb(255, 255, 255);d:path('M 22.68 12.12 h 22.47 V 88 H 22.68 Z');"/>
    <path class="illustration-primary-fill" d="M22.68 48.37l24.98 24.98V88H22.68V48.37" style="height:auto;list-style-type:none;overflow-x:visible;overflow-y:visible;width:auto;perspective-origin:0px 0px;transform-origin:0px 0px;fill:rgb(207, 216, 244);d:path('M 22.68 48.37 l 24.98 24.98 V 88 H 22.68 V 48.37');"/>
    <path fill="#d6d6d5" d="M39.71 14.58h1.41V88h-1.41zm-3.35 0h1.41V88h-1.41zm-3.34 0h1.41V88h-1.41zm-3.34 0h1.41V88h-1.41zm-3.35 0h1.41V88h-1.41z" style="height:auto;list-style-type:none;overflow-x:visible;overflow-y:visible;width:auto;perspective-origin:0px 0px;transform-origin:0px 0px;fill:rgb(214, 214, 213);d:path('M 39.71 14.58 h 1.41 V 88 h -1.41 Z m -3.35 0 h 1.41 V 88 h -1.41 Z m -3.34 0 h 1.41 V 88 h -1.41 Z m -3.34 0 h 1.41 V 88 h -1.41 Z m -3.35 0 h 1.41 V 88 h -1.41 Z');"/>
    <g clip-path="url(#a___1159461306)" class="illustration-secondary-fill" style="height:auto;list-style-type:none;overflow-x:visible;overflow-y:visible;width:auto;perspective-origin:0px 0px;transform-origin:0px 0px;clip-path:url(&quot;#a___1159461306&quot;);fill:rgb(84, 56, 200);">
        <path d="M39.71 14.58h1.41V88h-1.41zm-3.35 0h1.41V88h-1.41zm-3.34 0h1.41V88h-1.41zm-3.34 0h1.41V88h-1.41zm-3.35 0h1.41V88h-1.41z" style="height:auto;list-style-type:none;overflow-x:visible;overflow-y:visible;width:auto;perspective-origin:0px 0px;transform-origin:0px 0px;fill:rgb(84, 56, 200);d:path('M 39.71 14.58 h 1.41 V 88 h -1.41 Z m -3.35 0 h 1.41 V 88 h -1.41 Z m -3.34 0 h 1.41 V 88 h -1.41 Z m -3.34 0 h 1.41 V 88 h -1.41 Z m -3.35 0 h 1.41 V 88 h -1.41 Z');"/>
    </g>
    <path class="illustration-secondary-fill" d="M60.87 14.58h1.41V88h-1.41zm-3.34 0h1.41V88h-1.41zm-3.35 0h1.41V88h-1.41zm-3.34 0h1.41V88h-1.41zm-3.35 0h1.41V88h-1.41z" style="height:auto;list-style-type:none;overflow-x:visible;overflow-y:visible;width:auto;perspective-origin:0px 0px;transform-origin:0px 0px;fill:rgb(84, 56, 200);d:path('M 60.87 14.58 h 1.41 V 88 h -1.41 Z m -3.34 0 h 1.41 V 88 h -1.41 Z m -3.35 0 h 1.41 V 88 h -1.41 Z m -3.34 0 h 1.41 V 88 h -1.41 Z m -3.35 0 h 1.41 V 88 h -1.41 Z');"/>
    <path d="M40.78 7.89h14.3a4.22 4.22 0 0 1 4.22 4.22H40.78V7.89z" class="illustration-primary-fill" style="height:auto;list-style-type:none;overflow-x:visible;overflow-y:visible;width:auto;perspective-origin:0px 0px;transform-origin:0px 0px;fill:rgb(207, 216, 244);d:path('M 40.78 7.89 h 14.3 a 4.22 4.22 0 0 1 4.22 4.22 H 40.78 V 7.89 Z');"/>
    <path fill="#fff" d="M57.36 33.75h22.68V88H57.36z" style="height:auto;list-style-type:none;overflow-x:visible;overflow-y:visible;width:auto;perspective-origin:0px 0px;transform-origin:0px 0px;fill:rgb(255, 255, 255);d:path('M 57.36 33.75 h 22.68 V 88 H 57.36 Z');"/>
    <path fill="#fff" d="M57.36 33.75h22.68V88H57.36z" style="height:auto;list-style-type:none;overflow-x:visible;overflow-y:visible;width:auto;perspective-origin:0px 0px;transform-origin:0px 0px;fill:rgb(255, 255, 255);d:path('M 57.36 33.75 h 22.68 V 88 H 57.36 Z');"/>
    <path d="M63.22 47.12h-2.35v-6.46a1.24 1.24 0 0 1 1.13-1.3 1.24 1.24 0 0 1 1.18 1.29v6.47zm5.78 0h-2.36v-6.46a1.24 1.24 0 0 1 1.18-1.29A1.24 1.24 0 0 1 69 40.66v6.47zm5.77 0h-2.36v-6.46a1.24 1.24 0 0 1 1.18-1.29 1.24 1.24 0 0 1 1.18 1.29v6.47zM63.22 59.16h-2.35V52.7A1.24 1.24 0 0 1 62 51.4a1.24 1.24 0 0 1 1.18 1.29v6.47zm5.78 0h-2.36V52.7a1.24 1.24 0 0 1 1.18-1.29A1.24 1.24 0 0 1 69 52.7v6.47zm5.77 0h-2.36V52.7a1.24 1.24 0 0 1 1.18-1.29 1.24 1.24 0 0 1 1.18 1.29v6.47zM63.22 71.2h-2.35v-6.46a1.24 1.24 0 0 1 1.13-1.3 1.24 1.24 0 0 1 1.18 1.29v6.47zm5.78 0h-2.36v-6.46a1.24 1.24 0 0 1 1.18-1.29A1.24 1.24 0 0 1 69 64.74v6.46zm5.77 0h-2.36v-6.46a1.24 1.24 0 0 1 1.18-1.29 1.24 1.24 0 0 1 1.18 1.29v6.46z" fill="#d6d6d5" style="height:auto;list-style-type:none;overflow-x:visible;overflow-y:visible;width:auto;perspective-origin:0px 0px;transform-origin:0px 0px;fill:rgb(214, 214, 213);d:path('M 63.22 47.12 h -2.35 v -6.46 a 1.24 1.24 0 0 1 1.13 -1.3 a 1.24 1.24 0 0 1 1.18 1.29 v 6.47 Z m 5.78 0 h -2.36 v -6.46 a 1.24 1.24 0 0 1 1.18 -1.29 A 1.24 1.24 0 0 1 69 40.66 v 6.47 Z m 5.77 0 h -2.36 v -6.46 a 1.24 1.24 0 0 1 1.18 -1.29 a 1.24 1.24 0 0 1 1.18 1.29 v 6.47 Z M 63.22 59.16 h -2.35 V 52.7 A 1.24 1.24 0 0 1 62 51.4 a 1.24 1.24 0 0 1 1.18 1.29 v 6.47 Z m 5.78 0 h -2.36 V 52.7 a 1.24 1.24 0 0 1 1.18 -1.29 A 1.24 1.24 0 0 1 69 52.7 v 6.47 Z m 5.77 0 h -2.36 V 52.7 a 1.24 1.24 0 0 1 1.18 -1.29 a 1.24 1.24 0 0 1 1.18 1.29 v 6.47 Z M 63.22 71.2 h -2.35 v -6.46 a 1.24 1.24 0 0 1 1.13 -1.3 a 1.24 1.24 0 0 1 1.18 1.29 v 6.47 Z m 5.78 0 h -2.36 v -6.46 a 1.24 1.24 0 0 1 1.18 -1.29 A 1.24 1.24 0 0 1 69 64.74 v 6.46 Z m 5.77 0 h -2.36 v -6.46 a 1.24 1.24 0 0 1 1.18 -1.29 a 1.24 1.24 0 0 1 1.18 1.29 v 6.46 Z');"/>
    <path class="illustration-primary-fill" d="M57.36 45.62L82.33 70.6V88H57.36V45.62" style="height:auto;list-style-type:none;overflow-x:visible;overflow-y:visible;width:auto;perspective-origin:0px 0px;transform-origin:0px 0px;fill:rgb(207, 216, 244);d:path('M 57.36 45.62 L 82.33 70.6 V 88 H 57.36 V 45.62');"/>
    <g clip-path="url(#b___1159461306)" class="illustration-secondary-fill" style="height:auto;list-style-type:none;overflow-x:visible;overflow-y:visible;width:auto;perspective-origin:0px 0px;transform-origin:0px 0px;clip-path:url(&quot;#b___1159461306&quot;);fill:rgb(84, 56, 200);">
        <path d="M63.22 47.12h-2.35v-6.46a1.24 1.24 0 0 1 1.13-1.3 1.24 1.24 0 0 1 1.18 1.29v6.47zm5.78 0h-2.36v-6.46a1.24 1.24 0 0 1 1.18-1.29A1.24 1.24 0 0 1 69 40.66v6.47zm5.77 0h-2.36v-6.46a1.24 1.24 0 0 1 1.18-1.29 1.24 1.24 0 0 1 1.18 1.29v6.47zM63.22 59.16h-2.35V52.7A1.24 1.24 0 0 1 62 51.4a1.24 1.24 0 0 1 1.18 1.29v6.47zm5.78 0h-2.36V52.7a1.24 1.24 0 0 1 1.18-1.29A1.24 1.24 0 0 1 69 52.7v6.47zm5.77 0h-2.36V52.7a1.24 1.24 0 0 1 1.18-1.29 1.24 1.24 0 0 1 1.18 1.29v6.47zM63.22 71.2h-2.35v-6.46a1.24 1.24 0 0 1 1.13-1.3 1.24 1.24 0 0 1 1.18 1.29v6.47zm5.78 0h-2.36v-6.46a1.24 1.24 0 0 1 1.18-1.29A1.24 1.24 0 0 1 69 64.74v6.46zm5.77 0h-2.36v-6.46a1.24 1.24 0 0 1 1.18-1.29 1.24 1.24 0 0 1 1.18 1.29v6.46z" style="height:auto;list-style-type:none;overflow-x:visible;overflow-y:visible;width:auto;perspective-origin:0px 0px;transform-origin:0px 0px;fill:rgb(84, 56, 200);d:path('M 63.22 47.12 h -2.35 v -6.46 a 1.24 1.24 0 0 1 1.13 -1.3 a 1.24 1.24 0 0 1 1.18 1.29 v 6.47 Z m 5.78 0 h -2.36 v -6.46 a 1.24 1.24 0 0 1 1.18 -1.29 A 1.24 1.24 0 0 1 69 40.66 v 6.47 Z m 5.77 0 h -2.36 v -6.46 a 1.24 1.24 0 0 1 1.18 -1.29 a 1.24 1.24 0 0 1 1.18 1.29 v 6.47 Z M 63.22 59.16 h -2.35 V 52.7 A 1.24 1.24 0 0 1 62 51.4 a 1.24 1.24 0 0 1 1.18 1.29 v 6.47 Z m 5.78 0 h -2.36 V 52.7 a 1.24 1.24 0 0 1 1.18 -1.29 A 1.24 1.24 0 0 1 69 52.7 v 6.47 Z m 5.77 0 h -2.36 V 52.7 a 1.24 1.24 0 0 1 1.18 -1.29 a 1.24 1.24 0 0 1 1.18 1.29 v 6.47 Z M 63.22 71.2 h -2.35 v -6.46 a 1.24 1.24 0 0 1 1.13 -1.3 a 1.24 1.24 0 0 1 1.18 1.29 v 6.47 Z m 5.78 0 h -2.36 v -6.46 a 1.24 1.24 0 0 1 1.18 -1.29 A 1.24 1.24 0 0 1 69 64.74 v 6.46 Z m 5.77 0 h -2.36 v -6.46 a 1.24 1.24 0 0 1 1.18 -1.29 a 1.24 1.24 0 0 1 1.18 1.29 v 6.46 Z');"/>
    </g>
    <path fill="#fff" d="M56.34 33.75h23.69v1.41H56.34z" style="height:auto;list-style-type:none;overflow-x:visible;overflow-y:visible;width:auto;perspective-origin:0px 0px;transform-origin:0px 0px;fill:rgb(255, 255, 255);d:path('M 56.34 33.75 h 23.69 v 1.41 H 56.34 Z');"/>
    <path d="M85.19 47.12h-2.36v-6.46a1.24 1.24 0 0 1 1.17-1.3 1.24 1.24 0 0 1 1.18 1.29v6.47zm0 12.04h-2.36V52.7A1.24 1.24 0 0 1 84 51.4a1.24 1.24 0 0 1 1.18 1.29v6.47zm0 12.04h-2.36v-6.46a1.24 1.24 0 0 1 1.17-1.3 1.24 1.24 0 0 1 1.18 1.29v6.47z" class="illustration-secondary-fill" style="height:auto;list-style-type:none;overflow-x:visible;overflow-y:visible;width:auto;perspective-origin:0px 0px;transform-origin:0px 0px;fill:rgb(84, 56, 200);d:path('M 85.19 47.12 h -2.36 v -6.46 a 1.24 1.24 0 0 1 1.17 -1.3 a 1.24 1.24 0 0 1 1.18 1.29 v 6.47 Z m 0 12.04 h -2.36 V 52.7 A 1.24 1.24 0 0 1 84 51.4 a 1.24 1.24 0 0 1 1.18 1.29 v 6.47 Z m 0 12.04 h -2.36 v -6.46 a 1.24 1.24 0 0 1 1.17 -1.3 a 1.24 1.24 0 0 1 1.18 1.29 v 6.47 Z');"/>
    <path fill="#d6d6d5" d="M6.99 54.78H8.4v11.19H6.99zm-4.09 0h1.41v11.19H2.9zm2.75 21.6a2.75 2.75 0 0 0-2.75 2.75V88h5.5v-8.87a2.75 2.75 0 0 0-2.75-2.75z" style="height:auto;list-style-type:none;overflow-x:visible;overflow-y:visible;width:auto;perspective-origin:0px 0px;transform-origin:0px 0px;fill:rgb(214, 214, 213);d:path('M 6.99 54.78 H 8.4 v 11.19 H 6.99 Z m -4.09 0 h 1.41 v 11.19 H 2.9 Z m 2.75 21.6 a 2.75 2.75 0 0 0 -2.75 2.75 V 88 h 5.5 v -8.87 a 2.75 2.75 0 0 0 -2.75 -2.75 Z');"/>
    <path class="illustration-secondary-fill" d="M18.5 54.78h1.41v11.19H18.5zm-4.09 0h1.41v11.19h-1.41zm2.75 21.6a2.75 2.75 0 0 0-2.75 2.75V88h5.5v-8.87a2.75 2.75 0 0 0-2.75-2.75zm-5.82-47.46h1.41v10.44h-1.41z" style="height:auto;list-style-type:none;overflow-x:visible;overflow-y:visible;width:auto;perspective-origin:0px 0px;transform-origin:0px 0px;fill:rgb(84, 56, 200);d:path('M 18.5 54.78 h 1.41 v 11.19 H 18.5 Z m -4.09 0 h 1.41 v 11.19 h -1.41 Z m 2.75 21.6 a 2.75 2.75 0 0 0 -2.75 2.75 V 88 h 5.5 v -8.87 a 2.75 2.75 0 0 0 -2.75 -2.75 Z m -5.82 -47.46 h 1.41 v 10.44 h -1.41 Z');"/>
    <path class="illustration-primary-fill" d="M77.2 30.44h5.16v3.31H77.2z" style="height:auto;list-style-type:none;overflow-x:visible;overflow-y:visible;width:auto;perspective-origin:0px 0px;transform-origin:0px 0px;fill:rgb(207, 216, 244);d:path('M 77.2 30.44 h 5.16 v 3.31 H 77.2 Z');"/>
    <path fill="url(#c___1159461306)" d="M57.36 76.38H88V88H57.36z" style="height:auto;list-style-type:none;overflow-x:visible;overflow-y:visible;width:auto;perspective-origin:0px 0px;transform-origin:0px 0px;fill:url(&quot;#c___1159461306&quot;);d:path('M 57.36 76.38 H 88 V 88 H 57.36 Z');"/>
</svg>