<?xml version="1.0" standalone="no"?><!DOCTYPE svg PUBLIC "-//W3C//DTD SVG 1.1//EN" "http://www.w3.org/Graphics/SVG/1.1/DTD/svg11.dtd"><svg data-name="Layer 1" viewBox="0 0 1560 197" height="197" width="1560" preserveAspectRatio="xMinYMax meet" style="display:block;height:197px;width:1560px;perspective-origin:780px 98.5px;transform-origin:780px 98.5px;" version="1.1" xmlns="http://www.w3.org/2000/svg" xmlns:xlink="http://www.w3.org/1999/xlink"><title xmlns="http://www.w3.org/1999/xhtml" style="display:none;height:auto;overflow-x:visible;overflow-y:visible;width:auto;perspective-origin:50% 50%;transform-origin:50% 50%;">Decorative Illustration</title><desc xmlns="http://www.w3.org/1999/xhtml" style="height:auto;overflow-x:visible;overflow-y:visible;width:auto;perspective-origin:50% 50%;transform-origin:50% 50%;">Decorative Illustration</desc>
    <defs style="height:auto;overflow-x:visible;overflow-y:visible;width:auto;perspective-origin:0px 0px;transform-origin:0px 0px;">
        <pattern id="a___158299696" data-name="2 3 - black" width="5" height="5" patternTransform="translate(726 27)" patternUnits="userSpaceOnUse" viewBox="0 0 5 5" style="height:auto;width:auto;perspective-origin:0px 0px;transform:matrix(1, 0, 0, 1, 726, 27);transform-origin:0px 0px;">
            <path fill="none" d="M0 0h5v5H0z" style="height:auto;overflow-x:visible;overflow-y:visible;width:auto;perspective-origin:0px 0px;transform-origin:0px 0px;fill:none;d:path('M 0 0 h 5 v 5 H 0 Z');"/>
            <path fill="none" d="M0 0h5v5H0z" style="height:auto;overflow-x:visible;overflow-y:visible;width:auto;perspective-origin:0px 0px;transform-origin:0px 0px;fill:none;d:path('M 0 0 h 5 v 5 H 0 Z');"/>
            <path fill="none" d="M0 0h5v5H0V0z" style="height:auto;overflow-x:visible;overflow-y:visible;width:auto;perspective-origin:0px 0px;transform-origin:0px 0px;fill:none;d:path('M 0 0 h 5 v 5 H 0 V 0 Z');"/>
            <path d="M2 2H0V0h2v2z" style="height:auto;overflow-x:visible;overflow-y:visible;width:auto;perspective-origin:0px 0px;transform-origin:0px 0px;d:path('M 2 2 H 0 V 0 h 2 v 2 Z');"/>
        </pattern>
        <pattern id="b___158299696" data-name="SVGID 1" width="5" height="5" patternTransform="translate(841.4 310.4)" patternUnits="userSpaceOnUse" viewBox="0 0 5 5" style="height:auto;width:auto;perspective-origin:0px 0px;transform:matrix(1, 0, 0, 1, 841.4, 310.4);transform-origin:0px 0px;">
            <path fill="none" d="M0 0h5v5H0z" style="height:auto;overflow-x:visible;overflow-y:visible;width:auto;perspective-origin:0px 0px;transform-origin:0px 0px;fill:none;d:path('M 0 0 h 5 v 5 H 0 Z');"/>
            <path fill="none" d="M0 0h5v5H0z" style="height:auto;overflow-x:visible;overflow-y:visible;width:auto;perspective-origin:0px 0px;transform-origin:0px 0px;fill:none;d:path('M 0 0 h 5 v 5 H 0 Z');"/>
            <path fill="none" d="M0 0h5v5H0V0z" style="height:auto;overflow-x:visible;overflow-y:visible;width:auto;perspective-origin:0px 0px;transform-origin:0px 0px;fill:none;d:path('M 0 0 h 5 v 5 H 0 V 0 Z');"/>
            <path d="M2 2H0V0h2v2z" style="height:auto;overflow-x:visible;overflow-y:visible;width:auto;perspective-origin:0px 0px;transform-origin:0px 0px;d:path('M 2 2 H 0 V 0 h 2 v 2 Z');"/>
        </pattern>
        <pattern id="c___158299696" data-name="2 3 - black" width="5" height="5" patternTransform="translate(726 30)" patternUnits="userSpaceOnUse" viewBox="0 0 5 5" style="height:auto;width:auto;perspective-origin:0px 0px;transform:matrix(1, 0, 0, 1, 726, 30);transform-origin:0px 0px;">
            <path fill="none" d="M0 0h5v5H0z" style="height:auto;overflow-x:visible;overflow-y:visible;width:auto;perspective-origin:0px 0px;transform-origin:0px 0px;fill:none;d:path('M 0 0 h 5 v 5 H 0 Z');"/>
            <path fill="none" d="M0 0h5v5H0z" style="height:auto;overflow-x:visible;overflow-y:visible;width:auto;perspective-origin:0px 0px;transform-origin:0px 0px;fill:none;d:path('M 0 0 h 5 v 5 H 0 Z');"/>
            <path fill="none" d="M0 0h5v5H0V0z" style="height:auto;overflow-x:visible;overflow-y:visible;width:auto;perspective-origin:0px 0px;transform-origin:0px 0px;fill:none;d:path('M 0 0 h 5 v 5 H 0 V 0 Z');"/>
            <path d="M2 2H0V0h2v2z" style="height:auto;overflow-x:visible;overflow-y:visible;width:auto;perspective-origin:0px 0px;transform-origin:0px 0px;d:path('M 2 2 H 0 V 0 h 2 v 2 Z');"/>
        </pattern>
    </defs>
    <path d="M1498.22 54H1361.5a5.5 5.5 0 0 1 0-11h50.6a23.92 23.92 0 0 0 16.9-7 23.92 23.92 0 0 1 16.9-7h19.33a194.76 194.76 0 0 0-100.59-28H1137c-11.9 0-23.2 3.9-32 12a49.47 49.47 0 0 1-32.8 13H969.9c-22.3 0-43.1 7.5-58.9 22s-37.7 23-60 23H720a137.73 137.73 0 0 0-94 37c-26.1 24.4-61.8 38-98.9 38H510c-26.2 0-50.7 10.2-70 28l-26 23h1146a195.13 195.13 0 0 0-61.78-143zM1297 66a17 17 0 1 1 17-17 17 17 0 0 1-17 17zm162 34h-112a5 5 0 0 1 0-10h15.3a30.48 30.48 0 0 0 21.7-9 30.66 30.66 0 0 1 21.7-9h53.3a14 14 0 0 1 0 28z" class="illustration-tertiary-fill" style="height:auto;overflow-x:visible;overflow-y:visible;width:auto;perspective-origin:0px 0px;transform-origin:0px 0px;fill:rgb(32, 17, 99);d:path('M 1498.22 54 H 1361.5 a 5.5 5.5 0 0 1 0 -11 h 50.6 a 23.92 23.92 0 0 0 16.9 -7 a 23.92 23.92 0 0 1 16.9 -7 h 19.33 a 194.76 194.76 0 0 0 -100.59 -28 H 1137 c -11.9 0 -23.2 3.9 -32 12 a 49.47 49.47 0 0 1 -32.8 13 H 969.9 c -22.3 0 -43.1 7.5 -58.9 22 s -37.7 23 -60 23 H 720 a 137.73 137.73 0 0 0 -94 37 c -26.1 24.4 -61.8 38 -98.9 38 H 510 c -26.2 0 -50.7 10.2 -70 28 l -26 23 h 1146 a 195.13 195.13 0 0 0 -61.78 -143 Z M 1297 66 a 17 17 0 1 1 17 -17 a 17 17 0 0 1 -17 17 Z m 162 34 h -112 a 5 5 0 0 1 0 -10 h 15.3 a 30.48 30.48 0 0 0 21.7 -9 a 30.66 30.66 0 0 1 21.7 -9 h 53.3 a 14 14 0 0 1 0 28 Z');"/>
    <path d="M1536 173a148 148 0 0 0-104-43h-111v67h239zm-613-21h-17v-38a73.89 73.89 0 0 0 17-2v40zm271-80a125.64 125.64 0 0 1 90 37.2V153h-90V72zm-172-1v14l-14-14h14zM574 197h-45c16.4 0 31.9-5.6 45-15v15z" style="height:auto;overflow-x:visible;overflow-y:visible;width:auto;perspective-origin:0px 0px;transform-origin:0px 0px;d:path('M 1536 173 a 148 148 0 0 0 -104 -43 h -111 v 67 h 239 Z m -613 -21 h -17 v -38 a 73.89 73.89 0 0 0 17 -2 v 40 Z m 271 -80 a 125.64 125.64 0 0 1 90 37.2 V 153 h -90 V 72 Z m -172 -1 v 14 l -14 -14 h 14 Z M 574 197 h -45 c 16.4 0 31.9 -5.6 45 -15 v 15 Z');"/>
    <path fill="#fff" d="M840 32v9h-10v156h48V42h5V32h-43zm115 120h-67l45 45h22v-45zm-32-61h32v61h-32z" style="height:auto;overflow-x:visible;overflow-y:visible;width:auto;perspective-origin:0px 0px;transform-origin:0px 0px;fill:rgb(255, 255, 255);d:path('M 840 32 v 9 h -10 v 156 h 48 V 42 h 5 V 32 h -43 Z m 115 120 h -67 l 45 45 h 22 v -45 Z m -32 -61 h 32 v 61 h -32 Z');"/>
    <path fill="#d6d6d6" d="M928 98h27v2h-27zm0 6h27v2h-27zm0 6h27v2h-27zm0 6h27v2h-27zm0 6h27v2h-27zm0 6h27v2h-27zm0 6h27v2h-27zm0 6h27v2h-27z" style="height:auto;overflow-x:visible;overflow-y:visible;width:auto;perspective-origin:0px 0px;transform-origin:0px 0px;fill:rgb(214, 214, 214);d:path('M 928 98 h 27 v 2 h -27 Z m 0 6 h 27 v 2 h -27 Z m 0 6 h 27 v 2 h -27 Z m 0 6 h 27 v 2 h -27 Z m 0 6 h 27 v 2 h -27 Z m 0 6 h 27 v 2 h -27 Z m 0 6 h 27 v 2 h -27 Z m 0 6 h 27 v 2 h -27 Z');"/>
    <path fill="#fff" d="M932 85h36v6h-36z" style="height:auto;overflow-x:visible;overflow-y:visible;width:auto;perspective-origin:0px 0px;transform-origin:0px 0px;fill:rgb(255, 255, 255);d:path('M 932 85 h 36 v 6 h -36 Z');"/>
    <path class="illustration-primary-fill" d="M932 85l19-19h17v19h-36z" style="height:auto;overflow-x:visible;overflow-y:visible;width:auto;perspective-origin:0px 0px;transform-origin:0px 0px;fill:rgb(207, 216, 244);d:path('M 932 85 l 19 -19 h 17 v 19 h -36 Z');"/>
    <path class="illustration-secondary-fill" d="M1022 85l-19-19h-35v19h54z" style="height:auto;overflow-x:visible;overflow-y:visible;width:auto;perspective-origin:0px 0px;transform-origin:0px 0px;fill:rgb(84, 56, 200);d:path('M 1022 85 l -19 -19 h -35 v 19 h 54 Z');"/>
    <path class="illustration-primary-fill" d="M979 79v-6h-6l6 6zm13 0v-6h-6l6 6zm13 0v-6h-6l6 6z" style="height:auto;overflow-x:visible;overflow-y:visible;width:auto;perspective-origin:0px 0px;transform-origin:0px 0px;fill:rgb(207, 216, 244);d:path('M 979 79 v -6 h -6 l 6 6 Z m 13 0 v -6 h -6 l 6 6 Z m 13 0 v -6 h -6 l 6 6 Z');"/>
    <path fill="#fff" d="M951 63h17v3h-17zm104 107l-55-55h55v55z" style="height:auto;overflow-x:visible;overflow-y:visible;width:auto;perspective-origin:0px 0px;transform-origin:0px 0px;fill:rgb(255, 255, 255);d:path('M 951 63 h 17 v 3 h -17 Z m 104 107 l -55 -55 h 55 v 55 Z');"/>
    <path fill="#d6d6d6" d="M1045 121h2v7h-2zm-8 0h2v7h-2zm-8 0h2v7h-2zm16 13h2v7h-2zm-8 0h2v7h-2zm-8 0h2v7h-2zm16 13h2v7h-2zm-14 1l-1-1h1v1zm8 6h-1l-1-1v-6h2v7z" style="height:auto;overflow-x:visible;overflow-y:visible;width:auto;perspective-origin:0px 0px;transform-origin:0px 0px;fill:rgb(214, 214, 214);d:path('M 1045 121 h 2 v 7 h -2 Z m -8 0 h 2 v 7 h -2 Z m -8 0 h 2 v 7 h -2 Z m 16 13 h 2 v 7 h -2 Z m -8 0 h 2 v 7 h -2 Z m -8 0 h 2 v 7 h -2 Z m 16 13 h 2 v 7 h -2 Z m -14 1 l -1 -1 h 1 v 1 Z m 8 6 h -1 l -1 -1 v -6 h 2 v 7 Z');"/>
    <path class="illustration-secondary-fill" d="M679 140h21v8h-21zm0-14h21v8h-21zm0-14h21v8h-21zm0-14v8h24l-8-8h-16z" style="height:auto;overflow-x:visible;overflow-y:visible;width:auto;perspective-origin:0px 0px;transform-origin:0px 0px;fill:rgb(84, 56, 200);d:path('M 679 140 h 21 v 8 h -21 Z m 0 -14 h 21 v 8 h -21 Z m 0 -14 h 21 v 8 h -21 Z m 0 -14 v 8 h 24 l -8 -8 h -16 Z');"/>
    <path fill="#d6d6d6" d="M679 134h21v6h-21zm0-14h21v6h-21zm0-14h17v6h-17z" style="height:auto;overflow-x:visible;overflow-y:visible;width:auto;perspective-origin:0px 0px;transform-origin:0px 0px;fill:rgb(214, 214, 214);d:path('M 679 134 h 21 v 6 h -21 Z m 0 -14 h 21 v 6 h -21 Z m 0 -14 h 17 v 6 h -17 Z');"/>
    <path class="illustration-primary-fill" d="M679 140v8h-55l8-8h47zm0-14v8h-44l8-8h36zm0-14v8h-35l8-8h27zm0-14v8h-25l8-8h17z" style="height:auto;overflow-x:visible;overflow-y:visible;width:auto;perspective-origin:0px 0px;transform-origin:0px 0px;fill:rgb(207, 216, 244);d:path('M 679 140 v 8 h -55 l 8 -8 h 47 Z m 0 -14 v 8 h -44 l 8 -8 h 36 Z m 0 -14 v 8 h -35 l 8 -8 h 27 Z m 0 -14 v 8 h -25 l 8 -8 h 17 Z');"/>
    <path fill="#fff" d="M643 134h36v6h-36zm9-14h27v6h-27zm10-14h17v6h-17zm634 87l-40-40h-10v-38h50v78z" style="height:auto;overflow-x:visible;overflow-y:visible;width:auto;perspective-origin:0px 0px;transform-origin:0px 0px;fill:rgb(255, 255, 255);d:path('M 643 134 h 36 v 6 h -36 Z m 9 -14 h 27 v 6 h -27 Z m 10 -14 h 17 v 6 h -17 Z m 634 87 l -40 -40 h -10 v -38 h 50 v 78 Z');"/>
    <path class="illustration-secondary-fill" d="M1296 107v8h26l-8-8h-18z" style="height:auto;overflow-x:visible;overflow-y:visible;width:auto;perspective-origin:0px 0px;transform-origin:0px 0px;fill:rgb(84, 56, 200);d:path('M 1296 107 v 8 h 26 l -8 -8 h -18 Z');"/>
    <path class="illustration-primary-fill" d="M1296 107v8h-50l8.4-8h41.6z" style="height:auto;overflow-x:visible;overflow-y:visible;width:auto;perspective-origin:0px 0px;transform-origin:0px 0px;fill:rgb(207, 216, 244);d:path('M 1296 107 v 8 h -50 l 8.4 -8 h 41.6 Z');"/>
    <path fill="#d6d6d6" d="M1290 120h2v7h-2zm-8 0h2v7h-2zm-8 0h2v7h-2zm-8 0h2v7h-2zm-8 0h2v7h-2zm-8 0h2v7h-2zm40 13h2v7h-2zm-8 0h2v7h-2zm-8 0h2v7h-2zm-8 0h2v7h-2zm-8 0h2v7h-2zm-8 0h2v7h-2zm40 13h2v7h-2zm-8 0h2v7h-2zm-8 0h2v7h-2zm-8 0h2v7h-2zm-8 0h2v7h-2zm-8 0h2v7h-2zm-494 16h74v35h-74z" style="height:auto;overflow-x:visible;overflow-y:visible;width:auto;perspective-origin:0px 0px;transform-origin:0px 0px;fill:rgb(214, 214, 214);d:path('M 1290 120 h 2 v 7 h -2 Z m -8 0 h 2 v 7 h -2 Z m -8 0 h 2 v 7 h -2 Z m -8 0 h 2 v 7 h -2 Z m -8 0 h 2 v 7 h -2 Z m -8 0 h 2 v 7 h -2 Z m 40 13 h 2 v 7 h -2 Z m -8 0 h 2 v 7 h -2 Z m -8 0 h 2 v 7 h -2 Z m -8 0 h 2 v 7 h -2 Z m -8 0 h 2 v 7 h -2 Z m -8 0 h 2 v 7 h -2 Z m 40 13 h 2 v 7 h -2 Z m -8 0 h 2 v 7 h -2 Z m -8 0 h 2 v 7 h -2 Z m -8 0 h 2 v 7 h -2 Z m -8 0 h 2 v 7 h -2 Z m -8 0 h 2 v 7 h -2 Z m -494 16 h 74 v 35 h -74 Z');"/>
    <path fill="url(#a___158299696)" d="M756 162h74v35h-74z" style="height:auto;overflow-x:visible;overflow-y:visible;width:auto;perspective-origin:0px 0px;transform-origin:0px 0px;fill:url(&quot;#a___158299696&quot;);d:path('M 756 162 h 74 v 35 h -74 Z');"/>
    <path d="M756 32v48h-17v6h-25a14 14 0 0 0-14 14v97h56V86h32V0zm212 17h2v14h-2z" fill="#fff" style="height:auto;overflow-x:visible;overflow-y:visible;width:auto;perspective-origin:0px 0px;transform-origin:0px 0px;fill:rgb(255, 255, 255);d:path('M 756 32 v 48 h -17 v 6 h -25 a 14 14 0 0 0 -14 14 v 97 h 56 V 86 h 32 V 0 Z m 212 17 h 2 v 14 h -2 Z');"/>
    <path class="illustration-secondary-fill" d="M970 49h6v2h-6z" style="height:auto;overflow-x:visible;overflow-y:visible;width:auto;perspective-origin:0px 0px;transform-origin:0px 0px;fill:rgb(84, 56, 200);d:path('M 970 49 h 6 v 2 h -6 Z');"/>
    <path fill="#fff" d="M985 49h2v14h-2z" style="height:auto;overflow-x:visible;overflow-y:visible;width:auto;perspective-origin:0px 0px;transform-origin:0px 0px;fill:rgb(255, 255, 255);d:path('M 985 49 h 2 v 14 h -2 Z');"/>
    <path class="illustration-secondary-fill" d="M987 49h6v2h-6z" style="height:auto;overflow-x:visible;overflow-y:visible;width:auto;perspective-origin:0px 0px;transform-origin:0px 0px;fill:rgb(84, 56, 200);d:path('M 987 49 h 6 v 2 h -6 Z');"/>
    <path fill="#fff" d="M1001 49h2v14h-2z" style="height:auto;overflow-x:visible;overflow-y:visible;width:auto;perspective-origin:0px 0px;transform-origin:0px 0px;fill:rgb(255, 255, 255);d:path('M 1001 49 h 2 v 14 h -2 Z');"/>
    <path class="illustration-secondary-fill" d="M1003 49h6v2h-6z" style="height:auto;overflow-x:visible;overflow-y:visible;width:auto;perspective-origin:0px 0px;transform-origin:0px 0px;fill:rgb(84, 56, 200);d:path('M 1003 49 h 6 v 2 h -6 Z');"/>
    <path fill="#d6d6d6" d="M749 167h2v7h-2zm-8 0h2v7h-2zm-8 0h2v7h-2zm16 13h2v7h-2zm-8 0h2v7h-2zm-8 0h2v7h-2zm155-28h18V42h-5V32h-18v10h-5v155h55l-45-45z" style="height:auto;overflow-x:visible;overflow-y:visible;width:auto;perspective-origin:0px 0px;transform-origin:0px 0px;fill:rgb(214, 214, 214);d:path('M 749 167 h 2 v 7 h -2 Z m -8 0 h 2 v 7 h -2 Z m -8 0 h 2 v 7 h -2 Z m 16 13 h 2 v 7 h -2 Z m -8 0 h 2 v 7 h -2 Z m -8 0 h 2 v 7 h -2 Z m 155 -28 h 18 V 42 h -5 V 32 h -18 v 10 h -5 v 155 h 55 l -45 -45 Z');"/>
    <path fill="url(#b___158299696)" d="M603 148h41v49h-41z" style="height:auto;overflow-x:visible;overflow-y:visible;width:auto;perspective-origin:0px 0px;transform-origin:0px 0px;fill:url(&quot;#b___158299696&quot;);d:path('M 603 148 h 41 v 49 h -41 Z');"/>
    <path fill="#d6d6d6" d="M603 148v49h97v-49h-97zM840 18h2v14h-2zm6 0h2v14h-2z" style="height:auto;overflow-x:visible;overflow-y:visible;width:auto;perspective-origin:0px 0px;transform-origin:0px 0px;fill:rgb(214, 214, 214);d:path('M 603 148 v 49 h 97 v -49 h -97 Z M 840 18 h 2 v 14 h -2 Z m 6 0 h 2 v 14 h -2 Z');"/>
    <path d="M1045 13a13.38 13.38 0 0 0-13 13h26a13.38 13.38 0 0 0-13-13z" class="illustration-primary-fill" style="height:auto;overflow-x:visible;overflow-y:visible;width:auto;perspective-origin:0px 0px;transform-origin:0px 0px;fill:rgb(207, 216, 244);d:path('M 1045 13 a 13.38 13.38 0 0 0 -13 13 h 26 a 13.38 13.38 0 0 0 -13 -13 Z');"/>
    <path d="M1045 13v13h13a13.38 13.38 0 0 0-13-13z" class="illustration-secondary-fill" style="height:auto;overflow-x:visible;overflow-y:visible;width:auto;perspective-origin:0px 0px;transform-origin:0px 0px;fill:rgb(84, 56, 200);d:path('M 1045 13 v 13 h 13 a 13.38 13.38 0 0 0 -13 -13 Z');"/>
    <path fill="#fff" d="M1047 111V29h-2v-3h-20v3h-3v82h25z" style="height:auto;overflow-x:visible;overflow-y:visible;width:auto;perspective-origin:0px 0px;transform-origin:0px 0px;fill:rgb(255, 255, 255);d:path('M 1047 111 V 29 h -2 v -3 h -20 v 3 h -3 v 82 h 25 Z');"/>
    <path fill="#d6d6d6" d="M1041 34h2v7h-2zm0 11h2v7h-2zm0 11h2v7h-2zm0 11h2v7h-2zm0 11h2v7h-2zm-5-44h2v7h-2zm0 11h2v7h-2zm0 11h2v7h-2zm0 11h2v7h-2zm0 11h2v7h-2zm-5-44h2v7h-2zm0 11h2v7h-2zm0 11h2v7h-2zm0 11h2v7h-2zm0 11h2v7h-2zm-5-44h2v7h-2zm0 11h2v7h-2zm0 11h2v7h-2zm0 11h2v7h-2zm0 11h2v7h-2z" style="height:auto;overflow-x:visible;overflow-y:visible;width:auto;perspective-origin:0px 0px;transform-origin:0px 0px;fill:rgb(214, 214, 214);d:path('M 1041 34 h 2 v 7 h -2 Z m 0 11 h 2 v 7 h -2 Z m 0 11 h 2 v 7 h -2 Z m 0 11 h 2 v 7 h -2 Z m 0 11 h 2 v 7 h -2 Z m -5 -44 h 2 v 7 h -2 Z m 0 11 h 2 v 7 h -2 Z m 0 11 h 2 v 7 h -2 Z m 0 11 h 2 v 7 h -2 Z m 0 11 h 2 v 7 h -2 Z m -5 -44 h 2 v 7 h -2 Z m 0 11 h 2 v 7 h -2 Z m 0 11 h 2 v 7 h -2 Z m 0 11 h 2 v 7 h -2 Z m 0 11 h 2 v 7 h -2 Z m -5 -44 h 2 v 7 h -2 Z m 0 11 h 2 v 7 h -2 Z m 0 11 h 2 v 7 h -2 Z m 0 11 h 2 v 7 h -2 Z m 0 11 h 2 v 7 h -2 Z');"/>
    <path fill="#fff" d="M1142 38h26v100h-26z" style="height:auto;overflow-x:visible;overflow-y:visible;width:auto;perspective-origin:0px 0px;transform-origin:0px 0px;fill:rgb(255, 255, 255);d:path('M 1142 38 h 26 v 100 h -26 Z');"/>
    <path d="M1194 138h-26V38a26 26 0 0 1 26 26v74z" fill="#d6d6d6" style="height:auto;overflow-x:visible;overflow-y:visible;width:auto;perspective-origin:0px 0px;transform-origin:0px 0px;fill:rgb(214, 214, 214);d:path('M 1194 138 h -26 V 38 a 26 26 0 0 1 26 26 v 74 Z');"/>
    <path fill="#fff" d="M1123 153h61v44h-61z" style="height:auto;overflow-x:visible;overflow-y:visible;width:auto;perspective-origin:0px 0px;transform-origin:0px 0px;fill:rgb(255, 255, 255);d:path('M 1123 153 h 61 v 44 h -61 Z');"/>
    <path fill="#d6d6d6" d="M1184 153h72v44h-72z" style="height:auto;overflow-x:visible;overflow-y:visible;width:auto;perspective-origin:0px 0px;transform-origin:0px 0px;fill:rgb(214, 214, 214);d:path('M 1184 153 h 72 v 44 h -72 Z');"/>
    <path d="M1199 166a3 3 0 0 0-3 3v28h6v-28a3 3 0 0 0-3-3zm14 0a3 3 0 0 0-3 3v28h6v-28a3 3 0 0 0-3-3zm14 0a3 3 0 0 0-3 3v28h6v-28a3 3 0 0 0-3-3zm14 0a3 3 0 0 0-3 3v28h6v-28a3 3 0 0 0-3-3z" class="illustration-secondary-fill" style="height:auto;overflow-x:visible;overflow-y:visible;width:auto;perspective-origin:0px 0px;transform-origin:0px 0px;fill:rgb(84, 56, 200);d:path('M 1199 166 a 3 3 0 0 0 -3 3 v 28 h 6 v -28 a 3 3 0 0 0 -3 -3 Z m 14 0 a 3 3 0 0 0 -3 3 v 28 h 6 v -28 a 3 3 0 0 0 -3 -3 Z m 14 0 a 3 3 0 0 0 -3 3 v 28 h 6 v -28 a 3 3 0 0 0 -3 -3 Z m 14 0 a 3 3 0 0 0 -3 3 v 28 h 6 v -28 a 3 3 0 0 0 -3 -3 Z');"/>
    <path d="M1145 166a3 3 0 0 0-3 3v28h6v-28a3 3 0 0 0-3-3zm14 0a3 3 0 0 0-3 3v28h6v-28a3 3 0 0 0-3-3zm14 0a3 3 0 0 0-3 3v28h6v-28a3 3 0 0 0-3-3z" fill="#d6d6d6" style="height:auto;overflow-x:visible;overflow-y:visible;width:auto;perspective-origin:0px 0px;transform-origin:0px 0px;fill:rgb(214, 214, 214);d:path('M 1145 166 a 3 3 0 0 0 -3 3 v 28 h 6 v -28 a 3 3 0 0 0 -3 -3 Z m 14 0 a 3 3 0 0 0 -3 3 v 28 h 6 v -28 a 3 3 0 0 0 -3 -3 Z m 14 0 a 3 3 0 0 0 -3 3 v 28 h 6 v -28 a 3 3 0 0 0 -3 -3 Z');"/>
    <path d="M727 162v-4h5a17.39 17.39 0 0 0 12-5l2-2h10v11h-29z" class="illustration-primary-fill" style="height:auto;overflow-x:visible;overflow-y:visible;width:auto;perspective-origin:0px 0px;transform-origin:0px 0px;fill:rgb(207, 216, 244);d:path('M 727 162 v -4 h 5 a 17.39 17.39 0 0 0 12 -5 l 2 -2 h 10 v 11 h -29 Z');"/>
    <path d="M830 162v-4h-4c-4.6 0-9.8-1.8-13-5l-2-2h-55v11h74zm354-9h72a50.17 50.17 0 0 0-36-15 50.83 50.83 0 0 0-36 15z" class="illustration-secondary-fill" style="height:auto;overflow-x:visible;overflow-y:visible;width:auto;perspective-origin:0px 0px;transform-origin:0px 0px;fill:rgb(84, 56, 200);d:path('M 830 162 v -4 h -4 c -4.6 0 -9.8 -1.8 -13 -5 l -2 -2 h -55 v 11 h 74 Z m 354 -9 h 72 a 50.17 50.17 0 0 0 -36 -15 a 50.83 50.83 0 0 0 -36 15 Z');"/>
    <path fill="#d6d6d6" d="M1300 197l-44-44v44h44zM1142 68h26v2h-26zm0 6h26v2h-26zm0 6h26v2h-26zm0 6h26v2h-26zm0 6h26v2h-26zm0 6h26v2h-26zm0 6h26v2h-26zm0 6h26v2h-26z" style="height:auto;overflow-x:visible;overflow-y:visible;width:auto;perspective-origin:0px 0px;transform-origin:0px 0px;fill:rgb(214, 214, 214);d:path('M 1300 197 l -44 -44 v 44 h 44 Z M 1142 68 h 26 v 2 h -26 Z m 0 6 h 26 v 2 h -26 Z m 0 6 h 26 v 2 h -26 Z m 0 6 h 26 v 2 h -26 Z m 0 6 h 26 v 2 h -26 Z m 0 6 h 26 v 2 h -26 Z m 0 6 h 26 v 2 h -26 Z m 0 6 h 26 v 2 h -26 Z');"/>
    <path class="illustration-secondary-fill" d="M1168 68h26v2h-26zm0 6h26v2h-26zm0 6h26v2h-26zm0 6h26v2h-26zm0 6h26v2h-26zm0 6h26v2h-26zm0 6h26v2h-26zm0 6h26v2h-26z" style="height:auto;overflow-x:visible;overflow-y:visible;width:auto;perspective-origin:0px 0px;transform-origin:0px 0px;fill:rgb(84, 56, 200);d:path('M 1168 68 h 26 v 2 h -26 Z m 0 6 h 26 v 2 h -26 Z m 0 6 h 26 v 2 h -26 Z m 0 6 h 26 v 2 h -26 Z m 0 6 h 26 v 2 h -26 Z m 0 6 h 26 v 2 h -26 Z m 0 6 h 26 v 2 h -26 Z m 0 6 h 26 v 2 h -26 Z');"/>
    <path d="M1168 41v26h26a26.08 26.08 0 0 0-26-26z" transform="translate(0 -3)" fill="url(#c___158299696)" style="height:auto;overflow-x:visible;overflow-y:visible;width:auto;perspective-origin:0px 0px;transform:matrix(1, 0, 0, 1, 0, -3);transform-origin:0px 0px;fill:url(&quot;#c___158299696&quot;);d:path('M 1168 41 v 26 h 26 a 26.08 26.08 0 0 0 -26 -26 Z');"/>
    <path fill="#d6d6d6" d="M1335 162h35v35h-35z" style="height:auto;overflow-x:visible;overflow-y:visible;width:auto;perspective-origin:0px 0px;transform-origin:0px 0px;fill:rgb(214, 214, 214);d:path('M 1335 162 h 35 v 35 h -35 Z');"/>
    <path fill="url(#a___158299696)" d="M1335 162h35v35h-35z" style="height:auto;overflow-x:visible;overflow-y:visible;width:auto;perspective-origin:0px 0px;transform-origin:0px 0px;fill:url(&quot;#a___158299696&quot;);d:path('M 1335 162 h 35 v 35 h -35 Z');"/>
    <path class="illustration-primary-fill" d="M1335 162h-26l13-13 13 13z" style="height:auto;overflow-x:visible;overflow-y:visible;width:auto;perspective-origin:0px 0px;transform-origin:0px 0px;fill:rgb(207, 216, 244);d:path('M 1335 162 h -26 l 13 -13 l 13 13 Z');"/>
    <path class="illustration-secondary-fill" d="M1357 149h-35l13 13h35l-13-13zm-493 30v2a5.06 5.06 0 0 1-1.7 3.3l-2 2-.3.3V179h-2v18h2v-5.5a6.29 6.29 0 0 1 1.7-3.8l2-2a7 7 0 0 0 2.3-4.7v-2h-2zm77 7h2v11h-2zm-227 0h2v11h-2z" style="height:auto;overflow-x:visible;overflow-y:visible;width:auto;perspective-origin:0px 0px;transform-origin:0px 0px;fill:rgb(84, 56, 200);d:path('M 1357 149 h -35 l 13 13 h 35 l -13 -13 Z m -493 30 v 2 a 5.06 5.06 0 0 1 -1.7 3.3 l -2 2 l -0.3 0.3 V 179 h -2 v 18 h 2 v -5.5 a 6.29 6.29 0 0 1 1.7 -3.8 l 2 -2 a 7 7 0 0 0 2.3 -4.7 v -2 h -2 Z m 77 7 h 2 v 11 h -2 Z m -227 0 h 2 v 11 h -2 Z');"/>
    <path fill="#d6d6d6" d="M968 63h35v3h-35z" style="height:auto;overflow-x:visible;overflow-y:visible;width:auto;perspective-origin:0px 0px;transform-origin:0px 0px;fill:rgb(214, 214, 214);d:path('M 968 63 h 35 v 3 h -35 Z');"/>
    <path d="M490 197a42.44 42.44 0 0 1-30.5-12.9C449.6 174.2 436 168 422 168h-38c-8 0-15.3-2.3-21-8a31.79 31.79 0 0 0-22-9h-80a41.11 41.11 0 0 1-29-12 41.11 41.11 0 0 0-29-12H100a72.29 72.29 0 0 0-51 21L0 197h490z" style="height:auto;overflow-x:visible;overflow-y:visible;width:auto;perspective-origin:0px 0px;transform-origin:0px 0px;d:path('M 490 197 a 42.44 42.44 0 0 1 -30.5 -12.9 C 449.6 174.2 436 168 422 168 h -38 c -8 0 -15.3 -2.3 -21 -8 a 31.79 31.79 0 0 0 -22 -9 h -80 a 41.11 41.11 0 0 1 -29 -12 a 41.11 41.11 0 0 0 -29 -12 H 100 a 72.29 72.29 0 0 0 -51 21 L 0 197 h 490 Z');"/>
    <path d="M1297 27a22 22 0 1 0 22 22 22 22 0 0 0-22-22zm0 39a17 17 0 1 1 17-17 17 17 0 0 1-17 17z" class="illustration-tertiary-fill" style="height:auto;overflow-x:visible;overflow-y:visible;width:auto;perspective-origin:0px 0px;transform-origin:0px 0px;fill:rgb(32, 17, 99);d:path('M 1297 27 a 22 22 0 1 0 22 22 a 22 22 0 0 0 -22 -22 Z m 0 39 a 17 17 0 1 1 17 -17 a 17 17 0 0 1 -17 17 Z');"/>
    <path class="illustration-secondary-fill" d="M647 151v32h2v-30l-2-2zm8 8v24h2v-22l-2-2zm8 8v16h2v-14l-2-2zm8 8v8h2v-6l-2-2z" style="height:auto;overflow-x:visible;overflow-y:visible;width:auto;perspective-origin:0px 0px;transform-origin:0px 0px;fill:rgb(84, 56, 200);d:path('M 647 151 v 32 h 2 v -30 l -2 -2 Z m 8 8 v 24 h 2 v -22 l -2 -2 Z m 8 8 v 16 h 2 v -14 l -2 -2 Z m 8 8 v 8 h 2 v -6 l -2 -2 Z');"/>
    <path d="M603 148h-17.8a11.18 11.18 0 0 0-11.2 11.16V197h29v-49z" fill="#fff" style="height:auto;overflow-x:visible;overflow-y:visible;width:auto;perspective-origin:0px 0px;transform-origin:0px 0px;fill:rgb(255, 255, 255);d:path('M 603 148 h -17.8 a 11.18 11.18 0 0 0 -11.2 11.16 V 197 h 29 v -49 Z');"/>
    <path class="illustration-secondary-fill" d="M685 151h2v32h-2zm7 0h2v32h-2zM883 48h7v2h-7zm11 0h7v2h-7zm-11 6h7v2h-7zm11 0h7v2h-7zm-11 6h7v2h-7zm11 0h7v2h-7zm-11 6h7v2h-7zm11 0h7v2h-7zm-11 6h7v2h-7zm11 0h7v2h-7zm-11 6h7v2h-7zm11 0h7v2h-7zm-11 6h7v2h-7zm11 0h7v2h-7zm-11 6h7v2h-7zm11 0h7v2h-7zm-11 6h7v2h-7zm11 0h7v2h-7zm-11 6h7v2h-7zm11 0h7v2h-7zm-11 6h7v2h-7zm11 0h7v2h-7zm-11 6h7v2h-7zm11 0h7v2h-7zm-11 6h7v2h-7zm11 0h7v2h-7zm-11 6h7v2h-7zm11 0h7v2h-7zm-11 6h7v2h-7zm11 0h7v2h-7zm-11 6h7v2h-7zm11 0h7v2h-7zm-11 6h7v2h-7zm11 0h7v2h-7zm229-6h19v15h-19z" style="height:auto;overflow-x:visible;overflow-y:visible;width:auto;perspective-origin:0px 0px;transform-origin:0px 0px;fill:rgb(84, 56, 200);d:path('M 685 151 h 2 v 32 h -2 Z m 7 0 h 2 v 32 h -2 Z M 883 48 h 7 v 2 h -7 Z m 11 0 h 7 v 2 h -7 Z m -11 6 h 7 v 2 h -7 Z m 11 0 h 7 v 2 h -7 Z m -11 6 h 7 v 2 h -7 Z m 11 0 h 7 v 2 h -7 Z m -11 6 h 7 v 2 h -7 Z m 11 0 h 7 v 2 h -7 Z m -11 6 h 7 v 2 h -7 Z m 11 0 h 7 v 2 h -7 Z m -11 6 h 7 v 2 h -7 Z m 11 0 h 7 v 2 h -7 Z m -11 6 h 7 v 2 h -7 Z m 11 0 h 7 v 2 h -7 Z m -11 6 h 7 v 2 h -7 Z m 11 0 h 7 v 2 h -7 Z m -11 6 h 7 v 2 h -7 Z m 11 0 h 7 v 2 h -7 Z m -11 6 h 7 v 2 h -7 Z m 11 0 h 7 v 2 h -7 Z m -11 6 h 7 v 2 h -7 Z m 11 0 h 7 v 2 h -7 Z m -11 6 h 7 v 2 h -7 Z m 11 0 h 7 v 2 h -7 Z m -11 6 h 7 v 2 h -7 Z m 11 0 h 7 v 2 h -7 Z m -11 6 h 7 v 2 h -7 Z m 11 0 h 7 v 2 h -7 Z m -11 6 h 7 v 2 h -7 Z m 11 0 h 7 v 2 h -7 Z m -11 6 h 7 v 2 h -7 Z m 11 0 h 7 v 2 h -7 Z m -11 6 h 7 v 2 h -7 Z m 11 0 h 7 v 2 h -7 Z m 229 -6 h 19 v 15 h -19 Z');"/>
    <path d="M1220 138h-78v15h42a50.83 50.83 0 0 1 36-15z" class="illustration-primary-fill" style="height:auto;overflow-x:visible;overflow-y:visible;width:auto;perspective-origin:0px 0px;transform-origin:0px 0px;fill:rgb(207, 216, 244);d:path('M 1220 138 h -78 v 15 h 42 a 50.83 50.83 0 0 1 36 -15 Z');"/>
    <path fill="#d6d6d6" d="M1335 173h-13v-58h-26v82h39v-24z" style="height:auto;overflow-x:visible;overflow-y:visible;width:auto;perspective-origin:0px 0px;transform-origin:0px 0px;fill:rgb(214, 214, 214);d:path('M 1335 173 h -13 v -58 h -26 v 82 h 39 v -24 Z');"/>
    <path class="illustration-secondary-fill" d="M1316 120h2v7h-2zm-8 0h2v7h-2zm-8 0h2v7h-2zm16 13h2v7h-2zm-8 0h2v7h-2zm-8 0h2v7h-2zm16 13h2v7h-2zm-8 0h2v7h-2zm-8 0h2v7h-2z" style="height:auto;overflow-x:visible;overflow-y:visible;width:auto;perspective-origin:0px 0px;transform-origin:0px 0px;fill:rgb(84, 56, 200);d:path('M 1316 120 h 2 v 7 h -2 Z m -8 0 h 2 v 7 h -2 Z m -8 0 h 2 v 7 h -2 Z m 16 13 h 2 v 7 h -2 Z m -8 0 h 2 v 7 h -2 Z m -8 0 h 2 v 7 h -2 Z m 16 13 h 2 v 7 h -2 Z m -8 0 h 2 v 7 h -2 Z m -8 0 h 2 v 7 h -2 Z');"/>
    <path d="M826 158h4v-44h-12v42.3a20.53 20.53 0 0 0 8 1.7z" style="height:auto;overflow-x:visible;overflow-y:visible;width:auto;perspective-origin:0px 0px;transform-origin:0px 0px;d:path('M 826 158 h 4 v -44 h -12 v 42.3 a 20.53 20.53 0 0 0 8 1.7 Z');"/>
    <path d="M813 153a16.56 16.56 0 0 0 4.3 3h.7V0h-30v86h-32v65h55zm-99-60h42v2h-42zm0 6h42v2h-42zm0 6h42v2h-42zm0 6h42v2h-42zm0 6h42v2h-42zm0 6h42v2h-42zm0 6h42v2h-42zm0 6h42v2h-42z" fill="#d6d6d6" style="height:auto;overflow-x:visible;overflow-y:visible;width:auto;perspective-origin:0px 0px;transform-origin:0px 0px;fill:rgb(214, 214, 214);d:path('M 813 153 a 16.56 16.56 0 0 0 4.3 3 h 0.7 V 0 h -30 v 86 h -32 v 65 h 55 Z m -99 -60 h 42 v 2 h -42 Z m 0 6 h 42 v 2 h -42 Z m 0 6 h 42 v 2 h -42 Z m 0 6 h 42 v 2 h -42 Z m 0 6 h 42 v 2 h -42 Z m 0 6 h 42 v 2 h -42 Z m 0 6 h 42 v 2 h -42 Z m 0 6 h 42 v 2 h -42 Z');"/>
    <path class="illustration-secondary-fill" d="M756 93h34v2h-34zm0 6h34v2h-34zm0 6h34v2h-34zm0 6h34v2h-34zm0 6h34v2h-34zm0 6h34v2h-34zm0 6h34v2h-34zm0 6h34v2h-34zM796 0h2v137h-2zm6 0h2v137h-2zm6 0h2v137h-2z" style="height:auto;overflow-x:visible;overflow-y:visible;width:auto;perspective-origin:0px 0px;transform-origin:0px 0px;fill:rgb(84, 56, 200);d:path('M 756 93 h 34 v 2 h -34 Z m 0 6 h 34 v 2 h -34 Z m 0 6 h 34 v 2 h -34 Z m 0 6 h 34 v 2 h -34 Z m 0 6 h 34 v 2 h -34 Z m 0 6 h 34 v 2 h -34 Z m 0 6 h 34 v 2 h -34 Z m 0 6 h 34 v 2 h -34 Z M 796 0 h 2 v 137 h -2 Z m 6 0 h 2 v 137 h -2 Z m 6 0 h 2 v 137 h -2 Z');"/>
    <path fill="#fff" d="M644 148h35v35l-35-35z" style="height:auto;overflow-x:visible;overflow-y:visible;width:auto;perspective-origin:0px 0px;transform-origin:0px 0px;fill:rgb(255, 255, 255);d:path('M 644 148 h 35 v 35 l -35 -35 Z');"/>
    <path fill="#d6d6d6" d="M649 153v-2h-2l2 2zm8 8v-10h-2v8l2 2zm8 8v-18h-2v16l2 2zm8 8v-26h-2v24l2 2z" style="height:auto;overflow-x:visible;overflow-y:visible;width:auto;perspective-origin:0px 0px;transform-origin:0px 0px;fill:rgb(214, 214, 214);d:path('M 649 153 v -2 h -2 l 2 2 Z m 8 8 v -10 h -2 v 8 l 2 2 Z m 8 8 v -18 h -2 v 16 l 2 2 Z m 8 8 v -26 h -2 v 24 l 2 2 Z');"/>
    <path d="M1123 72h19v66h-19z" style="height:auto;overflow-x:visible;overflow-y:visible;width:auto;perspective-origin:0px 0px;transform-origin:0px 0px;d:path('M 1123 72 h 19 v 66 h -19 Z');"/>
    <path fill="#d6d6d6" d="M1062 29v-3h-17v3h2v80l-18-18h-7v-6h-54v6h-13v106h100v-27l-55-55h65V29h-3z" style="height:auto;overflow-x:visible;overflow-y:visible;width:auto;perspective-origin:0px 0px;transform-origin:0px 0px;fill:rgb(214, 214, 214);d:path('M 1062 29 v -3 h -17 v 3 h 2 v 80 l -18 -18 h -7 v -6 h -54 v 6 h -13 v 106 h 100 v -27 l -55 -55 h 65 V 29 h -3 Z');"/>
    <path class="illustration-secondary-fill" d="M1060 34h2v7h-2zm0 11h2v7h-2zm-5-11h2v7h-2zm0 11h2v7h-2zm-5-11h2v7h-2zm0 11h2v7h-2zm-95 53h74v2h-74zm0 6h74v2h-74zm0 6h74v2h-74zm0 6h45v2h-45zm0 6h45v2h-45zm0 6h45v2h-45zm0 6h45v2h-45zm0 6h45v2h-45z" style="height:auto;overflow-x:visible;overflow-y:visible;width:auto;perspective-origin:0px 0px;transform-origin:0px 0px;fill:rgb(84, 56, 200);d:path('M 1060 34 h 2 v 7 h -2 Z m 0 11 h 2 v 7 h -2 Z m -5 -11 h 2 v 7 h -2 Z m 0 11 h 2 v 7 h -2 Z m -5 -11 h 2 v 7 h -2 Z m 0 11 h 2 v 7 h -2 Z m -95 53 h 74 v 2 h -74 Z m 0 6 h 74 v 2 h -74 Z m 0 6 h 74 v 2 h -74 Z m 0 6 h 45 v 2 h -45 Z m 0 6 h 45 v 2 h -45 Z m 0 6 h 45 v 2 h -45 Z m 0 6 h 45 v 2 h -45 Z m 0 6 h 45 v 2 h -45 Z');"/>
    <path d="M1024.3 158.6a2 2 0 0 0-3.3 1.4v11l-12.7-12.4a2 2 0 0 0-3.3 1.4v11l-12.7-12.4a2 2 0 0 0-3.3 1.4v11l-12.7-12.4a2 2 0 0 0-3.3 1.4v37h64v-26z" fill="#fff" style="height:auto;overflow-x:visible;overflow-y:visible;width:auto;perspective-origin:0px 0px;transform-origin:0px 0px;fill:rgb(255, 255, 255);d:path('M 1024.3 158.6 a 2 2 0 0 0 -3.3 1.4 v 11 l -12.7 -12.4 a 2 2 0 0 0 -3.3 1.4 v 11 l -12.7 -12.4 a 2 2 0 0 0 -3.3 1.4 v 11 l -12.7 -12.4 a 2 2 0 0 0 -3.3 1.4 v 37 h 64 v -26 Z');"/>
    <path fill="#d6d6d6" d="M977 177h7v2h-7zm11 0h7v2h-7zm11 0h7v2h-7zm11 0h7v2h-7zm-33 6h7v2h-7zm11 0h7v2h-7zm11 0h7v2h-7zm11 0h7v2h-7zm-33 6h7v2h-7zm11 0h7v2h-7zm11 0h7v2h-7zm11 0h7v2h-7z" style="height:auto;overflow-x:visible;overflow-y:visible;width:auto;perspective-origin:0px 0px;transform-origin:0px 0px;fill:rgb(214, 214, 214);d:path('M 977 177 h 7 v 2 h -7 Z m 11 0 h 7 v 2 h -7 Z m 11 0 h 7 v 2 h -7 Z m 11 0 h 7 v 2 h -7 Z m -33 6 h 7 v 2 h -7 Z m 11 0 h 7 v 2 h -7 Z m 11 0 h 7 v 2 h -7 Z m 11 0 h 7 v 2 h -7 Z m -33 6 h 7 v 2 h -7 Z m 11 0 h 7 v 2 h -7 Z m 11 0 h 7 v 2 h -7 Z m 11 0 h 7 v 2 h -7 Z');"/>
    <path class="illustration-secondary-fill" d="M1043 177h7v2h-7zm0 6h7v2h-7zm0 6h7v2h-7z" style="height:auto;overflow-x:visible;overflow-y:visible;width:auto;perspective-origin:0px 0px;transform-origin:0px 0px;fill:rgb(84, 56, 200);d:path('M 1043 177 h 7 v 2 h -7 Z m 0 6 h 7 v 2 h -7 Z m 0 6 h 7 v 2 h -7 Z');"/>
    <path fill="#d6d6d6" d="M1021 147h2v7h-2zm-8 0h2v7h-2zm-8 0h2v7h-2z" style="height:auto;overflow-x:visible;overflow-y:visible;width:auto;perspective-origin:0px 0px;transform-origin:0px 0px;fill:rgb(214, 214, 214);d:path('M 1021 147 h 2 v 7 h -2 Z m -8 0 h 2 v 7 h -2 Z m -8 0 h 2 v 7 h -2 Z');"/>
    <path class="illustration-secondary-fill" d="M1029 147h2v7h-2zm-8 0h2v7h-2zm-8 0h2v7h-2zm-8 0h2v7h-2z" style="height:auto;overflow-x:visible;overflow-y:visible;width:auto;perspective-origin:0px 0px;transform-origin:0px 0px;fill:rgb(84, 56, 200);d:path('M 1029 147 h 2 v 7 h -2 Z m -8 0 h 2 v 7 h -2 Z m -8 0 h 2 v 7 h -2 Z m -8 0 h 2 v 7 h -2 Z');"/>
    <path fill="#d6d6d6" d="M1013 134h2v7h-2zm-8 0h2v7h-2z" style="height:auto;overflow-x:visible;overflow-y:visible;width:auto;perspective-origin:0px 0px;transform-origin:0px 0px;fill:rgb(214, 214, 214);d:path('M 1013 134 h 2 v 7 h -2 Z m -8 0 h 2 v 7 h -2 Z');"/>
    <path class="illustration-secondary-fill" d="M1013 134h2v7h-2zm-8 0h2v7h-2zm0-13v7h2v-6l-1-1h-1z" style="height:auto;overflow-x:visible;overflow-y:visible;width:auto;perspective-origin:0px 0px;transform-origin:0px 0px;fill:rgb(84, 56, 200);d:path('M 1013 134 h 2 v 7 h -2 Z m -8 0 h 2 v 7 h -2 Z m 0 -13 v 7 h 2 v -6 l -1 -1 h -1 Z');"/>
    <path fill="#d6d6d6" d="M1021 121h2v7h-2zm-8 0h2v7h-2zm10 20l-2-2v-5h2v7z" style="height:auto;overflow-x:visible;overflow-y:visible;width:auto;perspective-origin:0px 0px;transform-origin:0px 0px;fill:rgb(214, 214, 214);d:path('M 1021 121 h 2 v 7 h -2 Z m -8 0 h 2 v 7 h -2 Z m 10 20 l -2 -2 v -5 h 2 v 7 Z');"/>
    <path class="illustration-secondary-fill" d="M1039 154h-2v-2l2 2z" style="height:auto;overflow-x:visible;overflow-y:visible;width:auto;perspective-origin:0px 0px;transform-origin:0px 0px;fill:rgb(84, 56, 200);d:path('M 1039 154 h -2 v -2 l 2 2 Z');"/>
    <path fill="url(#a___158299696)" d="M603 148h41v49h-41z" style="height:auto;overflow-x:visible;overflow-y:visible;width:auto;perspective-origin:0px 0px;transform-origin:0px 0px;fill:url(&quot;#a___158299696&quot;);d:path('M 603 148 h 41 v 49 h -41 Z');"/>
    <path fill="#fff" d="M1335 162h-26l26 26v-26z" style="height:auto;overflow-x:visible;overflow-y:visible;width:auto;perspective-origin:0px 0px;transform-origin:0px 0px;fill:rgb(255, 255, 255);d:path('M 1335 162 h -26 l 26 26 v -26 Z');"/>
    <path class="illustration-primary-fill" d="M1335 162h-26l13-13 13 13z" style="height:auto;overflow-x:visible;overflow-y:visible;width:auto;perspective-origin:0px 0px;transform-origin:0px 0px;fill:rgb(207, 216, 244);d:path('M 1335 162 h -26 l 13 -13 l 13 13 Z');"/>
    <path fill="#d6d6d6" d="M1329 166h2v7h-2zm-8 0h2v7h-2z" style="height:auto;overflow-x:visible;overflow-y:visible;width:auto;perspective-origin:0px 0px;transform-origin:0px 0px;fill:rgb(214, 214, 214);d:path('M 1329 166 h 2 v 7 h -2 Z m -8 0 h 2 v 7 h -2 Z');"/>
    <path d="M1293 197c6.2 0 13.6-2.6 18-7a28 28 0 0 1 20-8h20a17.84 17.84 0 0 0 12-5c2-2 4.4-4.2 7-5v25h-77z" style="height:auto;overflow-x:visible;overflow-y:visible;width:auto;perspective-origin:0px 0px;transform-origin:0px 0px;d:path('M 1293 197 c 6.2 0 13.6 -2.6 18 -7 a 28 28 0 0 1 20 -8 h 20 a 17.84 17.84 0 0 0 12 -5 c 2 -2 4.4 -4.2 7 -5 v 25 h -77 Z');"/>
    <path class="illustration-secondary-fill" d="M1023 141h-2v-5l2 2v3z" style="height:auto;overflow-x:visible;overflow-y:visible;width:auto;perspective-origin:0px 0px;transform-origin:0px 0px;fill:rgb(84, 56, 200);d:path('M 1023 141 h -2 v -5 l 2 2 v 3 Z');"/>
    <path d="M718.5 186h-10a3.54 3.54 0 0 1-3.5-3.5 3.54 3.54 0 0 1 3.5-3.5h1.1a3.49 3.49 0 0 0 2.4-1 3.49 3.49 0 0 1 2.4-1h4.1a4.48 4.48 0 0 1 4.5 4.46 4.48 4.48 0 0 1-4.46 4.5zM848 175.5a3.54 3.54 0 0 1 3.5-3.5 6 6 0 0 0 4.3-1.8l.2-.2a6.73 6.73 0 0 1 4.8-2h7.7a5.55 5.55 0 0 1 5.5 5.5 5.55 5.55 0 0 1-5.5 5.5h-17a3.54 3.54 0 0 1-3.5-3.5zm88.5 10.5H948a3 3 0 0 0 3-3 3 3 0 0 0-3-3h-.9a4.91 4.91 0 0 1-3.6-1.5 5.07 5.07 0 0 0-3.6-1.5h-3.4a4.4 4.4 0 0 0-4.4 4.4v.1a4.34 4.34 0 0 0 4.18 4.5h.22z" class="illustration-primary-fill" style="height:auto;overflow-x:visible;overflow-y:visible;width:auto;perspective-origin:0px 0px;transform-origin:0px 0px;fill:rgb(207, 216, 244);d:path('M 718.5 186 h -10 a 3.54 3.54 0 0 1 -3.5 -3.5 a 3.54 3.54 0 0 1 3.5 -3.5 h 1.1 a 3.49 3.49 0 0 0 2.4 -1 a 3.49 3.49 0 0 1 2.4 -1 h 4.1 a 4.48 4.48 0 0 1 4.5 4.46 a 4.48 4.48 0 0 1 -4.46 4.5 Z M 848 175.5 a 3.54 3.54 0 0 1 3.5 -3.5 a 6 6 0 0 0 4.3 -1.8 l 0.2 -0.2 a 6.73 6.73 0 0 1 4.8 -2 h 7.7 a 5.55 5.55 0 0 1 5.5 5.5 a 5.55 5.55 0 0 1 -5.5 5.5 h -17 a 3.54 3.54 0 0 1 -3.5 -3.5 Z m 88.5 10.5 H 948 a 3 3 0 0 0 3 -3 a 3 3 0 0 0 -3 -3 h -0.9 a 4.91 4.91 0 0 1 -3.6 -1.5 a 5.07 5.07 0 0 0 -3.6 -1.5 h -3.4 a 4.4 4.4 0 0 0 -4.4 4.4 v 0.1 a 4.34 4.34 0 0 0 4.18 4.5 h 0.22 Z');"/>
    <path fill="#d6d6d6" d="M1007 122l-1-1h1v1z" style="height:auto;overflow-x:visible;overflow-y:visible;width:auto;perspective-origin:0px 0px;transform-origin:0px 0px;fill:rgb(214, 214, 214);d:path('M 1007 122 l -1 -1 h 1 v 1 Z');"/>
    <path d="M1099 50h-24a19.93 19.93 0 0 0-20 19.86V197h44V50z" fill="#fff" style="height:auto;overflow-x:visible;overflow-y:visible;width:auto;perspective-origin:0px 0px;transform-origin:0px 0px;fill:rgb(255, 255, 255);d:path('M 1099 50 h -24 a 19.93 19.93 0 0 0 -20 19.86 V 197 h 44 V 50 Z');"/>
    <path fill="#d6d6d6" d="M1072 58h2v57h-2zm7 0h2v57h-2zm9 63l-2-2V58h2v63zm7 7l-2-2V58h2v70z" style="height:auto;overflow-x:visible;overflow-y:visible;width:auto;perspective-origin:0px 0px;transform-origin:0px 0px;fill:rgb(214, 214, 214);d:path('M 1072 58 h 2 v 57 h -2 Z m 7 0 h 2 v 57 h -2 Z m 9 63 l -2 -2 V 58 h 2 v 63 Z m 7 7 l -2 -2 V 58 h 2 v 70 Z');"/>
    <path fill="#d6d6d6" d="M1123 153V50h-24v81l-16-16h-28v82h112l-44-44z" style="height:auto;overflow-x:visible;overflow-y:visible;width:auto;perspective-origin:0px 0px;transform-origin:0px 0px;fill:rgb(214, 214, 214);d:path('M 1123 153 V 50 h -24 v 81 l -16 -16 h -28 v 82 h 112 l -44 -44 Z');"/>
    <path class="illustration-secondary-fill" d="M1088 151h-2v-33l2 2v31zm7 0h-2v-26l2 2v24zm-17-30h2v7h-2zm-8 0h2v7h-2zm-8 0h2v7h-2zm16 13h2v7h-2zm-8 0h2v7h-2zm-8 0h2v7h-2zm16 13h2v7h-2zm-8 0h2v7h-2zm-8 0h2v7h-2zm20 32v2a5.06 5.06 0 0 1-1.7 3.3l-2 2-.3.3V179h-2v18h2v-5a7.43 7.43 0 0 1 1.7-4.3l2-2a7 7 0 0 0 2.3-4.7v-2h-2z" style="height:auto;overflow-x:visible;overflow-y:visible;width:auto;perspective-origin:0px 0px;transform-origin:0px 0px;fill:rgb(84, 56, 200);d:path('M 1088 151 h -2 v -33 l 2 2 v 31 Z m 7 0 h -2 v -26 l 2 2 v 24 Z m -17 -30 h 2 v 7 h -2 Z m -8 0 h 2 v 7 h -2 Z m -8 0 h 2 v 7 h -2 Z m 16 13 h 2 v 7 h -2 Z m -8 0 h 2 v 7 h -2 Z m -8 0 h 2 v 7 h -2 Z m 16 13 h 2 v 7 h -2 Z m -8 0 h 2 v 7 h -2 Z m -8 0 h 2 v 7 h -2 Z m 20 32 v 2 a 5.06 5.06 0 0 1 -1.7 3.3 l -2 2 l -0.3 0.3 V 179 h -2 v 18 h 2 v -5 a 7.43 7.43 0 0 1 1.7 -4.3 l 2 -2 a 7 7 0 0 0 2.3 -4.7 v -2 h -2 Z');"/>
    <path d="M1066 175.6a3.46 3.46 0 0 1 3.5-3.4h1.2a4 4 0 0 0 2.5-1l2.2-2.1a3.74 3.74 0 0 1 2.5-1h8.6a5.57 5.57 0 0 1 5.6 5.5 5.57 5.57 0 0 1-5.6 5.5h-16.9a3.63 3.63 0 0 1-3.6-3.5z" fill="#fff" style="height:auto;overflow-x:visible;overflow-y:visible;width:auto;perspective-origin:0px 0px;transform-origin:0px 0px;fill:rgb(255, 255, 255);d:path('M 1066 175.6 a 3.46 3.46 0 0 1 3.5 -3.4 h 1.2 a 4 4 0 0 0 2.5 -1 l 2.2 -2.1 a 3.74 3.74 0 0 1 2.5 -1 h 8.6 a 5.57 5.57 0 0 1 5.6 5.5 a 5.57 5.57 0 0 1 -5.6 5.5 h -16.9 a 3.63 3.63 0 0 1 -3.6 -3.5 Z');"/>
    <path class="illustration-secondary-fill" d="M1106 186h2v11h-2z" style="height:auto;overflow-x:visible;overflow-y:visible;width:auto;perspective-origin:0px 0px;transform-origin:0px 0px;fill:rgb(84, 56, 200);d:path('M 1106 186 h 2 v 11 h -2 Z');"/>
    <path d="M1101.5 186h11.5a3 3 0 0 0 3-3 3 3 0 0 0-3-3h-.9a4.91 4.91 0 0 1-3.6-1.5 5.08 5.08 0 0 0-3.6-1.5h-3.4a4.4 4.4 0 0 0-4.4 4.4v.1a4.34 4.34 0 0 0 4.18 4.5h.22z" fill="#fff" style="height:auto;overflow-x:visible;overflow-y:visible;width:auto;perspective-origin:0px 0px;transform-origin:0px 0px;fill:rgb(255, 255, 255);d:path('M 1101.5 186 h 11.5 a 3 3 0 0 0 3 -3 a 3 3 0 0 0 -3 -3 h -0.9 a 4.91 4.91 0 0 1 -3.6 -1.5 a 5.08 5.08 0 0 0 -3.6 -1.5 h -3.4 a 4.4 4.4 0 0 0 -4.4 4.4 v 0.1 a 4.34 4.34 0 0 0 4.18 4.5 h 0.22 Z');"/>
    <path class="illustration-secondary-fill" d="M1106 58h2v93h-2zm7 0h2v93h-2z" style="height:auto;overflow-x:visible;overflow-y:visible;width:auto;perspective-origin:0px 0px;transform-origin:0px 0px;fill:rgb(84, 56, 200);d:path('M 1106 58 h 2 v 93 h -2 Z m 7 0 h 2 v 93 h -2 Z');"/>
    <path d="M1297 20a32 32 0 1 0 32 32 32 32 0 0 0-32-32zm0 49a17 17 0 1 1 17-17 17 17 0 0 1-17 17z" transform="translate(0 -3)" fill="url(#c___158299696)" style="height:auto;overflow-x:visible;overflow-y:visible;width:auto;perspective-origin:0px 0px;transform:matrix(1, 0, 0, 1, 0, -3);transform-origin:0px 0px;fill:url(&quot;#c___158299696&quot;);d:path('M 1297 20 a 32 32 0 1 0 32 32 a 32 32 0 0 0 -32 -32 Z m 0 49 a 17 17 0 1 1 17 -17 a 17 17 0 0 1 -17 17 Z');"/>
</svg>